{
.appVersion = "3436";
.formatVersion = 3;
axes = (
{
name = Weight;
tag = wght;
}
);
classes = (
{
code = "zero-ar
one-ar
two-ar
three-ar
four-ar
five-ar
six-ar
seven-ar
eight-ar
nine-ar
zeroFarsi-ar
oneFarsi-ar
twoFarsi-ar
threeFarsi-ar
fourFarsi-ar
fiveFarsi-ar
sixFarsi-ar
sevenFarsi-ar
eightFarsi-ar
nineFarsi-ar
fourFarsi-ar.urdu
sevenFarsi-ar.urdu";
name = ArabicDigits;
},
{
code = "zero-ar.EoA
one-ar.EoA
two-ar.EoA
three-ar.EoA
four-ar.EoA
five-ar.EoA
six-ar.EoA
seven-ar.EoA
eight-ar.EoA
nine-ar.EoA
zeroFarsi-ar.EoA
one-ar.EoA
two-ar.EoA
three-ar.EoA
fourFarsi-ar.EoA
fiveFarsi-ar.EoA
sixFarsi-ar.EoA
seven-ar.EoA
eight-ar.EoA
nine-ar.EoA
four-ar.EoA
seven-ar.EoA";
name = ArabicDigits.EoA;
},
{
code = "zero-ar.s
one-ar.s
two-ar.s
three-ar.s
four-ar.s
five-ar.s
six-ar.s
seven-ar.s
eight-ar.s
nine-ar.s
zeroFarsi-ar.s
one-ar.s
two-ar.s
three-ar.s
fourFarsi-ar.s
fiveFarsi-ar.s
sixFarsi-ar.s
seven-ar.s
eight-ar.s
nine-ar.s
fourFarsi-ar.urdu.s
sevenFarsi-ar.urdu.s";
name = ArabicDigits.s;
},
{
code = "behDotless-ar.init behDotless-ar.init.Extended_1 behDotless-ar.init.Extended_2 behDotless-ar.init.Extended_3";
name = BEH.init;
},
{
code = "wavyhamzabelow-ar alefbelow-ar hamzabelow-ar hamzabelowKasra-ar hamzabelowKasratan-ar vbelow-ar vinvertedbelow-ar kasratan-ar kasra-ar";
name = "belowMarks-ar";
},
{
code = "hamzabelow-ar wavyhamzabelow-ar";
name = hamzabelow;
},
{
code = "dotbelow-ar twodotshorizontalbelow-ar threedotsdownbelow-ar";
name = BelowDots;
},
{
code = "twodotshorizontalbelow-ar threedotsdownbelow-ar";
name = BelowDots.wide;
},
{
code = "dotbelow-ar";
name = BelowDots.narrow;
},
{
code = "twodotshorizontalbelow-ar.ss01 threedotsdownbelow-ar.ss01";
name = BelowDots.wide.ss01;
},
{
code = "twodotshorizontalbelow-ar.ss02 threedotsdownbelow-ar.ss02";
name = BelowDots.wide.ss02;
},
{
code = "twodotshorizontalbelow-ar.ss03 threedotsdownbelow-ar.ss03";
name = BelowDots.wide.ss03;
}
);
customParameters = (
{
name = "meta Table";
value = (
{
data = "Arab, Latn";

glyphs = (
{
color = 3;
glyphname = A;
kernLeft = A;
kernRight = A;
lastChange = "2026-02-24 20:52:23 +0000";
layers = (
{
anchors = (
{
name = bottom;
pos = (277,0);
},
{
name = bottom.alt;
pos = (529,0);
},
{
name = top;
pos = (277,650);
}
);
layerId = "AE3FEF6D-3AA7-4252-B349-D2606A6A3B4C";
shapes = (
{
closed = 1;
nodes = (
(40,0,l),
(116,201,l),
(439,201,l),
(515,0,l),
(545,0,l),
(299,650,l),
(256,650,l),
(9,0,l)
);
},
{
closed = 1;
nodes = (
(275,631,l),
(280,631,l),
(429,228,l),
(124,228,l)
);
}
);
vertWidth = 0;
width = 555;
},
{
anchors = (
{
name = bottom;
pos = (330,0);
},
{
name = bottom.alt;
pos = (592,23);
},
{
name = top;
pos = (330,662);
}
);
layerId = "3FD7D777-D61F-402B-A269-3A472D550581";
shapes = (
{
closed = 1;
nodes = (
(173,0,l),
(220,140,l),
(442,140,l),
(487,0,l),
(688,0,l),
(432,662,l),
(230,662,l),
(-28,0,l)
);
},
{
closed = 1;
nodes = (
(329,462,l),
(334,462,l),
(396,269,l),
(266,269,l)
);
}
);
vertWidth = 0;
width = 660;
},
{
anchors = (
{
name = bottom;
pos = (305,0);
},
{
name = bottom.alt;
pos = (562,12);
},
{
name = top;
pos = (305,656);
}
);
layerId = m003;
shapes = (
{
closed = 1;
nodes = (
(108,0,l),
(169,171,l),
(442,171,l),
(502,0,l),
(618,0,l),
(367,656,l),
(244,656,l),
(-8,0,l)
);
},
{
closed = 1;
nodes = (
(303,547,l),
(308,547,l),
(414,249,l),
(196,249,l)
);
}
);
vertWidth = 0;
width = 610;
}
);
unicode = 65;
},
{
glyphname = AA;
kernLeft = A;
kernRight = Agrave;
lastChange = "2026-02-24 20:52:23 +0000";
layers = (
{
background = {
shapes = (
{
alignment = -1;
attr = {
identifier = 0E114AF1;
};
pos = (506,0);
ref = A;
userData = {
UFO.identifier = 02864D95;
UFO.lib = {
};
};
},
{
alignment = -1;
attr = {
identifier = 52A81CB2;
};
ref = A;
userData = {
UFO.identifier = E8936CC3;
UFO.lib = {
};
};
}
);
};
layerId = "AE3FEF6D-3AA7-4252-B349-D2606A6A3B4C";
shapes = (
{
closed = 1;
nodes = (
(546,0,l),
(622,201,l),
(945,201,l),
(1021,0,l),
(1051,0,l),
(805,650,l),
(762,650,l),
(530,40,l),
(299,650,l),
(256,650,l),
(9,0,l),
(40,0,l),
(116,201,l),
(439,201,l),
(515,0,l)
);
},
{
closed = 1;
nodes = (
(781,631,l),
(786,631,l),
(935,228,l),
(630,228,l)
);
},
{
closed = 1;
nodes = (
(275,631,l),
(280,631,l),
(429,228,l),
(124,228,l)
);
}
);
width = 1061;
},
{
background = {
shapes = (
{
alignment = -1;
pos = (571,0);
ref = A;
userData = {
UFO.identifier = 850782C4;
UFO.lib = {
};
};
},
{
alignment = -1;
pos = (1,0);
ref = A;
userData = {
UFO.identifier = 1B0B2F2B;
UFO.lib = {
};
};
}
);
};
layerId = "3FD7D777-D61F-402B-A269-3A472D550581";
shapes = (
{
closed = 1;
nodes = (
(703,0,l),
(751,140,l),
(972,140,l),
(1017,0,l),
(1218,0,l),
(962,662,l),
(760,662,l),
(595,239,l),
(432,662,l),
(230,662,l),
(-28,0,l),
(173,0,l),
(220,140,l),
(442,140,l),
(487,0,l)
);
},
{
closed = 1;
nodes = (
(859,462,l),
(864,462,l),
(926,269,l),
(796,269,l)
);
},
{
closed = 1;
nodes = (
(329,462,l),
(334,462,l),
(396,269,l),
(266,269,l)
);
}
);
width = 1190;
},
{
background = {
shapes = (
{
alignment = -1;
attr = {
identifier = 0E114AF1;
};
pos = (518,0);
ref = A;
userData = {
UFO.identifier = 02864D95;
UFO.lib = {
};
};
},
{
alignment = -1;
attr = {
identifier = 52A81CB2;
};
ref = A;
userData = {
UFO.identifier = E8936CC3;
UFO.lib = {
};
};
}
);
};
layerId = m003;
shapes = (
{
closed = 1;
nodes = (
(626,0,l),
(688,171,l),
(960,171,l),
(1020,0,l),
(1136,0,l),
(885,656,l),
(762,656,l),
(564,140,l),
(367,656,l),
(244,656,l),
(-8,0,l),
(108,0,l),
(169,171,l),
(442,171,l),
(502,0,l)
);
},
{
closed = 1;
nodes = (
(821,547,l),
(826,547,l),
(932,249,l),
(714,249,l)
);
},
{
closed = 1;
nodes = (
(303,547,l),
(308,547,l),
(414,249,l),
(196,249,l)
);
}
);
width = 1128;
}
);
metricLeft = A;
metricRight = A;
unicode = 42802;
},
{
glyphname = AVhorizontalbar;
kernLeft = A;
kernRight = Wcircumflex;
lastChange = "2026-02-24 20:52:23 +0000";
layers = (
{
background = {
shapes = (
{
ref = A;
}
);
};
layerId = "AE3FEF6D-3AA7-4252-B349-D2606A6A3B4C";
shapes = (
{
closed = 1;
nodes = (
(40,0,l),
(116,201,l),
(439,201,l),
(515,0,l),
(560,0,l),
(807,650,l),
(776,650,l),
(701,449,l),
(375,449,l),
(299,650,l),
(256,650,l),
(9,0,l)
);
},
{
closed = 1;
nodes = (
(275,631,l),
(280,631,l),
(429,228,l),
(124,228,l)
);
},
{
closed = 1;
nodes = (
(691,422,l),
(540,20,l),
(537,20,l),
(385,422,l)
);
}
);
vertWidth = 0;
width = 817;
},
{
background = {
shapes = (
{
pos = (1,0);
ref = A;
},
{
pos = (293,0);
ref = V;
}
);
};
layerId = "3FD7D777-D61F-402B-A269-3A472D550581";
shapes = (
{
closed = 1;
nodes = (
(173,0,l),
(220,140,l),
(442,140,l),
(487,0,l),
(702,0,l),
(962,662,l),
(760,662,l),
(713,523,l),
(483,523,l),
(432,662,l),
(230,662,l),
(-28,0,l)
);
},
{
closed = 1;
nodes = (
(329,462,l),
(334,462,l),
(396,269,l),
(267,269,l)
);
},
{
closed = 1;
nodes = (
(670,394,l),
(605,199,l),
(600,199,l),
(529,394,l)
);
}
);
vertWidth = 0;
width = 934;
},
{
background = {
shapes = (
{
pos = (1,0);
ref = A;
}
);
};
layerId = m003;
shapes = (
{
closed = 1;
nodes = (
(108,0,l),
(169,171,l),
(442,171,l),
(502,0,l),
(632,0,l),
(886,656,l),
(769,656,l),
(708,486,l),
(430,486,l),
(367,656,l),
(244,656,l),
(-8,0,l)
);
},
{
closed = 1;
nodes = (
(303,547,l),
(308,547,l),
(414,249,l),
(197,249,l)
);
},
{
closed = 1;
nodes = (
(682,408,l),
(574,110,l),
(570,110,l),
(458,408,l)
);
}
);
vertWidth = 0;
width = 878;
}
);
metricLeft = A;
metricRight = V;
unicode = 42810;
},
{
glyphname = AY;
kernLeft = A;
kernRight = Yacute;
lastChange = "2026-02-24 20:52:23 +0000";
layers = (
{
layerId = "AE3FEF6D-3AA7-4252-B349-D2606A6A3B4C";
shapes = (
{
closed = 1;
nodes = (
(471,-234,l),
(807,650,l),
(776,650,l),
(540,20,l),
(538,20,l),
(299,650,l),
(256,650,l),
(9,0,l),
(41,0,l),
(116,201,l),
(440,201,l),
(523,-23,l),
(434,-234,l)
);
},
{
closed = 1;
nodes = (
(275,631,l),
(280,631,l),
(429,228,l),
(124,228,l)
);
}
);
vertWidth = 0;
width = 817;
},
{
layerId = "3FD7D777-D61F-402B-A269-3A472D550581";
shapes = (
{
closed = 1;
nodes = (
(618,-216,l),
(962,662,l),
(759,662,l),
(605,199,l),
(600,199,l),
(432,662,l),
(230,662,l),
(-28,0,l),
(173,0,l),
(220,140,l),
(442,140,l),
(487,0,l),
(397,-216,l)
);
},
{
closed = 1;
nodes = (
(329,462,l),
(334,462,l),
(396,269,l),
(267,269,l)
);
}
);
vertWidth = 0;
width = 934;
},
{
layerId = m003;
shapes = (
{
closed = 1;
nodes = (
(546,-225,l),
(886,656,l),
(769,656,l),
(574,110,l),
(570,110,l),
(367,656,l),
(244,656,l),
(-8,0,l),
(108,0,l),
(169,171,l),
(442,171,l),
(506,-11,l),
(417,-225,l)
);
},
{
closed = 1;
nodes = (
(303,547,l),
(308,547,l),
(414,249,l),
(197,249,l)
);
}
);
vertWidth = 0;
width = 878;
}
);
metricLeft = A;
metricRight = V;
unicode = 42812;
},
{
glyphname = Ao;
kernLeft = A;
lastChange = "2026-02-24 20:52:23 +0000";
layers = (
{
background = {
shapes = (
{
ref = A;
}
);
};
layerId = "AE3FEF6D-3AA7-4252-B349-D2606A6A3B4C";
shapes = (
{
closed = 1;
nodes = (
(40,0,l),
(116,201,l),
(469,201,l),
(299,650,l),
(256,650,l),
(9,0,l)
);
},
{
closed = 1;
nodes = (
(275,631,l),
(280,631,l),
(429,228,l),
(124,228,l)
);
},
{
pos = (347,0);
ref = O;
}
);
vertWidth = 0;
width = 1063;
},
{
background = {
shapes = (
{
ref = A;
}
);
};
layerId = "3FD7D777-D61F-402B-A269-3A472D550581";
shapes = (
{
closed = 1;
nodes = (
(173,0,l),
(220,140,l),
(634,140,l),
(432,662,l),
(230,662,l),
(-28,0,l)
);
},
{
closed = 1;
nodes = (
(329,462,l),
(334,462,l),
(396,269,l),
(266,269,l)
);
},
{
pos = (383,0);
ref = O;
}
);
vertWidth = 0;
width = 1068;
},
{
background = {
shapes = (
{
pos = (1,0);
ref = A;
}
);
};
layerId = m003;
shapes = (
{
closed = 1;
nodes = (
(108,0,l),
(169,171,l),
(553,171,l),
(367,656,l),
(244,656,l),
(-8,0,l)
);
},
{
closed = 1;
nodes = (
(303,547,l),
(308,547,l),
(414,249,l),
(196,249,l)
);
},
{
pos = (366,0);
ref = O;
}
);
vertWidth = 0;
width = 1083;
}
);
metricLeft = A;
metricRight = O;
unicode = 42804;
},
{
glyphname = Au;
kernLeft = A;
lastChange = "2026-02-24 20:52:23 +0000";
layers = (
{
layerId = "AE3FEF6D-3AA7-4252-B349-D2606A6A3B4C";
shapes = (
{
closed = 1;
nodes = (
(682,0,o),
(776,84,o),
(776,229,cs),
(776,650,l),
(746,650,l),
(746,229,ls),
(746,98,o),
(663,24,o),
(541,24,cs),
(520,24,l),
(541,0,l)
);
},
{
ref = A;
}
);
vertWidth = 0;
width = 877;
},
{
layerId = "3FD7D777-D61F-402B-A269-3A472D550581";
shapes = (
{
closed = 1;
nodes = (
(883,0,o),
(986,105,o),
(986,277,cs),
(986,662,l),
(797,662,l),
(797,277,ls),
(797,209,o),
(775,153,o),
(679,153,cs),
(607,153,l),
(679,0,l)
);
},
{
ref = A;
}
);
vertWidth = 0;
width = 1027;
},
{
layerId = m003;
shapes = (
{
closed = 1;
nodes = (
(783,0,o),
(881,95,o),
(881,253,cs),
(881,656,l),
(772,656,l),
(772,253,ls),
(772,154,o),
(719,89,o),
(610,89,cs),
(564,89,l),
(610,0,l)
);
},
{
ref = A;
}
);
vertWidth = 0;
width = 963;
}
);
metricLeft = A;
metricRight = J;
unicode = 42806;
},
{
glyphname = Av;
kernLeft = A;
kernRight = Wcircumflex;
lastChange = "2026-02-24 20:52:23 +0000";
layers = (
{
background = {
shapes = (
{
pos = (-2,0);
ref = A;
}
);
};
layerId = "AE3FEF6D-3AA7-4252-B349-D2606A6A3B4C";
shapes = (
{
closed = 1;
nodes = (
(40,0,l),
(116,201,l),
(439,201,l),
(515,0,l),
(560,0,l),
(807,650,l),
(776,650,l),
(540,20,l),
(538,20,l),
(299,650,l),
(256,650,l),
(9,0,l)
);
},
{
closed = 1;
nodes = (
(275,631,l),
(280,631,l),
(429,228,l),
(124,228,l)
);
}
);
vertWidth = 0;
width = 817;
},
{
background = {
shapes = (
{
pos = (1,0);
ref = A;
},
{
pos = (272,0);
ref = V;
}
);
};
layerId = "3FD7D777-D61F-402B-A269-3A472D550581";
shapes = (
{
closed = 1;
nodes = (
(173,0,l),
(220,140,l),
(442,140,l),
(487,0,l),
(702,0,l),
(962,662,l),
(760,662,l),
(605,199,l),
(600,199,l),
(432,662,l),
(230,662,l),
(-28,0,l)
);
},
{
closed = 1;
nodes = (
(329,462,l),
(334,462,l),
(396,269,l),
(267,269,l)
);
}
);
vertWidth = 0;
width = 934;
},
{
background = {
shapes = (
{
pos = (-1,0);
ref = A;
}
);
};
layerId = m003;
shapes = (
{
closed = 1;
nodes = (
(108,0,l),
(169,171,l),
(442,171,l),
(502,0,l),
(632,0,l),
(886,656,l),
(769,656,l),
(574,110,l),
(570,110,l),
(367,656,l),
(244,656,l),
(-8,0,l)
);
},
{
closed = 1;
nodes = (
(303,547,l),
(308,547,l),
(414,249,l),
(197,249,l)
);
}
);
vertWidth = 0;
width = 878;
}
);
metricLeft = A;
metricRight = V;
unicode = 42808;
},
{
glyphname = AE;
kernLeft = A;
lastChange = "2026-02-24 20:52:23 +0000";
layers = (
{
anchors = (
{
name = bottom;
pos = (332,0);
},
{
name = top;
pos = (433,650);
}
);
layerId = "AE3FEF6D-3AA7-4252-B349-D2606A6A3B4C";
shapes = (
{
closed = 1;
nodes = (
(41,0,l),
(119,201,l),
(318,201,l),
(318,0,l),
(630,0,l),
(630,25,l),
(347,25,l),
(347,311,l),
(601,311,l),
(601,338,l),
(347,338,l),
(347,624,l),
(630,624,l),
(630,650,l),
(264,650,l),
(9,0,l)
);
},
{
closed = 1;
nodes = (
(283,624,l),
(318,624,l),
(318,228,l),
(128,228,l)
);
}
);
vertWidth = 0;
width = 669;
},
{
anchors = (
{
name = bottom;
pos = (480,0);
},
{
name = top;
pos = (543,662);
}
);
layerId = "3FD7D777-D61F-402B-A269-3A472D550581";
shapes = (
{
closed = 1;
nodes = (
(172,0,l),
(242,177,l),
(389,177,l),
(389,0,l),
(830,0,l),
(830,145,l),
(578,145,l),
(578,266,l),
(804,266,l),
(804,397,l),
(578,397,l),
(578,518,l),
(830,518,l),
(830,662,l),
(265,662,l),
(-28,0,l)
);
},
{
closed = 1;
nodes = (
(374,518,l),
(389,518,l),
(389,308,l),
(291,308,l)
);
}
);
vertWidth = 0;
width = 848;
},
{
anchors = (
{
name = bottom;
pos = (407,0);
},
{
name = top;
pos = (489,656);
}
);
layerId = m003;
shapes = (
{
closed = 1;
nodes = (
(108,0,l),
(182,189,l),
(355,189,l),
(355,0,l),
(731,0,l),
(731,85,l),
(464,85,l),
(464,289,l),
(704,289,l),
(704,368,l),
(464,368,l),
(464,571,l),
(731,571,l),
(731,656,l),
(266,656,l),
(-8,0,l)
);
},
{
closed = 1;
nodes = (
(330,571,l),
(355,571,l),
(355,268,l),
(211,268,l)
);
}
);
vertWidth = 0;
width = 765;
}
);
metricLeft = A;
metricRight = E;
unicode = 198;
},
{
color = 3;
glyphname = B;
lastChange = "2026-02-24 20:52:23 +0000";
layers = (
{
anchors = (
{
name = bottom;
pos = (294,0);
},
{
name = top;
pos = (294,650);
}
);
layerId = "AE3FEF6D-3AA7-4252-B349-D2606A6A3B4C";
shapes = (
{
closed = 1;
nodes = (
(361,0,ls),
(468,0,o),
(544,64,o),
(544,169,cs),
(544,252,o),
(494,310,o),
(421,330,c),
(421,335,l),
(477,360,o),
(513,412,o),
(513,483,cs),
(513,588,o),
(437,650,o),
(330,650,cs),
(116,650,l),
(116,0,l)
);
},
{
closed = 1;
nodes = (
(146,314,l),
(361,314,ls),
(456,314,o),
(514,256,o),
(514,169,cs),
(514,82,o),
(456,25,o),
(361,25,cs),
(146,25,l)
);
},
{
closed = 1;
nodes = (
(146,624,l),
(330,624,ls),
(427,624,o),
(484,570,o),
(484,483,cs),
(484,396,o),
(427,340,o),
(330,340,cs),
(146,340,l)
);
}
);
vertWidth = 0;
width = 590;
},
{
anchors = (
{
name = bottom;
pos = (321,0);
},
{
name = top;
pos = (321,662);
}
);
layerId = "3FD7D777-D61F-402B-A269-3A472D550581";
shapes = (
{
closed = 1;
nodes = (
(399,0,ls),
(540,0,o),
(610,52,o),
(610,165,cs),
(610,248,o),
(570,307,o),
(485,329,c),
(485,334,l),
(565,359,o),
(590,408,o),
(590,473,cs),
(590,596,o),
(501,662,o),
(358,662,cs),
(55,662,l),
(55,0,l)
);
},
{
closed = 1;
nodes = (
(244,270,l),
(356,270,ls),
(398,270,o),
(422,247,o),
(422,206,cs),
(422,165,o),
(398,143,o),
(356,143,cs),
(244,143,l)
);
},
{
closed = 1;
nodes = (
(244,519,l),
(333,519,ls),
(374,519,o),
(399,498,o),
(399,456,cs),
(399,414,o),
(374,393,o),
(333,393,cs),
(244,393,l)
);
}
);
vertWidth = 0;
width = 645;
},
{
anchors = (
{
name = bottom;
pos = (322,0);
},
{
name = top;
pos = (322,656);
}
);
layerId = m003;
shapes = (
{
closed = 1;
nodes = (
(394,0,ls),
(518,0,o),
(591,58,o),
(591,167,cs),
(591,250,o),
(546,309,o),
(467,330,c),
(467,335,l),
(535,360,o),
(566,410,o),
(566,478,cs),
(566,592,o),
(483,656,o),
(358,656,cs),
(100,656,l),
(100,0,l)
);
},
{
closed = 1;
nodes = (
(209,292,l),
(373,292,ls),
(441,292,o),
(482,252,o),
(482,188,cs),
(482,124,o),
(441,84,o),
(373,84,cs),
(209,84,l)
);
},
{
closed = 1;
nodes = (
(209,572,l),
(346,572,ls),
(415,572,o),
(456,534,o),
(456,470,cs),
(456,405,o),
(415,367,o),
(346,367,cs),
(209,367,l)
);
}
);
vertWidth = 0;
width = 638;
}
);
metricLeft = I;
unicode = 66;
},
{
color = 8;
glyphname = Bhook;
lastChange = "2026-02-24 20:52:23 +0000";
layers = (
{
layerId = "AE3FEF6D-3AA7-4252-B349-D2606A6A3B4C";
shapes = (
{
closed = 1;
nodes = (
(461,0,ls),
(568,0,o),
(644,64,o),
(644,169,cs),
(644,252,o),
(594,310,o),
(521,330,c),
(521,335,l),
(577,360,o),
(613,412,o),
(613,483,cs),
(613,588,o),
(537,650,o),
(430,650,cs),
(216,650,ls),
(111,650,o),
(43,599,o),
(43,516,cs),
(43,485,l),
(74,485,l),
(74,516,ls),
(74,584,o),
(128,624,o),
(216,624,c),
(216,0,l)
);
},
{
closed = 1;
nodes = (
(246,314,l),
(461,314,ls),
(556,314,o),
(614,256,o),
(614,169,cs),
(614,82,o),
(556,25,o),
(461,25,cs),
(246,25,l)
);
},
{
closed = 1;
nodes = (
(246,624,l),
(430,624,ls),
(527,624,o),
(584,570,o),
(584,483,cs),
(584,396,o),
(527,340,o),
(430,340,cs),
(246,340,l)
);
}
);
width = 690;
},
{
layerId = "3FD7D777-D61F-402B-A269-3A472D550581";
shapes = (
{
closed = 1;
nodes = (
(614,0,ls),
(754,0,o),
(824,52,o),
(824,165,cs),
(824,248,o),
(785,307,o),
(699,329,c),
(699,334,l),
(779,359,o),
(804,408,o),
(804,473,cs),
(804,596,o),
(716,662,o),
(573,662,cs),
(270,662,ls),
(118,662,o),
(-4,593,o),
(12,486,cs),
(21,424,l),
(210,424,l),
(201,486,ls),
(196,515,o),
(235,531,o),
(270,531,c),
(270,0,l)
);
},
{
closed = 1;
nodes = (
(458,270,l),
(571,270,ls),
(612,270,o),
(637,247,o),
(637,206,cs),
(637,165,o),
(612,143,o),
(571,143,cs),
(458,143,l)
);
},
{
closed = 1;
nodes = (
(458,519,l),
(548,519,ls),
(589,519,o),
(614,498,o),
(614,456,cs),
(614,414,o),
(589,393,o),
(548,393,cs),
(458,393,l)
);
}
);
width = 859;
},
{
layerId = m003;
shapes = (
{
closed = 1;
nodes = (
(542,0,ls),
(665,0,o),
(738,58,o),
(738,167,cs),
(738,250,o),
(694,309,o),
(614,330,c),
(614,335,l),
(682,360,o),
(713,410,o),
(713,478,cs),
(713,592,o),
(631,656,o),
(506,656,cs),
(247,656,ls),
(119,656,o),
(24,596,o),
(32,501,cs),
(36,455,l),
(146,455,l),
(142,501,ls),
(139,550,o),
(186,578,o),
(247,578,c),
(247,0,l)
);
},
{
closed = 1;
nodes = (
(356,292,l),
(520,292,ls),
(588,292,o),
(630,252,o),
(630,188,cs),
(630,124,o),
(588,84,o),
(520,84,cs),
(356,84,l)
);
},
{
closed = 1;
nodes = (
(356,572,l),
(493,572,ls),
(562,572,o),
(603,534,o),
(603,470,cs),
(603,405,o),
(562,367,o),
(493,367,cs),
(356,367,l)
);
}
);
width = 785;
}
);
metricLeft = J;
metricRight = B;
unicode = 385;
},
{
color = 3;
glyphname = C;
lastChange = "2026-02-24 20:52:23 +0000";
layers = (
{
anchors = (
{
name = bottom;
pos = (352,-5);
},
{
name = top;
pos = (352,655);
}
);
layerId = "AE3FEF6D-3AA7-4252-B349-D2606A6A3B4C";
shapes = (
{
closed = 1;
nodes = (
(486,-5,o),
(558,85,o),
(586,160,c),
(559,169,l),
(534,99,o),
(470,21,o),
(351,21,cs),
(187,21,o),
(107,146,o),
(107,325,cs),
(107,503,o),
(187,629,o),
(351,629,cs),
(470,629,o),
(534,551,o),
(559,481,c),
(586,490,l),
(558,565,o),
(486,655,o),
(352,655,cs),
(176,655,o),
(77,529,o),
(77,325,cs),
(77,121,o),
(176,-5,o),
(352,-5,cs)
);
}
);
vertWidth = 0;
width = 641;
},
{
anchors = (
{
name = bottom;
pos = (332,-5);
},
{
name = top;
pos = (333,666);
}
);
layerId = "3FD7D777-D61F-402B-A269-3A472D550581";
shapes = (
{
closed = 1;
nodes = (
(518,-5,o),
(651,108,o),
(651,248,c),
(452,250,l),
(445,185,o),
(401,138,o),
(332,138,cs),
(246,138,o),
(200,208,o),
(200,331,cs),
(200,453,o),
(246,523,o),
(332,523,cs),
(401,523,o),
(445,476,o),
(452,411,c),
(651,414,l),
(651,553,o),
(518,666,o),
(333,666,cs),
(133,666,o),
(12,530,o),
(12,331,cs),
(12,132,o),
(133,-5,o),
(333,-5,cs)
);
}
);
vertWidth = 0;
width = 681;
},
{
anchors = (
{
name = bottom;
pos = (350,-5);
},
{
name = top;
pos = (351,661);
}
);
layerId = m003;
shapes = (
{
closed = 1;
nodes = (
(510,-5,o),
(613,97,o),
(627,204,c),
(514,210,l),
(498,142,o),
(444,80,o),
(350,80,cs),
(225,80,o),
(162,177,o),
(162,328,cs),
(162,478,o),
(225,576,o),
(350,576,cs),
(444,576,o),
(498,514,o),
(514,446,c),
(627,452,l),
(613,559,o),
(510,661,o),
(351,661,cs),
(163,661,o),
(53,530,o),
(53,328,cs),
(53,127,o),
(163,-5,o),
(351,-5,cs)
);
}
);
vertWidth = 0;
width = 675;
}
);
metricLeft = O;
unicode = 67;
},
{
color = 3;
glyphname = D;
lastChange = "2026-02-24 20:52:23 +0000";
layers = (
{
anchors = (
{
name = "D-bar";
pos = (132,325);
},
{
name = bottom;
pos = (295,0);
},
{
name = top;
pos = (295,650);
}
);
layerId = "AE3FEF6D-3AA7-4252-B349-D2606A6A3B4C";
shapes = (
{
closed = 1;
nodes = (
(295,0,ls),
(479,0,o),
(579,133,o),
(579,325,cs),
(579,517,o),
(479,650,o),
(295,650,cs),
(116,650,l),
(116,0,l)
);
},
{
closed = 1;
nodes = (
(147,624,l),
(295,624,ls),
(468,624,o),
(548,491,o),
(548,325,cs),
(548,159,o),
(468,25,o),
(295,25,cs),
(147,25,l)
);
}
);
vertWidth = 0;
width = 647;
},
{
anchors = (
{
name = "D-bar";
pos = (153,331);
},
{
name = bottom;
pos = (310,0);
},
{
name = top;
pos = (310,662);
}
);
layerId = "3FD7D777-D61F-402B-A269-3A472D550581";
shapes = (
{
closed = 1;
nodes = (
(310,0,ls),
(558,0,o),
(647,164,o),
(647,331,cs),
(647,500,o),
(558,662,o),
(310,662,cs),
(55,662,l),
(55,0,l)
);
},
{
closed = 1;
nodes = (
(242,518,l),
(310,518,ls),
(415,518,o),
(459,463,o),
(459,331,cs),
(459,199,o),
(415,143,o),
(310,143,cs),
(242,143,l)
);
}
);
vertWidth = 0;
width = 666;
},
{
anchors = (
{
name = "D-bar";
pos = (157,328);
},
{
name = bottom;
pos = (317,0);
},
{
name = top;
pos = (317,656);
}
);
layerId = m003;
shapes = (
{
closed = 1;
nodes = (
(317,0,ls),
(533,0,o),
(627,149,o),
(627,328,cs),
(627,509,o),
(533,656,o),
(317,656,cs),
(100,656,l),
(100,0,l)
);
},
{
closed = 1;
nodes = (
(209,571,l),
(317,571,ls),
(456,571,o),
(518,477,o),
(518,328,cs),
(518,179,o),
(456,84,o),
(317,84,cs),
(209,84,l)
);
}
);
vertWidth = 0;
width = 677;
}
);
metricLeft = I;
unicode = 68;
},
{
color = 8;
glyphname = Dhook;
lastChange = "2026-02-24 20:52:23 +0000";
layers = (
{
layerId = "AE3FEF6D-3AA7-4252-B349-D2606A6A3B4C";
shapes = (
{
closed = 1;
nodes = (
(395,0,ls),
(579,0,o),
(679,133,o),
(679,325,cs),
(679,517,o),
(579,650,o),
(395,650,cs),
(216,650,ls),
(111,650,o),
(43,599,o),
(43,516,cs),
(43,485,l),
(74,485,l),
(74,516,ls),
(74,584,o),
(128,624,o),
(216,624,c),
(216,0,l)
);
},
{
closed = 1;
nodes = (
(247,624,l),
(395,624,ls),
(568,624,o),
(649,491,o),
(649,325,cs),
(649,159,o),
(568,25,o),
(395,25,cs),
(247,25,l)
);
}
);
vertWidth = 0;
width = 747;
},
{
layerId = "3FD7D777-D61F-402B-A269-3A472D550581";
shapes = (
{
closed = 1;
nodes = (
(514,0,ls),
(763,0,o),
(852,164,o),
(852,331,cs),
(852,500,o),
(763,662,o),
(514,662,cs),
(259,662,ls),
(108,662,o),
(11,594,o),
(11,486,cs),
(11,424,l),
(200,424,l),
(200,486,ls),
(200,515,o),
(225,531,o),
(259,531,c),
(259,0,l)
);
},
{
closed = 1;
nodes = (
(446,518,l),
(514,518,ls),
(619,518,o),
(664,463,o),
(664,331,cs),
(664,199,o),
(619,143,o),
(514,143,cs),
(446,143,l)
);
}
);
vertWidth = 0;
width = 871;
},
{
layerId = m003;
shapes = (
{
closed = 1;
nodes = (
(460,0,ls),
(676,0,o),
(771,149,o),
(771,328,cs),
(771,509,o),
(676,656,o),
(460,656,cs),
(243,656,ls),
(115,656,o),
(32,597,o),
(32,501,cs),
(32,455,l),
(142,455,l),
(142,501,ls),
(142,550,o),
(182,578,o),
(243,578,c),
(243,0,l)
);
},
{
closed = 1;
nodes = (
(352,571,l),
(460,571,ls),
(599,571,o),
(662,477,o),
(662,328,cs),
(662,179,o),
(599,84,o),
(460,84,cs),
(352,84,l)
);
}
);
vertWidth = 0;
width = 821;
}
);
metricLeft = J;
metricRight = D;
unicode = 394;
},
{
color = 3;
glyphname = E;
lastChange = "2026-02-24 20:52:23 +0000";
layers = (
{
anchors = (
{
name = bottom;
pos = (308,0);
},
{
name = bottom.alt;
pos = (388,0);
},
{
name = top;
pos = (308,650);
}
);
layerId = "AE3FEF6D-3AA7-4252-B349-D2606A6A3B4C";
shapes = (
{
closed = 1;
nodes = (
(478,0,l),
(478,25,l),
(146,25,l),
(146,311,l),
(452,311,l),
(452,338,l),
(146,338,l),
(146,624,l),
(478,624,l),
(478,650,l),
(116,650,l),
(116,0,l)
);
}
);
vertWidth = 0;
width = 517;
},
{
anchors = (
{
name = bottom;
pos = (309,0);
},
{
name = bottom.alt;
pos = (387,0);
},
{
name = top;
pos = (309,662);
}
);
layerId = "3FD7D777-D61F-402B-A269-3A472D550581";
shapes = (
{
closed = 1;
nodes = (
(510,0,l),
(510,143,l),
(242,143,l),
(242,266,l),
(484,266,l),
(484,397,l),
(242,397,l),
(242,518,l),
(510,518,l),
(510,662,l),
(55,662,l),
(55,0,l)
);
}
);
vertWidth = 0;
width = 528;
},
{
anchors = (
{
name = bottom;
pos = (323,0);
},
{
name = bottom.alt;
pos = (402,0);
},
{
name = top;
pos = (323,656);
}
);
layerId = m003;
shapes = (
{
closed = 1;
nodes = (
(508,0,l),
(508,84,l),
(208,84,l),
(208,289,l),
(482,289,l),
(482,368,l),
(208,368,l),
(208,571,l),
(508,571,l),
(508,656,l),
(100,656,l),
(100,0,l)
);
}
);
vertWidth = 0;
width = 542;
}
);
metricLeft = I;
unicode = 69;
},
{
glyphname = Esh;
lastChange = "2026-02-24 20:52:23 +0000";
layers = (
{
anchors = (
{
name = bottom;
pos = (308,0);
},
{
name = bottom.alt;
pos = (388,0);
},
{
name = top;
pos = (308,650);
}
);
layerId = "AE3FEF6D-3AA7-4252-B349-D2606A6A3B4C";
shapes = (
{
closed = 1;
nodes = (
(478,0,l),
(478,25,l),
(146,25,l),
(301,321,l),
(301,328,l),
(146,624,l),
(478,624,l),
(478,650,l),
(116,650,l),
(116,624,l),
(273,325,l),
(116,25,l),
(116,0,l)
);
}
);
width = 517;
},
{
anchors = (
{
name = bottom;
pos = (309,0);
},
{
name = bottom.alt;
pos = (387,0);
},
{
name = top;
pos = (309,662);
}
);
layerId = "3FD7D777-D61F-402B-A269-3A472D550581";
shapes = (
{
closed = 1;
nodes = (
(510,0,l),
(510,143,l),
(242,143,l),
(389,327,l),
(389,336,l),
(242,518,l),
(510,518,l),
(510,662,l),
(55,662,l),
(55,518,l),
(206,331,l),
(55,143,l),
(55,0,l)
);
}
);
width = 528;
},
{
anchors = (
{
name = bottom;
pos = (323,0);
},
{
name = bottom.alt;
pos = (402,0);
},
{
name = top;
pos = (323,656);
}
);
layerId = m003;
shapes = (
{
closed = 1;
nodes = (
(508,0,l),
(508,84,l),
(208,84,l),
(359,324,l),
(359,332,l),
(208,571,l),
(508,571,l),
(508,656,l),
(100,656,l),
(100,571,l),
(254,328,l),
(100,84,l),
(100,0,l)
);
}
);
width = 542;
}
);
metricLeft = E;
metricRight = E;
unicode = 425;
},
{
color = 3;
glyphname = Schwa;
lastChange = "2026-02-24 20:52:23 +0000";
layers = (
{
layerId = "AE3FEF6D-3AA7-4252-B349-D2606A6A3B4C";
shapes = (
{
closed = 1;
nodes = (
(481,-5,o),
(588,112,o),
(588,324,cs),
(588,534,o),
(481,655,o),
(299,655,cs),
(170,655,o),
(79,594,o),
(38,486,c),
(64,477,l),
(97,564,o),
(182,629,o),
(300,629,cs),
(465,629,o),
(559,513,o),
(559,320,c),
(24,320,l),
(19,144,o),
(109,-5,o),
(306,-5,cs)
);
},
{
closed = 1;
nodes = (
(143,21,o),
(51,145,o),
(52,292,c),
(558,292,l),
(558,137,o),
(461,21,o),
(306,21,cs)
);
}
);
vertWidth = 0;
width = 665;
},
{
layerId = "3FD7D777-D61F-402B-A269-3A472D550581";
shapes = (
{
closed = 1;
nodes = (
(566,-6,o),
(697,127,o),
(697,331,cs),
(697,534,o),
(566,666,o),
(366,666,cs),
(221,666,o),
(107,596,o),
(61,480,c),
(233,424,l),
(254,485,o),
(299,523,o),
(365,523,cs),
(446,523,o),
(495,470,o),
(504,378,c),
(43,378,l),
(7,165,o),
(141,-6,o),
(366,-6,cs)
);
},
{
closed = 1;
nodes = (
(288,138,o),
(242,184,o),
(232,247,c),
(498,247,l),
(485,181,o),
(440,138,o),
(365,138,cs)
);
}
);
vertWidth = 0;
width = 709;
},
{
layerId = m003;
shapes = (
{
closed = 1;
nodes = (
(529,-5,o),
(648,120,o),
(648,328,cs),
(648,534,o),
(529,661,o),
(338,661,cs),
(201,661,o),
(98,595,o),
(55,483,c),
(154,451,l),
(181,525,o),
(246,576,o),
(338,576,cs),
(461,576,o),
(532,492,o),
(537,349,c),
(39,349,l),
(18,154,o),
(130,-5,o),
(341,-5,cs)
);
},
{
closed = 1;
nodes = (
(221,80,o),
(152,164,o),
(147,270,c),
(533,270,l),
(526,158,o),
(456,80,o),
(341,80,cs)
);
}
);
vertWidth = 0;
width = 701;
}
);
metricRight = O;
unicode = 399;
},
{
color = 3;
glyphname = Ezh;
lastChange = "2026-02-24 20:52:23 +0000";
layers = (
{
anchors = (
{
name = bottom;
pos = (281,-12);
},
{
name = top;
pos = (274,650);
}
);
layerId = "AE3FEF6D-3AA7-4252-B349-D2606A6A3B4C";
shapes = (
{
closed = 1;
nodes = (
(456,-12,o),
(555,67,o),
(555,191,cs),
(555,325,o),
(439,376,o),
(287,377,c),
(287,381,l),
(519,610,l),
(519,650,l),
(34,650,l),
(34,625,l),
(494,625,l),
(494,621,l),
(253,382,l),
(253,351,l),
(281,351,ls),
(425,351,o),
(526,307,o),
(526,190,cs),
(526,86,o),
(447,14,o),
(280,14,cs),
(181,14,o),
(107,39,o),
(67,93,c),
(47,74,l),
(83,23,o),
(165,-12,o),
(281,-12,cs)
);
}
);
vertWidth = 0;
width = 589;
},
{
anchors = (
{
name = bottom;
pos = (304,-5);
},
{
name = top;
pos = (304,662);
}
);
layerId = "3FD7D777-D61F-402B-A269-3A472D550581";
shapes = (
{
closed = 1;
nodes = (
(480,-5,o),
(591,79,o),
(591,208,cs),
(591,318,o),
(512,391,o),
(394,410,c),
(394,417,l),
(559,544,l),
(559,662,l),
(36,662,l),
(36,528,l),
(352,528,l),
(352,520,l),
(166,375,l),
(166,302,l),
(280,302,ls),
(365,302,o),
(410,275,o),
(410,218,cs),
(410,164,o),
(370,130,o),
(299,130,cs),
(235,130,o),
(198,163,o),
(197,220,c),
(16,220,l),
(15,84,o),
(126,-5,o),
(302,-5,cs)
);
}
);
vertWidth = 0;
width = 607;
},
{
anchors = (
{
name = bottom;
pos = (298,-8);
},
{
name = top;
pos = (294,656);
}
);
layerId = m003;
shapes = (
{
closed = 1;
nodes = (
(473,-8,o),
(578,73,o),
(578,200,cs),
(578,322,o),
(481,384,o),
(346,394,c),
(346,399,l),
(544,577,l),
(544,656,l),
(40,656,l),
(40,577,l),
(428,577,l),
(428,571,l),
(215,379,l),
(215,327,l),
(286,327,ls),
(400,327,o),
(473,291,o),
(473,204,cs),
(473,125,o),
(414,72,o),
(295,72,cs),
(213,72,o),
(158,100,o),
(137,157,c),
(37,147,l),
(54,54,o),
(151,-8,o),
(297,-8,cs)
);
}
);
vertWidth = 0;
width = 607;
}
);
unicode = 439;
},
{
color = 3;
glyphname = F;
kernRight = F;
lastChange = "2026-02-24 20:52:23 +0000";
layers = (
{
anchors = (
{
name = bottom;
pos = (308,0);
},
{
name = top;
pos = (308,650);
}
);
layerId = "AE3FEF6D-3AA7-4252-B349-D2606A6A3B4C";
shapes = (
{
closed = 1;
nodes = (
(146,0,l),
(146,288,l),
(459,288,l),
(459,314,l),
(146,314,l),
(146,624,l),
(478,624,l),
(478,650,l),
(116,650,l),
(116,0,l)
);
}
);
vertWidth = 0;
width = 512;
},
{
anchors = (
{
name = bottom;
pos = (309,0);
},
{
name = top;
pos = (309,662);
}
);
layerId = "3FD7D777-D61F-402B-A269-3A472D550581";
shapes = (
{
closed = 1;
nodes = (
(242,0,l),
(242,247,l),
(440,247,l),
(440,378,l),
(242,378,l),
(242,518,l),
(510,518,l),
(510,662,l),
(55,662,l),
(55,0,l)
);
}
);
vertWidth = 0;
width = 520;
},
{
anchors = (
{
name = bottom;
pos = (323,0);
},
{
name = top;
pos = (323,656);
}
);
layerId = m003;
shapes = (
{
closed = 1;
nodes = (
(208,0,l),
(208,268,l),
(464,268,l),
(464,346,l),
(208,346,l),
(208,571,l),
(508,571,l),
(508,656,l),
(100,656,l),
(100,0,l)
);
}
);
vertWidth = 0;
width = 533;
}
);
metricLeft = I;
unicode = 70;
},
{
color = 3;
glyphname = G;
lastChange = "2026-02-24 20:52:23 +0000";
layers = (
{
anchors = (
{
name = "T-bar";
pos = (516,173);
},
{
name = bottom;
pos = (365,-5);
},
{
name = top;
pos = (353,655);
}
);
layerId = "AE3FEF6D-3AA7-4252-B349-D2606A6A3B4C";
shapes = (
{
closed = 1;
nodes = (
(586,490,l),
(549,592,o),
(459,655,o),
(353,655,cs),
(181,655,o),
(77,530,o),
(77,322,cs),
(77,110,o),
(179,-5,o),
(365,-5,cs),
(456,-5,o),
(560,28,o),
(603,81,c),
(603,314,l),
(354,314,l),
(354,288,l),
(574,288,l),
(574,88,l),
(536,52,o),
(438,21,o),
(365,21,cs),
(197,21,o),
(107,125,o),
(107,322,cs),
(107,515,o),
(198,629,o),
(352,629,cs),
(447,629,o),
(528,572,o),
(560,481,c)
);
}
);
vertWidth = 0;
width = 650;
},
{
anchors = (
{
name = "T-bar";
pos = (512,193);
},
{
name = bottom;
pos = (343,-5);
},
{
name = top;
pos = (343,667);
}
);
layerId = "3FD7D777-D61F-402B-A269-3A472D550581";
shapes = (
{
closed = 1;
nodes = (
(627,488,l),
(591,593,o),
(501,667,o),
(343,667,cs),
(107,667,o),
(12,507,o),
(12,331,cs),
(12,154,o),
(108,-5,o),
(343,-5,cs),
(486,-5,o),
(574,27,o),
(648,103,c),
(648,377,l),
(290,377,l),
(290,246,l),
(459,246,l),
(459,162,l),
(438,150,o),
(402,140,o),
(372,140,cs),
(266,140,o),
(203,194,o),
(203,331,cs),
(203,468,o),
(267,523,o),
(343,523,cs),
(398,523,o),
(453,494,o),
(481,428,c)
);
}
);
vertWidth = 0;
width = 686;
},
{
anchors = (
{
name = "T-bar";
pos = (522,183);
},
{
name = bottom;
pos = (362,-5);
},
{
name = top;
pos = (356,661);
}
);
layerId = m003;
shapes = (
{
closed = 1;
nodes = (
(615,489,l),
(578,593,o),
(488,661,o),
(356,661,cs),
(152,661,o),
(53,519,o),
(53,327,cs),
(53,132,o),
(152,-5,o),
(362,-5,cs),
(479,-5,o),
(576,28,o),
(634,92,c),
(634,346,l),
(330,346,l),
(330,267,l),
(525,267,l),
(525,125,l),
(495,101,o),
(428,81,o),
(377,81,cs),
(240,81,o),
(163,160,o),
(163,327,cs),
(163,492,o),
(241,576,o),
(356,576,cs),
(431,576,o),
(499,533,o),
(529,455,c)
);
}
);
vertWidth = 0;
width = 682;
}
);
metricLeft = O;
unicode = 71;
},
{
glyphname = H;
lastChange = "2026-02-24 20:52:23 +0000";
layers = (
{
anchors = (
{
name = "H-bar";
pos = (341,470);
},
{
name = bottom;
pos = (341,0);
},
{
name = top;
pos = (341,650);
}
);
layerId = "AE3FEF6D-3AA7-4252-B349-D2606A6A3B4C";
shapes = (
{
closed = 1;
nodes = (
(146,0,l),
(146,311,l),
(538,311,l),
(538,0,l),
(567,0,l),
(567,650,l),
(538,650,l),
(538,339,l),
(146,339,l),
(146,650,l),
(116,650,l),
(116,0,l)
);
}
);
vertWidth = 0;
width = 683;
},
{
anchors = (
{
name = "H-bar";
pos = (355,486);
},
{
name = bottom;
pos = (355,0);
},
{
name = top;
pos = (355,662);
}
);
layerId = "3FD7D777-D61F-402B-A269-3A472D550581";
shapes = (
{
closed = 1;
nodes = (
(243,0,l),
(243,266,l),
(468,266,l),
(468,0,l),
(656,0,l),
(656,662,l),
(468,662,l),
(468,397,l),
(243,397,l),
(243,662,l),
(55,662,l),
(55,0,l)
);
}
);
vertWidth = 0;
width = 710;
},
{
anchors = (
{
name = "H-bar";
pos = (362,478);
},
{
name = bottom;
pos = (362,0);
},
{
name = top;
pos = (362,656);
}
);
layerId = m003;
shapes = (
{
closed = 1;
nodes = (
(209,0,l),
(209,289,l),
(517,289,l),
(517,0,l),
(626,0,l),
(626,656,l),
(517,656,l),
(517,368,l),
(209,368,l),
(209,656,l),
(100,656,l),
(100,0,l)
);
}
);
vertWidth = 0;
width = 725;
}
);
metricLeft = I;
metricRight = I;
unicode = 72;
},
{
color = 3;
glyphname = I;
lastChange = "2026-02-24 20:52:23 +0000";
layers = (
{
anchors = (
{
name = bottom;
pos = (131,0);
},
{
name = bottom.alt;
pos = (131,0);
},
{
name = top;
pos = (131,650);
}
);
layerId = "AE3FEF6D-3AA7-4252-B349-D2606A6A3B4C";
shapes = (
{
closed = 1;
nodes = (
(147,0,l),
(147,650,l),
(116,650,l),
(116,0,l)
);
}
);
vertWidth = 0;
width = 263;
},
{
anchors = (
{
name = bottom;
pos = (150,0);
},
{
name = bottom.alt;
pos = (150,0);
},
{
name = top;
pos = (150,662);
}
);
layerId = "3FD7D777-D61F-402B-A269-3A472D550581";
shapes = (
{
closed = 1;
nodes = (
(245,0,l),
(245,662,l),
(55,662,l),
(55,0,l)
);
}
);
vertWidth = 0;
width = 299;
},
{
anchors = (
{
name = bottom;
pos = (155,0);
},
{
name = bottom.alt;
pos = (155,0);
},
{
name = top;
pos = (155,656);
}
);
layerId = m003;
shapes = (
{
closed = 1;
nodes = (
(210,0,l),
(210,656,l),
(100,656,l),
(100,0,l)
);
}
);
vertWidth = 0;
width = 309;
}
);
unicode = 73;
},
{
color = 3;
glyphname = Icapitalsmall;
lastChange = "2026-02-24 20:52:23 +0000";
layers = (
{
layerId = "AE3FEF6D-3AA7-4252-B349-D2606A6A3B4C";
shapes = (
{
closed = 1;
nodes = (
(191,624,l),
(288,624,l),
(288,650,l),
(64,650,l),
(64,624,l),
(161,624,l),
(161,26,l),
(64,26,l),
(64,0,l),
(288,0,l),
(288,26,l),
(191,26,l)
);
}
);
width = 352;
},
{
layerId = "3FD7D777-D61F-402B-A269-3A472D550581";
shapes = (
{
closed = 1;
nodes = (
(296,518,l),
(382,518,l),
(382,662,l),
(20,662,l),
(20,518,l),
(106,518,l),
(106,144,l),
(20,144,l),
(20,0,l),
(382,0,l),
(382,144,l),
(296,144,l)
);
}
);
width = 402;
},
{
layerId = m003;
shapes = (
{
closed = 1;
nodes = (
(250,571,l),
(341,571,l),
(341,656,l),
(48,656,l),
(48,571,l),
(140,571,l),
(140,85,l),
(48,85,l),
(48,0,l),
(341,0,l),
(341,85,l),
(250,85,l)
);
}
);
width = 389;
}
);
unicode = 42926;
},
{
color = 3;
glyphname = J;
kernLeft = J;
lastChange = "2026-02-24 20:52:23 +0000";
layers = (
{
anchors = (
{
name = bottom;
pos = (216,-5);
},
{
name = top;
pos = (374,650);
}
);
layerId = "AE3FEF6D-3AA7-4252-B349-D2606A6A3B4C";
shapes = (
{
closed = 1;
nodes = (
(323,-5,o),
(389,46,o),
(389,129,cs),
(389,650,l),
(360,650,l),
(360,129,ls),
(360,61,o),
(305,21,o),
(216,21,cs),
(128,21,o),
(74,61,o),
(74,129,cs),
(74,160,l),
(43,160,l),
(43,129,ls),
(43,46,o),
(111,-5,o),
(216,-5,cs)
);
}
);
vertWidth = 0;
width = 490;
},
{
anchors = (
{
name = bottom;
pos = (260,-5);
},
{
name = top;
pos = (413,662);
}
);
layerId = "3FD7D777-D61F-402B-A269-3A472D550581";
shapes = (
{
closed = 1;
nodes = (
(413,-5,o),
(507,62,o),
(507,171,cs),
(507,662,l),
(318,662,l),
(318,171,ls),
(318,142,o),
(296,126,o),
(259,126,cs),
(222,126,o),
(200,143,o),
(200,171,cs),
(200,207,l),
(11,207,l),
(11,171,ls),
(11,63,o),
(108,-5,o),
(260,-5,cs)
);
}
);
vertWidth = 0;
width = 548;
},
{
anchors = (
{
name = bottom;
pos = (243,-5);
},
{
name = top;
pos = (399,656);
}
);
layerId = m003;
shapes = (
{
closed = 1;
nodes = (
(373,-5,o),
(453,54,o),
(453,150,cs),
(453,656,l),
(344,656,l),
(344,150,ls),
(344,102,o),
(306,74,o),
(243,74,cs),
(180,74,o),
(142,102,o),
(142,150,cs),
(142,184,l),
(32,184,l),
(32,150,ls),
(32,55,o),
(115,-5,o),
(243,-5,cs)
);
}
);
vertWidth = 0;
width = 535;
}
);
unicode = 74;
},
{
glyphname = K;
kernRight = K;
lastChange = "2026-02-24 20:52:23 +0000";
layers = (
{
anchors = (
{
name = bottom;
pos = (313,0);
},
{
name = top;
pos = (313,650);
}
);
layerId = "AE3FEF6D-3AA7-4252-B349-D2606A6A3B4C";
shapes = (
{
closed = 1;
nodes = (
(147,0,l),
(147,307,l),
(234,307,l),
(505,0,l),
(544,0,l),
(259,325,l),
(544,650,l),
(505,650,l),
(232,337,l),
(147,337,l),
(147,650,l),
(116,650,l),
(116,0,l)
);
}
);
vertWidth = 0;
width = 560;
},
{
anchors = (
{
name = bottom;
pos = (352,0);
},
{
name = top;
pos = (352,662);
}
);
layerId = "3FD7D777-D61F-402B-A269-3A472D550581";
shapes = (
{
closed = 1;
nodes = (
(242,0,l),
(242,281,l),
(256,281,l),
(451,0,l),
(669,0,l),
(404,330,l),
(669,662,l),
(451,662,l),
(256,399,l),
(242,399,l),
(242,662,l),
(55,662,l),
(55,0,l)
);
}
);
vertWidth = 0;
width = 652;
},
{
anchors = (
{
name = bottom;
pos = (347,0);
},
{
name = top;
pos = (347,656);
}
);
layerId = m003;
shapes = (
{
closed = 1;
nodes = (
(209,0,l),
(209,294,l),
(259,294,l),
(492,0,l),
(621,0,l),
(346,328,l),
(621,656,l),
(492,656,l),
(258,368,l),
(209,368,l),
(209,656,l),
(100,656,l),
(100,0,l)
);
}
);
vertWidth = 0;
width = 621;
}
);
metricLeft = I;
metricRight = X;
unicode = 75;
},
{
color = 8;
glyphname = Khook;
kernRight = K;
lastChange = "2026-02-24 20:52:23 +0000";
layers = (
{
layerId = "AE3FEF6D-3AA7-4252-B349-D2606A6A3B4C";
shapes = (
{
closed = 1;
nodes = (
(411,619,o),
(453,634,o),
(490,634,cs),
(518,634,o),
(545,625,o),
(556,615,c),
(571,635,l),
(555,649,o),
(526,660,o),
(491,660,cs),
(450,660,o),
(394,643,o),
(356,571,cs),
(232,337,l),
(147,337,l),
(147,650,l),
(116,650,l),
(116,0,l),
(147,0,l),
(147,307,l),
(234,307,l),
(505,0,l),
(544,0,l),
(259,325,l),
(377,553,ls)
);
}
);
vertWidth = 0;
width = 587;
},
{
layerId = "3FD7D777-D61F-402B-A269-3A472D550581";
shapes = (
{
closed = 1;
nodes = (
(528,534,o),
(553,546,o),
(587,546,cs),
(609,546,o),
(638,541,o),
(657,536,c),
(683,647,l),
(641,662,o),
(592,671,o),
(544,671,cs),
(459,671,o),
(403,646,o),
(362,578,cs),
(256,399,l),
(242,399,l),
(242,662,l),
(55,662,l),
(55,0,l),
(242,0,l),
(242,281,l),
(256,281,l),
(451,0,l),
(669,0,l),
(404,330,l),
(503,493,ls)
);
}
);
vertWidth = 0;
width = 666;
},
{
layerId = m003;
shapes = (
{
closed = 1;
nodes = (
(484,577,o),
(517,590,o),
(553,590,cs),
(578,590,o),
(606,583,o),
(621,576,c),
(641,641,l),
(611,656,o),
(573,666,o),
(532,666,cs),
(469,666,o),
(412,644,o),
(373,575,cs),
(258,368,l),
(209,368,l),
(209,656,l),
(100,656,l),
(100,0,l),
(209,0,l),
(209,294,l),
(259,294,l),
(492,0,l),
(621,0,l),
(346,328,l),
(454,523,ls)
);
}
);
vertWidth = 0;
width = 641;
}
);
metricLeft = I;
metricRight = X;
unicode = 408;
},
{
color = 3;
glyphname = L;
kernRight = L;
lastChange = "2026-02-24 20:52:23 +0000";
layers = (
{
anchors = (
{
name = "L-slash";
pos = (131,340);
},
{
name = bottom;
pos = (322,0);
},
{
name = bottom.alt;
pos = (449,0);
},
{
name = middle_dot_I;
pos = (322,363);
},
{
name = top;
pos = (322,650);
},
{
name = top.alt;
pos = (282,650);
}
);
layerId = "AE3FEF6D-3AA7-4252-B349-D2606A6A3B4C";
shapes = (
{
closed = 1;
nodes = (
(467,0,l),
(467,25,l),
(147,25,l),
(147,650,l),
(116,650,l),
(116,0,l)
);
}
);
vertWidth = 0;
width = 497;
},
{
anchors = (
{
name = "L-slash";
pos = (150,419);
},
{
name = bottom;
pos = (294,0);
},
{
name = bottom.alt;
pos = (489,0);
},
{
name = middle_dot_I;
pos = (393,394);
},
{
name = top;
pos = (356,662);
},
{
name = top.alt;
pos = (272,662);
}
);
layerId = "3FD7D777-D61F-402B-A269-3A472D550581";
shapes = (
{
closed = 1;
nodes = (
(535,0,l),
(535,143,l),
(242,143,l),
(242,662,l),
(55,662,l),
(55,0,l)
);
}
);
vertWidth = 0;
width = 538;
},
{
anchors = (
{
name = "L-slash";
pos = (155,380);
},
{
name = bottom;
pos = (322,0);
},
{
name = bottom.alt;
pos = (483,0);
},
{
name = middle_dot_I;
pos = (372,379);
},
{
name = top;
pos = (353,656);
},
{
name = top.alt;
pos = (291,656);
}
);
layerId = m003;
shapes = (
{
closed = 1;
nodes = (
(515,0,l),
(515,84,l),
(209,84,l),
(209,656,l),
(100,656,l),
(100,0,l)
);
}
);
vertWidth = 0;
width = 535;
}
);
metricLeft = I;
unicode = 76;
},
{
glyphname = M;
lastChange = "2026-02-24 20:52:23 +0000";
layers = (
{
anchors = (
{
name = bottom;
pos = (433,0);
},
{
name = top;
pos = (433,650);
}
);
layerId = "AE3FEF6D-3AA7-4252-B349-D2606A6A3B4C";
shapes = (
{
closed = 1;
nodes = (
(147,0,l),
(147,632,l),
(151,632,l),
(405,0,l),
(459,0,l),
(747,636,l),
(752,636,l),
(752,0,l),
(781,0,l),
(781,650,l),
(721,650,l),
(434,19,l),
(431,19,l),
(176,650,l),
(116,650,l),
(116,0,l)
);
}
);
vertWidth = 0;
width = 897;
},
{
anchors = (
{
name = bottom;
pos = (467,0);
},
{
name = top;
pos = (467,662);
}
);
layerId = "3FD7D777-D61F-402B-A269-3A472D550581";
shapes = (
{
closed = 1;
nodes = (
(243,0,l),
(243,383,l),
(247,383,l),
(382,0,l),
(554,0,l),
(681,383,l),
(685,383,l),
(685,0,l),
(874,0,l),
(874,662,l),
(641,662,l),
(472,171,l),
(464,171,l),
(287,662,l),
(55,662,l),
(55,0,l)
);
}
);
vertWidth = 0;
width = 928;
},
{
anchors = (
{
name = bottom;
pos = (464,0);
},
{
name = top;
pos = (464,656);
}
);
layerId = m003;
shapes = (
{
closed = 1;
nodes = (
(209,0,l),
(209,508,l),
(213,508,l),
(408,0,l),
(521,0,l),
(728,510,l),
(733,510,l),
(733,0,l),
(842,0,l),
(842,656,l),
(695,656,l),
(467,95,l),
(462,95,l),
(246,656,l),
(100,656,l),
(100,0,l)
);
}
);
vertWidth = 0;
width = 941;
}
);
metricLeft = I;
metricRight = I;
unicode = 77;
},
{
glyphname = N;
lastChange = "2026-02-24 20:52:23 +0000";
layers = (
{
anchors = (
{
name = bottom;
pos = (331,0);
},
{
name = top;
pos = (365,650);
}
);
layerId = "AE3FEF6D-3AA7-4252-B349-D2606A6A3B4C";
shapes = (
{
closed = 1;
nodes = (
(145,0,l),
(145,626,l),
(150,626,l),
(524,0,l),
(575,0,l),
(575,650,l),
(546,650,l),
(546,24,l),
(541,24,l),
(168,650,l),
(116,650,l),
(116,0,l)
);
}
);
vertWidth = 0;
width = 691;
},
{
anchors = (
{
name = bottom;
pos = (352,0);
},
{
name = top;
pos = (369,662);
}
);
layerId = "3FD7D777-D61F-402B-A269-3A472D550581";
shapes = (
{
closed = 1;
nodes = (
(243,0,l),
(243,365,l),
(247,365,l),
(488,0,l),
(662,0,l),
(662,662,l),
(473,662,l),
(473,296,l),
(469,296,l),
(228,662,l),
(55,662,l),
(55,0,l)
);
}
);
vertWidth = 0;
width = 716;
},
{
anchors = (
{
name = bottom;
pos = (356,0);
},
{
name = top;
pos = (381,656);
}
);
layerId = m003;
shapes = (
{
closed = 1;
nodes = (
(208,0,l),
(208,496,l),
(213,496,l),
(520,0,l),
(633,0,l),
(633,656,l),
(524,656,l),
(524,160,l),
(519,160,l),
(212,656,l),
(100,656,l),
(100,0,l)
);
}
);
vertWidth = 0;
width = 732;
}
);
metricLeft = I;
metricRight = I;
unicode = 78;
},
{
color = 8;
glyphname = Nhookleft;
lastChange = "2026-02-24 20:52:23 +0000";
layers = (
{
layerId = "AE3FEF6D-3AA7-4252-B349-D2606A6A3B4C";
shapes = (
{
closed = 1;
nodes = (
(110,626,l),
(115,626,l),
(489,0,l),
(540,0,l),
(540,650,l),
(511,650,l),
(511,24,l),
(506,24,l),
(133,650,l),
(81,650,l),
(81,-122,ls),
(81,-184,o),
(44,-211,o),
(-16,-211,cs),
(-46,-211,o),
(-70,-203,o),
(-81,-192,c),
(-96,-213,l),
(-80,-227,o),
(-51,-238,o),
(-16,-238,cs),
(56,-238,o),
(110,-203,o),
(110,-123,cs)
);
}
);
vertWidth = 0;
width = 656;
},
{
layerId = "3FD7D777-D61F-402B-A269-3A472D550581";
shapes = (
{
closed = 1;
nodes = (
(253,365,l),
(258,365,l),
(498,0,l),
(672,0,l),
(672,662,l),
(484,662,l),
(484,296,l),
(479,296,l),
(238,662,l),
(65,662,l),
(65,-46,ls),
(65,-70,o),
(46,-82,o),
(15,-82,cs),
(-1,-82,o),
(-20,-79,o),
(-39,-73,c),
(-65,-183,l),
(-23,-199,o),
(25,-207,o),
(66,-207,cs),
(166,-207,o),
(253,-168,o),
(253,-62,cs)
);
}
);
vertWidth = 0;
width = 726;
},
{
layerId = m003;
shapes = (
{
closed = 1;
nodes = (
(192,496,l),
(197,496,l),
(504,0,l),
(616,0,l),
(616,656,l),
(508,656,l),
(508,160,l),
(503,160,l),
(196,656,l),
(83,656,l),
(83,-84,ls),
(83,-127,o),
(55,-146,o),
(10,-146,cs),
(-13,-146,o),
(-35,-141,o),
(-50,-132,c),
(-70,-198,l),
(-41,-213,o),
(-3,-222,o),
(35,-222,cs),
(121,-222,o),
(192,-185,o),
(192,-92,cs)
);
}
);
vertWidth = 0;
width = 715;
}
);
metricLeft = esh;
metricRight = N;
unicode = 413;
},
{
color = 3;
glyphname = Eng;
lastChange = "2026-02-24 20:52:23 +0000";
layers = (
{
layerId = "AE3FEF6D-3AA7-4252-B349-D2606A6A3B4C";
shapes = (
{
closed = 1;
nodes = (
(145,0,l),
(145,626,l),
(150,626,l),
(546,0,l),
(546,-122,ls),
(546,-184,o),
(510,-211,o),
(450,-211,cs),
(429,-211,o),
(408,-208,o),
(396,-206,c),
(390,-230,l),
(409,-235,o),
(429,-238,o),
(450,-238,cs),
(521,-238,o),
(575,-204,o),
(575,-124,cs),
(575,650,l),
(546,650,l),
(546,60,l),
(540,60,l),
(168,650,l),
(116,650,l),
(116,0,l)
);
}
);
width = 691;
},
{
layerId = "3FD7D777-D61F-402B-A269-3A472D550581";
shapes = (
{
closed = 1;
nodes = (
(243,0,l),
(243,365,l),
(247,365,l),
(473,22,l),
(473,-30,ls),
(473,-56,o),
(454,-68,o),
(425,-68,cs),
(409,-68,o),
(387,-65,o),
(370,-61,c),
(346,-169,l),
(387,-182,o),
(435,-192,o),
(483,-192,cs),
(579,-192,o),
(662,-153,o),
(662,-51,cs),
(662,662,l),
(473,662,l),
(473,296,l),
(469,296,l),
(228,662,l),
(55,662,l),
(55,0,l)
);
}
);
vertWidth = 0;
width = 716;
},
{
layerId = m003;
shapes = (
{
closed = 1;
nodes = (
(208,0,l),
(208,496,l),
(213,496,l),
(524,11,l),
(524,-76,ls),
(524,-120,o),
(496,-139,o),
(452,-139,cs),
(433,-139,o),
(412,-136,o),
(397,-133,c),
(382,-199,l),
(412,-208,o),
(446,-215,o),
(481,-215,cs),
(564,-215,o),
(633,-178,o),
(633,-87,cs),
(633,656,l),
(524,656,l),
(524,178,l),
(519,178,l),
(212,656,l),
(100,656,l),
(100,0,l)
);
}
);
width = 732;
}
);
metricLeft = I;
metricRight = N;
unicode = 330;
},
{
color = 3;
glyphname = O;
lastChange = "2026-02-24 20:52:23 +0000";
layers = (
{
anchors = (
{
name = "O-slash";
pos = (359,314);
},
{
name = bottom;
pos = (359,-5);
},
{
name = bottom.alt;
pos = (359,-5);
},
{
name = top;
pos = (359,655);
},
{
name = top.alt;
pos = (470,607);
}
);
layerId = "AE3FEF6D-3AA7-4252-B349-D2606A6A3B4C";
shapes = (
{
closed = 1;
nodes = (
(544,-5,o),
(639,131,o),
(639,325,cs),
(639,518,o),
(544,655,o),
(359,655,cs),
(172,655,o),
(77,518,o),
(77,325,cs),
(77,131,o),
(172,-5,o),
(359,-5,cs)
);
},
{
closed = 1;
nodes = (
(181,20,o),
(106,157,o),
(106,325,cs),
(106,492,o),
(181,629,o),
(359,629,cs),
(535,629,o),
(610,493,o),
(610,325,cs),
(610,157,o),
(535,20,o),
(359,20,cs)
);
}
);
vertWidth = 0;
width = 716;
},
{
anchors = (
{
name = "O-slash";
pos = (343,325);
},
{
name = bottom;
pos = (343,-5);
},
{
name = bottom.alt;
pos = (343,-5);
},
{
name = top;
pos = (343,667);
},
{
name = top.alt;
pos = (459,565);
}
);
layerId = "3FD7D777-D61F-402B-A269-3A472D550581";
shapes = (
{
closed = 1;
nodes = (
(578,-5,o),
(673,154,o),
(673,331,cs),
(673,507,o),
(578,667,o),
(343,667,cs),
(107,667,o),
(12,507,o),
(12,331,cs),
(12,154,o),
(108,-5,o),
(343,-5,cs)
);
},
{
closed = 1;
nodes = (
(266,140,o),
(203,194,o),
(203,331,cs),
(203,468,o),
(267,523,o),
(343,523,cs),
(419,523,o),
(484,468,o),
(484,331,cs),
(484,194,o),
(420,140,o),
(343,140,cs)
);
}
);
vertWidth = 0;
width = 685;
},
{
anchors = (
{
name = "O-slash";
pos = (359,320);
},
{
name = bottom;
pos = (359,-5);
},
{
name = bottom.alt;
pos = (359,-5);
},
{
name = top;
pos = (359,661);
},
{
name = top.alt;
pos = (473,586);
}
);
layerId = m003;
shapes = (
{
closed = 1;
nodes = (
(569,-5,o),
(664,143,o),
(664,328,cs),
(664,513,o),
(569,661,o),
(359,661,cs),
(148,661,o),
(53,513,o),
(53,328,cs),
(53,143,o),
(148,-5,o),
(359,-5,cs)
);
},
{
closed = 1;
nodes = (
(232,80,o),
(163,176,o),
(163,328,cs),
(163,480,o),
(232,576,o),
(359,576,cs),
(485,576,o),
(555,481,o),
(555,328,cs),
(555,176,o),
(486,80,o),
(359,80,cs)
);
}
);
vertWidth = 0;
width = 717;
}
);
unicode = 79;
},
{
color = 8;
glyphname = Obarred;
lastChange = "2026-02-24 20:52:23 +0000";
layers = (
{
layerId = "AE3FEF6D-3AA7-4252-B349-D2606A6A3B4C";
shapes = (
{
ref = O;
},
{
closed = 1;
nodes = (
(105,311,l),
(636,311,l),
(636,336,l),
(105,336,l)
);
}
);
width = 716;
},
{
layerId = "3FD7D777-D61F-402B-A269-3A472D550581";
shapes = (
{
ref = O;
},
{
closed = 1;
nodes = (
(116,275,l),
(566,275,l),
(566,392,l),
(116,392,l)
);
}
);
width = 685;
},
{
layerId = m003;
shapes = (
{
ref = O;
},
{
closed = 1;
nodes = (
(111,293,l),
(601,293,l),
(601,364,l),
(111,364,l)
);
}
);
width = 717;
}
);
metricLeft = O;
metricRight = O;
unicode = 415;
},
{
glyphname = OE;
lastChange = "2026-02-24 20:52:23 +0000";
layers = (
{
layerId = "AE3FEF6D-3AA7-4252-B349-D2606A6A3B4C";
shapes = (
{
closed = 1;
nodes = (
(724,0,l),
(724,25,l),
(442,25,l),
(442,311,l),
(697,311,l),
(697,338,l),
(442,338,l),
(442,624,l),
(724,624,l),
(724,650,l),
(350,650,ls),
(173,650,o),
(77,518,o),
(77,325,cs),
(77,131,o),
(173,0,o),
(350,0,cs)
);
},
{
closed = 1;
nodes = (
(183,25,o),
(107,157,o),
(107,325,cs),
(107,492,o),
(183,624,o),
(350,624,cs),
(414,624,l),
(414,25,l),
(350,25,ls)
);
}
);
vertWidth = 0;
width = 763;
},
{
layerId = "3FD7D777-D61F-402B-A269-3A472D550581";
shapes = (
{
closed = 1;
nodes = (
(859,0,l),
(859,143,l),
(607,143,l),
(607,266,l),
(833,266,l),
(833,397,l),
(607,397,l),
(607,518,l),
(859,518,l),
(859,662,l),
(364,662,ls),
(132,662,o),
(12,509,o),
(12,331,cs),
(12,154,o),
(132,0,o),
(364,0,cs)
);
},
{
closed = 1;
nodes = (
(271,143,o),
(201,197,o),
(201,331,cs),
(201,466,o),
(271,518,o),
(364,518,cs),
(419,518,l),
(419,143,l),
(364,143,ls)
);
}
);
vertWidth = 0;
width = 877;
},
{
layerId = m003;
shapes = (
{
closed = 1;
nodes = (
(800,0,l),
(800,84,l),
(533,84,l),
(533,289,l),
(773,289,l),
(773,368,l),
(533,368,l),
(533,571,l),
(800,571,l),
(800,656,l),
(365,656,ls),
(161,656,o),
(53,514,o),
(53,328,cs),
(53,143,o),
(161,0,o),
(365,0,cs)
);
},
{
closed = 1;
nodes = (
(235,84,o),
(162,177,o),
(162,328,cs),
(162,479,o),
(235,571,o),
(365,571,cs),
(425,571,l),
(425,84,l),
(365,84,ls)
);
}
);
vertWidth = 0;
width = 834;
}
);
metricLeft = O;
metricRight = E;
unicode = 338;
},
{
color = 3;
glyphname = P;
kernRight = P;
lastChange = "2026-02-24 20:52:23 +0000";
layers = (
{
anchors = (
{
name = bottom;
pos = (306,0);
},
{
name = top;
pos = (306,650);
}
);
layerId = "AE3FEF6D-3AA7-4252-B349-D2606A6A3B4C";
shapes = (
{
closed = 1;
nodes = (
(146,0,l),
(146,275,l),
(339,275,ls),
(448,275,o),
(512,358,o),
(512,463,cs),
(512,568,o),
(448,650,o),
(339,650,cs),
(116,650,l),
(116,0,l)
);
},
{
closed = 1;
nodes = (
(146,624,l),
(339,624,ls),
(435,624,o),
(485,551,o),
(485,463,cs),
(485,376,o),
(435,300,o),
(339,300,cs),
(146,300,l)
);
}
);
vertWidth = 0;
width = 547;
},
{
anchors = (
{
name = bottom;
pos = (344,0);
},
{
name = top;
pos = (344,662);
}
);
layerId = "3FD7D777-D61F-402B-A269-3A472D550581";
shapes = (
{
closed = 1;
nodes = (
(244,0,l),
(244,228,l),
(365,228,ls),
(540,228,o),
(630,301,o),
(630,445,cs),
(630,588,o),
(540,662,o),
(365,662,cs),
(55,662,l),
(55,0,l)
);
},
{
closed = 1;
nodes = (
(244,518,l),
(361,518,ls),
(416,518,o),
(442,491,o),
(442,446,cs),
(442,398,o),
(415,372,o),
(361,372,cs),
(244,372,l)
);
}
);
vertWidth = 0;
width = 654;
},
{
anchors = (
{
name = bottom;
pos = (339,0);
},
{
name = top;
pos = (339,656);
}
);
layerId = m003;
shapes = (
{
closed = 1;
nodes = (
(209,0,l),
(209,252,l),
(366,252,ls),
(508,252,o),
(585,330,o),
(585,454,cs),
(585,578,o),
(508,656,o),
(366,656,cs),
(100,656,l),
(100,0,l)
);
},
{
closed = 1;
nodes = (
(209,571,l),
(364,571,ls),
(440,571,o),
(478,521,o),
(478,455,cs),
(478,387,o),
(439,336,o),
(364,336,cs),
(209,336,l)
);
}
);
vertWidth = 0;
width = 620;
}
);
metricLeft = I;
unicode = 80;
},
{
color = 3;
glyphname = Thorn;
lastChange = "2026-02-24 20:52:23 +0000";
layers = (
{
anchors = (
{
name = bottom;
pos = (304,0);
},
{
name = top;
pos = (304,650);
}
);
layerId = "AE3FEF6D-3AA7-4252-B349-D2606A6A3B4C";
shapes = (
{
closed = 1;
nodes = (
(147,0,l),
(147,147,l),
(340,147,ls),
(449,147,o),
(514,220,o),
(514,325,cs),
(514,431,o),
(449,502,o),
(340,502,cs),
(147,502,l),
(147,650,l),
(116,650,l),
(116,0,l)
);
},
{
closed = 1;
nodes = (
(147,477,l),
(340,477,ls),
(436,477,o),
(486,413,o),
(486,325,cs),
(486,238,o),
(436,173,o),
(340,173,cs),
(147,173,l)
);
}
);
vertWidth = 0;
width = 563;
},
{
anchors = (
{
name = bottom;
pos = (345,0);
},
{
name = top;
pos = (345,662);
}
);
layerId = "3FD7D777-D61F-402B-A269-3A472D550581";
shapes = (
{
closed = 1;
nodes = (
(244,0,l),
(244,113,l),
(364,113,ls),
(538,113,o),
(631,187,o),
(631,331,cs),
(631,474,o),
(538,549,o),
(364,549,cs),
(244,549,l),
(244,662,l),
(55,662,l),
(55,0,l)
);
},
{
closed = 1;
nodes = (
(244,404,l),
(364,404,ls),
(419,404,o),
(443,377,o),
(443,331,cs),
(443,283,o),
(419,258,o),
(364,258,cs),
(244,258,l)
);
}
);
vertWidth = 0;
width = 655;
},
{
anchors = (
{
name = bottom;
pos = (339,0);
},
{
name = top;
pos = (339,656);
}
);
layerId = m003;
shapes = (
{
closed = 1;
nodes = (
(210,0,l),
(210,130,l),
(366,130,ls),
(508,130,o),
(587,204,o),
(587,328,cs),
(587,453,o),
(508,526,o),
(366,526,cs),
(210,526,l),
(210,656,l),
(100,656,l),
(100,0,l)
);
},
{
closed = 1;
nodes = (
(210,441,l),
(366,441,ls),
(442,441,o),
(479,395,o),
(479,328,cs),
(479,261,o),
(442,216,o),
(366,216,cs),
(210,216,l)
);
}
);
vertWidth = 0;
width = 629;
}
);
metricLeft = I;
unicode = 222;
},
{
color = 3;
glyphname = R;
kernRight = R;
lastChange = "2026-02-24 20:52:23 +0000";
layers = (
{
anchors = (
{
name = bottom;
pos = (257,0);
},
{
name = top;
pos = (257,650);
}
);
layerId = "AE3FEF6D-3AA7-4252-B349-D2606A6A3B4C";
shapes = (
{
closed = 1;
nodes = (
(531,0,l),
(367,293,l),
(338,293,l),
(497,0,l)
);
},
{
ref = P;
}
);
vertWidth = 0;
width = 562;
},
{
anchors = (
{
name = bottom;
pos = (336,0);
},
{
name = top;
pos = (336,662);
}
);
layerId = "3FD7D777-D61F-402B-A269-3A472D550581";
shapes = (
{
closed = 1;
nodes = (
(660,0,l),
(479,317,l),
(301,317,l),
(462,0,l)
);
},
{
ref = P;
}
);
vertWidth = 0;
width = 651;
},
{
anchors = (
{
name = bottom;
pos = (297,0);
},
{
name = top;
pos = (297,656);
}
);
layerId = m003;
shapes = (
{
closed = 1;
nodes = (
(596,0,l),
(423,305,l),
(320,305,l),
(480,0,l)
);
},
{
ref = P;
}
);
vertWidth = 0;
width = 609;
}
);
metricLeft = I;
unicode = 82;
},
{
color = 3;
glyphname = S;
lastChange = "2026-02-24 20:52:23 +0000";
layers = (
{
anchors = (
{
name = bottom;
pos = (279,-5);
},
{
name = top;
pos = (267,655);
}
);
layerId = "AE3FEF6D-3AA7-4252-B349-D2606A6A3B4C";
shapes = (
{
closed = 1;
nodes = (
(411,-5,o),
(494,58,o),
(494,157,cs),
(494,230,o),
(441,275,o),
(288,329,cs),
(144,379,o),
(96,418,o),
(96,482,cs),
(96,568,o),
(168,630,o),
(267,630,cs),
(372,630,o),
(450,565,o),
(450,477,c),
(479,477,l),
(479,578,o),
(387,655,o),
(267,655,cs),
(151,655,o),
(66,582,o),
(66,482,cs),
(66,402,o),
(120,356,o),
(277,304,cs),
(417,258,o),
(464,221,o),
(464,157,cs),
(464,73,o),
(392,21,o),
(279,21,cs),
(164,21,o),
(81,84,o),
(81,173,c),
(52,173,l),
(52,70,o),
(147,-5,o),
(279,-5,cs)
);
}
);
vertWidth = 0;
width = 544;
},
{
anchors = (
{
name = bottom;
pos = (292,-15);
},
{
name = top;
pos = (306,671);
}
);
layerId = "3FD7D777-D61F-402B-A269-3A472D550581";
shapes = (
{
closed = 1;
nodes = (
(463,-10,o),
(577,62,o),
(577,191,cs),
(577,304,o),
(503,347,o),
(346,395,cs),
(261,422,o),
(225,438,o),
(225,467,cs),
(225,500,o),
(254,517,o),
(301,517,cs),
(357,517,o),
(386,494,o),
(386,463,c),
(570,463,l),
(570,596,o),
(468,671,o),
(306,671,cs),
(146,671,o),
(41,598,o),
(41,473,cs),
(41,355,o),
(119,308,o),
(311,247,cs),
(363,230,o),
(392,214,o),
(392,188,cs),
(392,154,o),
(352,144,o),
(310,144,cs),
(240,144,o),
(207,168,o),
(207,204,c),
(23,204,l),
(23,64,o),
(122,-10,o),
(292,-10,cs)
);
}
);
vertWidth = 0;
width = 600;
},
{
anchors = (
{
name = bottom;
pos = (292,-10);
},
{
name = top;
pos = (293,663);
}
);
layerId = m003;
shapes = (
{
closed = 1;
nodes = (
(443,-7,o),
(542,60,o),
(542,174,cs),
(542,267,o),
(478,311,o),
(323,362,cs),
(208,401,o),
(167,428,o),
(167,475,cs),
(167,534,o),
(217,574,o),
(290,574,cs),
(371,574,o),
(424,530,o),
(424,470,c),
(531,470,l),
(531,587,o),
(434,663,o),
(293,663,cs),
(155,663,o),
(60,590,o),
(60,478,cs),
(60,379,o),
(126,332,o),
(300,276,cs),
(396,244,o),
(434,218,o),
(434,173,cs),
(434,114,o),
(378,83,o),
(301,83,cs),
(208,83,o),
(150,126,o),
(150,189,c),
(44,189,l),
(44,67,o),
(141,-7,o),
(292,-7,cs)
);
}
);
vertWidth = 0;
width = 584;
}
);
unicode = 83;
},
{
color = 3;
glyphname = Germandbls;
lastChange = "2026-02-24 20:52:23 +0000";
layers = (
{
layerId = "AE3FEF6D-3AA7-4252-B349-D2606A6A3B4C";
shapes = (
{
closed = 1;
nodes = (
(350,346,l),
(413,373,o),
(447,429,o),
(447,497,cs),
(447,603,o),
(362,656,o),
(268,656,cs),
(140,655,o),
(75,571,o),
(75,426,cs),
(75,0,l),
(104,0,l),
(104,426,ls),
(104,557,o),
(159,631,o),
(268,631,cs),
(345,631,o),
(419,587,o),
(419,497,cs),
(419,429,o),
(379,352,o),
(251,352,c),
(251,328,l),
(379,328,o),
(478,287,o),
(478,161,cs),
(478,80,o),
(439,21,o),
(353,21,cs),
(282,21,o),
(230,57,o),
(230,134,c),
(200,134,l),
(200,41,o),
(265,-5,o),
(354,-5,cs),
(455,-5,o),
(507,63,o),
(507,160,cs),
(507,271,o),
(437,323,o),
(350,342,c)
);
}
);
vertWidth = 0;
width = 553;
},
{
layerId = "3FD7D777-D61F-402B-A269-3A472D550581";
shapes = (
{
closed = 1;
nodes = (
(459,325,l),
(522,344,o),
(561,392,o),
(561,469,cs),
(561,598,o),
(445,667,o),
(305,667,cs),
(129,667,o),
(38,559,o),
(38,413,cs),
(38,0,l),
(226,0,l),
(226,439,ls),
(226,492,o),
(248,528,o),
(302,528,cs),
(343,528,o),
(375,506,o),
(375,463,cs),
(375,428,o),
(354,394,o),
(291,394,c),
(291,261,l),
(392,261,o),
(447,231,o),
(447,176,cs),
(447,148,o),
(433,130,o),
(405,130,cs),
(379,130,o),
(362,142,o),
(362,171,c),
(260,171,l),
(260,59,o),
(295,-5,o),
(424,-5,cs),
(536,-5,o),
(619,48,o),
(619,161,cs),
(619,261,o),
(558,300,o),
(459,322,c)
);
}
);
vertWidth = 0;
width = 632;
},
{
layerId = m003;
shapes = (
{
closed = 1;
nodes = (
(421,335,l),
(477,358,o),
(513,410,o),
(513,483,cs),
(513,601,o),
(413,662,o),
(296,662,cs),
(143,661,o),
(66,565,o),
(66,420,cs),
(66,0,l),
(174,0,l),
(174,433,ls),
(174,525,o),
(213,580,o),
(294,580,cs),
(353,580,o),
(406,547,o),
(406,480,cs),
(406,429,o),
(376,373,o),
(280,373,c),
(280,295,l),
(395,295,o),
(472,259,o),
(472,169,cs),
(472,114,o),
(445,76,o),
(388,76,cs),
(340,76,o),
(305,100,o),
(305,153,c),
(239,153,l),
(239,50,o),
(289,-5,o),
(398,-5,cs),
(505,-5,o),
(572,56,o),
(572,161,cs),
(572,267,o),
(506,311,o),
(421,331,c)
);
}
);
vertWidth = 0;
width = 607;
}
);
unicode = 7838;
},
{
color = 3;
glyphname = T;
kernLeft = T;
kernRight = T;
lastChange = "2026-02-24 20:52:23 +0000";
layers = (
{
anchors = (
{
name = "T-bar";
pos = (315,423);
},
{
name = bottom;
pos = (316,0);
},
{
name = top;
pos = (316,650);
}
);
layerId = "AE3FEF6D-3AA7-4252-B349-D2606A6A3B4C";
shapes = (
{
closed = 1;
nodes = (
(330,0,l),
(330,624,l),
(576,624,l),
(576,650,l),
(55,650,l),
(55,624,l),
(301,624,l),
(301,0,l)
);
}
);
vertWidth = 0;
width = 631;
},
{
anchors = (
{
name = "T-bar";
pos = (272,357);
},
{
name = bottom;
pos = (272,0);
},
{
name = top;
pos = (272,662);
}
);
layerId = "3FD7D777-D61F-402B-A269-3A472D550581";
shapes = (
{
closed = 1;
nodes = (
(367,0,l),
(367,518,l),
(553,518,l),
(553,662,l),
(-8,662,l),
(-8,518,l),
(179,518,l),
(179,0,l)
);
}
);
vertWidth = 0;
width = 545;
},
{
anchors = (
{
name = "T-bar";
pos = (297,390);
},
{
name = bottom;
pos = (297,0);
},
{
name = top;
pos = (297,656);
}
);
layerId = m003;
shapes = (
{
closed = 1;
nodes = (
(352,0,l),
(352,571,l),
(568,571,l),
(568,656,l),
(27,656,l),
(27,571,l),
(243,571,l),
(243,0,l)
);
}
);
vertWidth = 0;
width = 594;
}
);
unicode = 84;
},
{
glyphname = U;
lastChange = "2026-02-24 20:52:23 +0000";
layers = (
{
anchors = (
{
name = bottom;
pos = (336,-5);
},
{
name = bottom.alt;
pos = (336,-5);
},
{
name = top;
pos = (337,650);
},
{
name = top.alt;
pos = (554,607);
}
);
layerId = "AE3FEF6D-3AA7-4252-B349-D2606A6A3B4C";
shapes = (
{
closed = 1;
nodes = (
(481,-5,o),
(571,83,o),
(571,224,cs),
(571,650,l),
(541,650,l),
(541,224,ls),
(541,97,o),
(463,19,o),
(336,19,cs),
(209,19,o),
(132,97,o),
(132,224,cs),
(132,650,l),
(101,650,l),
(101,224,ls),
(101,82,o),
(190,-5,o),
(336,-5,cs)
);
}
);
vertWidth = 0;
width = 672;
},
{
anchors = (
{
name = bottom;
pos = (348,-5);
},
{
name = bottom.alt;
pos = (348,-5);
},
{
name = top;
pos = (348,661);
},
{
name = top.alt;
pos = (594,564);
}
);
layerId = "3FD7D777-D61F-402B-A269-3A472D550581";
shapes = (
{
closed = 1;
nodes = (
(548,-5,o),
(657,84,o),
(657,244,cs),
(657,662,l),
(468,662,l),
(468,249,ls),
(468,186,o),
(431,148,o),
(349,148,cs),
(267,148,o),
(229,186,o),
(229,249,cs),
(229,662,l),
(41,662,l),
(41,244,ls),
(41,83,o),
(150,-5,o),
(349,-5,cs)
);
}
);
vertWidth = 0;
width = 698;
},
{
anchors = (
{
name = bottom;
pos = (353,-5);
},
{
name = bottom.alt;
pos = (353,-5);
},
{
name = top;
pos = (354,656);
},
{
name = top.alt;
pos = (585,586);
}
);
layerId = m003;
shapes = (
{
closed = 1;
nodes = (
(526,-5,o),
(625,84,o),
(625,234,cs),
(625,656,l),
(516,656,l),
(516,237,ls),
(516,142,o),
(458,84,o),
(354,84,cs),
(249,84,o),
(192,142,o),
(192,237,cs),
(192,656,l),
(82,656,l),
(82,234,ls),
(82,83,o),
(181,-5,o),
(354,-5,cs)
);
}
);
vertWidth = 0;
width = 707;
}
);
metricLeft = "=|J";
metricRight = J;
unicode = 85;
},
{
glyphname = V;
kernLeft = V;
kernRight = V;
lastChange = "2026-02-24 20:52:23 +0000";
layers = (
{
anchors = (
{
name = bottom;
pos = (276,0);
},
{
name = top;
pos = (277,650);
}
);
layerId = "AE3FEF6D-3AA7-4252-B349-D2606A6A3B4C";
shapes = (
{
closed = 1;
nodes = (
(298,0,l),
(545,650,l),
(515,650,l),
(279,20,l),
(275,20,l),
(40,650,l),
(9,650,l),
(256,0,l)
);
}
);
vertWidth = 0;
width = 555;
},
{
anchors = (
{
name = bottom;
pos = (329,0);
},
{
name = top;
pos = (329,662);
}
);
layerId = "3FD7D777-D61F-402B-A269-3A472D550581";
shapes = (
{
closed = 1;
nodes = (
(431,0,l),
(690,662,l),
(488,662,l),
(333,199,l),
(328,199,l),
(173,662,l),
(-28,662,l),
(231,0,l)
);
}
);
vertWidth = 0;
width = 662;
},
{
anchors = (
{
name = bottom;
pos = (304,0);
},
{
name = top;
pos = (304,656);
}
);
layerId = m003;
shapes = (
{
closed = 1;
nodes = (
(366,0,l),
(619,656,l),
(503,656,l),
(307,110,l),
(303,110,l),
(108,656,l),
(-8,656,l),
(245,0,l)
);
}
);
vertWidth = 0;
width = 611;
}
);
metricLeft = A;
metricRight = A;
unicode = 86;
},
{
glyphname = VY;
kernLeft = V;
kernRight = Yacute;
lastChange = "2026-02-24 20:52:23 +0000";
layers = (
{
background = {
shapes = (
{
alignment = -1;
attr = {
identifier = ADCBB169;
};
pos = (530,0);
ref = Y;
userData = {
UFO.identifier = 7D325315;
UFO.lib = {
};
};
},
{
alignment = -1;
attr = {
identifier = 80D2B9B0;
};
pos = (-2,0);
ref = V;
userData = {
UFO.identifier = 7FCAC67A;
UFO.lib = {
};
};
}
);
};
layerId = "AE3FEF6D-3AA7-4252-B349-D2606A6A3B4C";
shapes = (
{
closed = 1;
nodes = (
(792,0,l),
(792,279,l),
(1041,650,l),
(1009,650,l),
(778,307,l),
(549,650,l),
(515,650,l),
(279,20,l),
(275,20,l),
(40,650,l),
(9,650,l),
(256,0,l),
(298,0,l),
(534,621,l),
(763,279,l),
(763,0,l)
);
}
);
width = 1051;
},
{
background = {
shapes = (
{
alignment = -1;
pos = (586,0);
ref = Y;
userData = {
UFO.identifier = F75C8E55;
UFO.lib = {
};
};
},
{
alignment = -1;
pos = (1,0);
ref = V;
userData = {
UFO.identifier = 80B21931;
UFO.lib = {
};
};
}
);
};
layerId = "3FD7D777-D61F-402B-A269-3A472D550581";
shapes = (
{
closed = 1;
nodes = (
(954,0,l),
(954,270,l),
(1202,662,l),
(983,662,l),
(860,407,l),
(736,662,l),
(488,662,l),
(333,199,l),
(328,199,l),
(173,662,l),
(-28,662,l),
(231,0,l),
(431,0,l),
(624,492,l),
(764,270,l),
(764,0,l)
);
}
);
width = 1174;
},
{
background = {
shapes = (
{
alignment = -1;
attr = {
identifier = ADCBB169;
};
pos = (531,0);
ref = Y;
userData = {
UFO.identifier = 7D325315;
UFO.lib = {
};
};
},
{
alignment = -1;
attr = {
identifier = 80D2B9B0;
};
pos = (-1,0);
ref = V;
userData = {
UFO.identifier = 7FCAC67A;
UFO.lib = {
};
};
}
);
};
layerId = m003;
shapes = (
{
closed = 1;
nodes = (
(874,0,l),
(874,275,l),
(1123,656,l),
(997,656,l),
(820,357,l),
(644,656,l),
(503,656,l),
(307,110,l),
(303,110,l),
(108,656,l),
(-8,656,l),
(245,0,l),
(366,0,l),
(580,557,l),
(765,275,l),
(765,0,l)
);
}
);
width = 1115;
}
);
metricLeft = V;
metricRight = Y;
unicode = 42848;
},
{
color = 3;
glyphname = W;
kernLeft = V;
kernRight = V;
lastChange = "2026-02-24 20:52:23 +0000";
layers = (
{
anchors = (
{
name = bottom;
pos = (428,0);
},
{
name = top;
pos = (428,650);
}
);
layerId = "AE3FEF6D-3AA7-4252-B349-D2606A6A3B4C";
shapes = (
{
closed = 1;
nodes = (
(239,0,l),
(426,630,l),
(431,630,l),
(619,0,l),
(674,0,l),
(844,650,l),
(812,650,l),
(647,17,l),
(642,17,l),
(455,650,l),
(403,650,l),
(216,17,l),
(211,17,l),
(45,650,l),
(14,650,l),
(184,0,l)
);
}
);
vertWidth = 0;
width = 858;
},
{
anchors = (
{
name = bottom;
pos = (457,0);
},
{
name = top;
pos = (457,662);
}
);
layerId = "3FD7D777-D61F-402B-A269-3A472D550581";
shapes = (
{
closed = 1;
nodes = (
(343,0,l),
(455,407,l),
(459,407,l),
(569,0,l),
(744,0,l),
(926,662,l),
(731,662,l),
(648,258,l),
(644,258,l),
(537,662,l),
(377,662,l),
(269,258,l),
(264,258,l),
(181,662,l),
(-13,662,l),
(168,0,l)
);
}
);
vertWidth = 0;
width = 913;
},
{
anchors = (
{
name = bottom;
pos = (443,0);
},
{
name = top;
pos = (443,656);
}
);
layerId = m003;
shapes = (
{
closed = 1;
nodes = (
(291,0,l),
(441,519,l),
(445,519,l),
(594,0,l),
(709,0,l),
(885,656,l),
(772,656,l),
(648,138,l),
(643,138,l),
(496,656,l),
(390,656,l),
(243,138,l),
(238,138,l),
(113,656,l),
(1,656,l),
(176,0,l)
);
}
);
vertWidth = 0;
width = 886;
}
);
unicode = 87;
},
{
color = 3;
glyphname = X;
lastChange = "2026-02-24 20:52:23 +0000";
layers = (
{
anchors = (
{
name = bottom;
pos = (287,0);
},
{
name = top;
pos = (287,650);
}
);
layerId = "AE3FEF6D-3AA7-4252-B349-D2606A6A3B4C";
shapes = (
{
closed = 1;
nodes = (
(53,0,l),
(287,307,l),
(520,0,l),
(557,0,l),
(307,331,l),
(546,650,l),
(509,650,l),
(287,354,l),
(64,650,l),
(27,650,l),
(266,331,l),
(18,0,l)
);
}
);
vertWidth = 0;
width = 573;
},
{
anchors = (
{
name = bottom;
pos = (322,0);
},
{
name = top;
pos = (322,662);
}
);
layerId = "3FD7D777-D61F-402B-A269-3A472D550581";
shapes = (
{
closed = 1;
nodes = (
(193,0,l),
(323,210,l),
(447,0,l),
(661,0,l),
(429,344,l),
(641,662,l),
(432,662,l),
(325,468,l),
(218,662,l),
(6,662,l),
(220,339,l),
(-17,0,l)
);
}
);
vertWidth = 0;
width = 644;
},
{
anchors = (
{
name = bottom;
pos = (305,0);
},
{
name = top;
pos = (305,656);
}
);
layerId = m003;
shapes = (
{
closed = 1;
nodes = (
(123,0,l),
(305,259,l),
(484,0,l),
(609,0,l),
(368,338,l),
(594,656,l),
(471,656,l),
(306,411,l),
(141,656,l),
(17,656,l),
(243,335,l),
(1,0,l)
);
}
);
vertWidth = 0;
width = 609;
}
);
unicode = 88;
},
{
glyphname = Y;
kernLeft = Y;
kernRight = Y;
lastChange = "2026-02-24 20:52:23 +0000";
layers = (
{
anchors = (
{
name = bottom;
pos = (273,0);
},
{
name = top;
pos = (273,650);
}
);
layerId = "AE3FEF6D-3AA7-4252-B349-D2606A6A3B4C";
shapes = (
{
closed = 1;
nodes = (
(287,0,l),
(287,279,l),
(536,650,l),
(503,650,l),
(273,307,l),
(44,650,l),
(9,650,l),
(257,279,l),
(257,0,l)
);
}
);
vertWidth = 0;
width = 546;
},
{
anchors = (
{
name = bottom;
pos = (314,0);
},
{
name = top;
pos = (314,662);
}
);
layerId = "3FD7D777-D61F-402B-A269-3A472D550581";
shapes = (
{
closed = 1;
nodes = (
(410,0,l),
(410,270,l),
(658,662,l),
(439,662,l),
(316,407,l),
(192,662,l),
(-28,662,l),
(220,270,l),
(220,0,l)
);
}
);
vertWidth = 0;
width = 630;
},
{
anchors = (
{
name = bottom;
pos = (295,0);
},
{
name = top;
pos = (295,656);
}
);
layerId = m003;
shapes = (
{
closed = 1;
nodes = (
(350,0,l),
(350,275,l),
(598,656,l),
(472,656,l),
(296,357,l),
(119,656,l),
(-8,656,l),
(240,275,l),
(240,0,l)
);
}
);
vertWidth = 0;
width = 590;
}
);
metricLeft = A;
metricRight = A;
unicode = 89;
},
{
color = 8;
glyphname = Yhook;
kernLeft = Y;
kernRight = Y;
lastChange = "2026-02-24 20:52:23 +0000";
layers = (
{
layerId = "AE3FEF6D-3AA7-4252-B349-D2606A6A3B4C";
shapes = (
{
closed = 1;
nodes = (
(447,279,l),
(447,0,l),
(477,0,l),
(477,279,l),
(726,650,l),
(693,650,l),
(462,307,l),
(233,650,l),
(216,650,ls),
(111,650,o),
(43,599,o),
(43,516,cs),
(43,485,l),
(74,485,l),
(74,516,ls),
(74,584,o),
(128,624,o),
(216,624,c)
);
}
);
vertWidth = 0;
width = 736;
},
{
layerId = "3FD7D777-D61F-402B-A269-3A472D550581";
shapes = (
{
closed = 1;
nodes = (
(425,270,l),
(425,0,l),
(615,0,l),
(615,270,l),
(862,662,l),
(644,662,l),
(521,407,l),
(396,662,l),
(259,662,ls),
(108,662,o),
(11,594,o),
(11,486,cs),
(11,424,l),
(200,424,l),
(200,486,ls),
(200,515,o),
(225,531,o),
(259,531,c)
);
}
);
vertWidth = 0;
width = 834;
},
{
layerId = m003;
shapes = (
{
closed = 1;
nodes = (
(441,275,l),
(441,0,l),
(551,0,l),
(551,275,l),
(799,656,l),
(674,656,l),
(497,357,l),
(320,656,l),
(243,656,ls),
(115,656,o),
(32,597,o),
(32,501,cs),
(32,455,l),
(142,455,l),
(142,501,ls),
(142,550,o),
(182,578,o),
(243,578,c)
);
}
);
vertWidth = 0;
width = 791;
}
);
metricLeft = J;
metricRight = A;
unicode = 435;
},
{
color = 3;
glyphname = Yr;
lastChange = "2026-02-24 20:52:23 +0000";
layers = (
{
layerId = "AE3FEF6D-3AA7-4252-B349-D2606A6A3B4C";
shapes = (
{
closed = 1;
nodes = (
(591,-108,l),
(376,278,l),
(462,295,o),
(512,370,o),
(512,463,cs),
(512,568,o),
(448,650,o),
(339,650,cs),
(146,650,l),
(146,770,l),
(116,770,l),
(116,0,l),
(146,0,l),
(146,275,l),
(349,275,l),
(557,-108,l)
);
},
{
closed = 1;
nodes = (
(146,624,l),
(339,624,ls),
(435,624,o),
(485,551,o),
(485,463,cs),
(485,376,o),
(435,300,o),
(339,300,cs),
(146,300,l)
);
}
);
width = 562;
},
{
layerId = "3FD7D777-D61F-402B-A269-3A472D550581";
shapes = (
{
closed = 1;
nodes = (
(712,-98,l),
(516,254,l),
(591,287,o),
(630,351,o),
(630,445,cs),
(630,588,o),
(540,662,o),
(365,662,cs),
(243,662,l),
(243,770,l),
(55,770,l),
(55,0,l),
(244,0,l),
(244,228,l),
(349,228,l),
(514,-98,l)
);
},
{
closed = 1;
nodes = (
(244,518,l),
(361,518,ls),
(416,518,o),
(442,491,o),
(442,446,cs),
(442,398,o),
(415,372,o),
(361,372,cs),
(244,372,l)
);
}
);
width = 651;
},
{
layerId = m003;
shapes = (
{
closed = 1;
nodes = (
(666,-103,l),
(460,266,l),
(541,291,o),
(585,361,o),
(585,454,cs),
(585,578,o),
(508,656,o),
(366,656,cs),
(209,656,l),
(209,770,l),
(100,770,l),
(100,0,l),
(209,0,l),
(209,252,l),
(363,252,l),
(550,-103,l)
);
},
{
closed = 1;
nodes = (
(209,571,l),
(364,571,ls),
(440,571,o),
(478,521,o),
(478,455,cs),
(478,387,o),
(439,336,o),
(364,336,cs),
(209,336,l)
);
}
);
width = 609;
}
);
metricLeft = "=I";
metricWidth = R;
unicode = 422;
},
{
color = 3;
glyphname = Z;
lastChange = "2026-02-24 20:52:23 +0000";
layers = (
{
anchors = (
{
name = bottom;
pos = (264,0);
},
{
name = top;
pos = (264,650);
}
);
layerId = "AE3FEF6D-3AA7-4252-B349-D2606A6A3B4C";
shapes = (
{
closed = 1;
nodes = (
(482,0,l),
(482,25,l),
(71,25,l),
(482,612,l),
(482,650,l),
(46,650,l),
(46,625,l),
(458,625,l),
(46,39,l),
(46,0,l)
);
}
);
vertWidth = 0;
width = 529;
},
{
anchors = (
{
name = bottom;
pos = (259,0);
},
{
name = top;
pos = (259,662);
}
);
layerId = "3FD7D777-D61F-402B-A269-3A472D550581";
shapes = (
{
closed = 1;
nodes = (
(510,0,l),
(510,143,l),
(223,143,l),
(510,549,l),
(510,662,l),
(8,662,l),
(8,518,l),
(296,518,l),
(8,113,l),
(8,0,l)
);
}
);
vertWidth = 0;
width = 518;
},
{
anchors = (
{
name = bottom;
pos = (267,0);
},
{
name = top;
pos = (267,656);
}
);
layerId = m003;
shapes = (
{
closed = 1;
nodes = (
(501,0,l),
(501,84,l),
(152,84,l),
(501,581,l),
(501,656,l),
(32,656,l),
(32,572,l),
(382,572,l),
(32,76,l),
(32,0,l)
);
}
);
vertWidth = 0;
width = 534;
}
);
unicode = 90;
},
{
color = 3;
glyphname = AEsmall;
kernLeft = Asmall;
lastChange = "2026-02-24 20:52:23 +0000";
layers = (
{
anchors = (
{
name = bottom;
pos = (250,0);
},
{
name = top;
pos = (324,483);
}
);
layerId = "AE3FEF6D-3AA7-4252-B349-D2606A6A3B4C";
shapes = (
{
closed = 1;
nodes = (
(29,0,l),
(85,146,l),
(235,146,l),
(235,0,l),
(504,0,l),
(504,26,l),
(259,26,l),
(259,228,l),
(483,228,l),
(483,255,l),
(259,255,l),
(259,458,l),
(504,458,l),
(504,483,l),
(191,483,l),
(-3,0,l)
);
},
{
closed = 1;
nodes = (
(211,463,l),
(235,463,l),
(235,172,l),
(94,172,l)
);
}
);
vertWidth = 0;
width = 530;
},
{
anchors = (
{
name = bottom;
pos = (370,0);
},
{
name = top;
pos = (418,500);
}
);
layerId = "3FD7D777-D61F-402B-A269-3A472D550581";
shapes = (
{
closed = 1;
nodes = (
(172,0,l),
(199,96,l),
(301,96,l),
(301,0,l),
(675,0,l),
(675,134,l),
(475,134,l),
(475,197,l),
(648,197,l),
(648,301,l),
(475,301,l),
(475,365,l),
(675,365,l),
(675,500,l),
(165,500,l),
(-20,0,l)
);
},
{
closed = 1;
nodes = (
(272,336,l),
(301,336,l),
(301,193,l),
(228,193,l)
);
}
);
vertWidth = 0;
width = 680;
},
{
anchors = (
{
name = bottom;
pos = (311,0);
},
{
name = top;
pos = (372,492);
}
);
layerId = m003;
shapes = (
{
closed = 1;
nodes = (
(102,0,l),
(143,121,l),
(269,121,l),
(269,0,l),
(591,0,l),
(591,80,l),
(368,80,l),
(368,213,l),
(567,213,l),
(567,278,l),
(368,278,l),
(368,412,l),
(591,412,l),
(591,492,l),
(179,492,l),
(-10,0,l)
);
},
{
closed = 1;
nodes = (
(243,400,l),
(269,400,l),
(269,183,l),
(162,183,l)
);
}
);
vertWidth = 0;
width = 609;
}
);
unicode = 7425;
},
{
color = 3;
glyphname = Asmall;
kernLeft = Asmall;
kernRight = Asmall;
lastChange = "2026-02-24 21:28:32 +0000";
layers = (
{
anchors = (
{
name = bottom;
pos = (209,0);
},
{
name = bottom.alt;
pos = (405,0);
},
{
name = top;
pos = (209,483);
}
);
layerId = "AE3FEF6D-3AA7-4252-B349-D2606A6A3B4C";
shapes = (
{
closed = 1;
nodes = (
(29,0,l),
(84,146,l),
(334,146,l),
(389,0,l),
(420,0,l),
(231,483,l),
(188,483,l),
(-1,0,l)
);
},
{
closed = 1;
nodes = (
(207,464,l),
(212,464,l),
(324,172,l),
(93,172,l)
);
}
);
vertWidth = 0;
width = 419;
},
{
anchors = (
{
name = bottom;
pos = (271,0);
},
{
name = bottom.alt;
pos = (459,23);
},
{
name = top;
pos = (271,500);
}
);
layerId = "3FD7D777-D61F-402B-A269-3A472D550581";
shapes = (
{
closed = 1;
nodes = (
(175,0,l),
(201,96,l),
(341,96,l),
(366,0,l),
(559,0,l),
(376,500,l),
(162,500,l),
(-18,0,l)
);
},
{
closed = 1;
nodes = (
(268,336,l),
(272,336,l),
(313,193,l),
(227,193,l)
);
}
);
vertWidth = 0;
width = 539;
},
{
anchors = (
{
name = bottom;
pos = (241,0);
},
{
name = bottom.alt;
pos = (433,12);
},
{
name = top;
pos = (241,492);
}
);
layerId = m003;
shapes = (
{
closed = 1;
nodes = (
(103,0,l),
(141,112,l),
(342,112,l),
(379,0,l),
(491,0,l),
(305,492,l),
(176,492,l),
(-8,0,l)
);
},
{
closed = 1;
nodes = (
(239,400,l),
(243,400,l),
(317,192,l),
(164,192,l)
);
}
);
vertWidth = 0;
width = 481;
}
);
unicode = 7424;
},
{
color = 3;
glyphname = Bsmall;
kernLeft = Ismall;
lastChange = "2026-02-24 21:29:57 +0000";
layers = (
{
anchors = (
{
name = bottom;
pos = (228,0);
},
{
name = top;
pos = (228,483);
}
);
layerId = "AE3FEF6D-3AA7-4252-B349-D2606A6A3B4C";
shapes = (
{
closed = 1;
nodes = (
(283,0,ls),
(365,0,o),
(419,49,o),
(419,125,cs),
(419,188,o),
(381,235,o),
(323,245,c),
(323,250,l),
(369,263,o),
(396,303,o),
(396,359,cs),
(396,435,o),
(344,483,o),
(261,483,cs),
(76,483,l),
(76,0,l)
);
},
{
closed = 1;
nodes = (
(109,228,l),
(276,228,ls),
(347,228,o),
(386,191,o),
(386,125,cs),
(386,61,o),
(347,26,o),
(276,26,cs),
(109,26,l)
);
},
{
closed = 1;
nodes = (
(109,458,l),
(255,458,ls),
(326,458,o),
(364,423,o),
(364,357,cs),
(364,292,o),
(325,256,o),
(255,256,cs),
(109,256,l)
);
}
);
vertWidth = 0;
width = 454;
},
{
anchors = (
{
name = bottom;
pos = (300,0);
},
{
name = top;
pos = (300,500);
}
);
layerId = "3FD7D777-D61F-402B-A269-3A472D550581";
shapes = (
{
closed = 1;
nodes = (
(366,0,ls),
(479,0,o),
(540,53,o),
(540,148,cs),
(540,201,o),
(500,248,o),
(445,261,c),
(445,265,l),
(487,273,o),
(517,308,o),
(517,347,cs),
(517,446,o),
(450,500,o),
(325,500,cs),
(54,500,l),
(54,0,l)
);
},
{
closed = 1;
nodes = (
(242,210,l),
(310,210,ls),
(346,210,o),
(363,192,o),
(363,160,cs),
(363,128,o),
(346,112,o),
(310,112,cs),
(242,112,l)
);
},
{
closed = 1;
nodes = (
(242,388,l),
(304,388,ls),
(337,388,o),
(353,371,o),
(353,339,cs),
(353,307,o),
(337,290,o),
(304,290,cs),
(242,290,l)
);
}
);
vertWidth = 0;
width = 580;
},
{
anchors = (
{
name = bottom;
pos = (275,0);
},
{
name = top;
pos = (275,492);
}
);
layerId = m003;
shapes = (
{
closed = 1;
nodes = (
(336,0,ls),
(433,0,o),
(491,51,o),
(491,137,cs),
(491,195,o),
(452,241,o),
(395,253,c),
(395,258,l),
(439,268,o),
(468,306,o),
(468,353,cs),
(468,441,o),
(408,492,o),
(304,492,cs),
(76,492,l),
(76,0,l)
);
},
{
closed = 1;
nodes = (
(187,206,l),
(304,206,ls),
(358,206,o),
(386,185,o),
(386,142,cs),
(386,99,o),
(358,80,o),
(304,80,cs),
(187,80,l)
);
},
{
closed = 1;
nodes = (
(187,412,l),
(291,412,ls),
(343,412,o),
(370,392,o),
(370,349,cs),
(370,306,o),
(342,286,o),
(291,286,cs),
(187,286,l)
);
}
);
vertWidth = 0;
width = 534;
}
);
unicode = 665;
},
{
color = 3;
glyphname = Csmall;
kernLeft = Gsmall;
lastChange = "2026-02-24 21:30:15 +0000";
layers = (
{
anchors = (
{
name = bottom;
pos = (269,-5);
},
{
name = top;
pos = (269,489);
}
);
layerId = "AE3FEF6D-3AA7-4252-B349-D2606A6A3B4C";
shapes = (
{
closed = 1;
nodes = (
(371,-5,o),
(431,62,o),
(452,117,c),
(427,127,l),
(408,77,o),
(355,21,o),
(268,21,cs),
(142,21,o),
(84,116,o),
(84,242,cs),
(84,367,o),
(142,463,o),
(268,463,cs),
(355,463,o),
(408,407,o),
(427,357,c),
(452,366,l),
(431,421,o),
(371,489,o),
(269,489,cs),
(136,489,o),
(54,394,o),
(54,242,cs),
(54,90,o),
(136,-5,o),
(269,-5,cs)
);
}
);
vertWidth = 0;
width = 506;
},
{
anchors = (
{
name = bottom;
pos = (293,-10);
},
{
name = top;
pos = (289,510);
}
);
layerId = "3FD7D777-D61F-402B-A269-3A472D550581";
shapes = (
{
closed = 1;
nodes = (
(458,-10,o),
(558,80,o),
(564,201,c),
(379,203,l),
(372,150,o),
(339,123,o),
(293,123,cs),
(234,123,o),
(206,167,o),
(206,249,cs),
(206,331,o),
(237,376,o),
(295,376,cs),
(339,376,o),
(372,347,o),
(379,296,c),
(564,298,l),
(558,418,o),
(458,510,o),
(289,510,cs),
(114,510,o),
(18,419,o),
(18,249,cs),
(18,79,o),
(113,-10,o),
(293,-10,cs)
);
}
);
vertWidth = 0;
width = 558;
},
{
anchors = (
{
name = bottom;
pos = (287,-7);
},
{
name = top;
pos = (285,500);
}
);
layerId = m003;
shapes = (
{
closed = 1;
nodes = (
(421,-7,o),
(500,70,o),
(514,159,c),
(409,165,l),
(396,114,o),
(353,73,o),
(287,73,cs),
(194,73,o),
(151,142,o),
(151,246,cs),
(151,349,o),
(196,419,o),
(288,419,cs),
(353,419,o),
(396,377,o),
(409,327,c),
(514,332,l),
(500,420,o),
(421,500,o),
(285,500,cs),
(131,500,o),
(42,407,o),
(42,246,cs),
(42,85,o),
(131,-7,o),
(287,-7,cs)
);
}
);
vertWidth = 0;
width = 541;
}
);
unicode = 7428;
},
{
color = 3;
glyphname = Dsmall;
kernLeft = Ismall;
lastChange = "2026-02-24 21:30:44 +0000";
layers = (
{
anchors = (
{
name = "D-bar";
pos = (90,242);
},
{
name = bottom;
pos = (238,0);
},
{
name = top;
pos = (238,483);
}
);
layerId = "AE3FEF6D-3AA7-4252-B349-D2606A6A3B4C";
shapes = (
{
closed = 1;
nodes = (
(238,0,ls),
(374,0,o),
(447,99,o),
(447,242,cs),
(447,384,o),
(374,483,o),
(238,483,cs),
(76,483,l),
(76,0,l)
);
},
{
closed = 1;
nodes = (
(104,458,l),
(238,458,ls),
(360,458,o),
(419,365,o),
(419,242,cs),
(419,118,o),
(360,25,o),
(238,25,cs),
(104,25,l)
);
}
);
vertWidth = 0;
width = 483;
},
{
anchors = (
{
name = "D-bar";
pos = (127,250);
},
{
name = bottom;
pos = (246,0);
},
{
name = top;
pos = (246,500);
}
);
layerId = "3FD7D777-D61F-402B-A269-3A472D550581";
shapes = (
{
closed = 1;
nodes = (
(280,0,ls),
(452,0,o),
(524,102,o),
(524,249,cs),
(524,397,o),
(452,500,o),
(280,500,cs),
(37,500,l),
(37,0,l)
);
},
{
closed = 1;
nodes = (
(225,388,l),
(261,388,ls),
(315,388,o),
(344,354,o),
(344,249,cs),
(344,145,o),
(315,119,o),
(261,119,cs),
(225,119,l)
);
}
);
vertWidth = 0;
width = 550;
},
{
anchors = (
{
name = "D-bar";
pos = (118,246);
},
{
name = bottom;
pos = (251,0);
},
{
name = top;
pos = (251,492);
}
);
layerId = m003;
shapes = (
{
closed = 1;
nodes = (
(268,0,ls),
(422,0,o),
(495,101,o),
(495,246,cs),
(495,391,o),
(422,492,o),
(268,492,cs),
(66,492,l),
(66,0,l)
);
},
{
closed = 1;
nodes = (
(174,415,l),
(259,415,ls),
(347,415,o),
(391,355,o),
(391,246,cs),
(391,137,o),
(347,80,o),
(259,80,cs),
(174,80,l)
);
}
);
vertWidth = 0;
width = 531;
}
);
unicode = 7429;
},
{
color = 3;
glyphname = Esmall;
kernLeft = Ismall;
lastChange = "2026-02-24 21:31:17 +0000";
layers = (
{
anchors = (
{
name = bottom;
pos = (237,0);
},
{
name = bottom.alt;
pos = (293,0);
},
{
name = top;
pos = (237,483);
}
);
layerId = "AE3FEF6D-3AA7-4252-B349-D2606A6A3B4C";
shapes = (
{
closed = 1;
nodes = (
(362,0,l),
(362,25,l),
(105,25,l),
(105,228,l),
(343,228,l),
(343,255,l),
(105,255,l),
(105,458,l),
(362,458,l),
(362,483,l),
(77,483,l),
(77,0,l)
);
}
);
vertWidth = 0;
width = 396;
},
{
anchors = (
{
name = bottom;
pos = (254,0);
},
{
name = bottom.alt;
pos = (315,0);
},
{
name = top;
pos = (254,500);
}
);
layerId = "3FD7D777-D61F-402B-A269-3A472D550581";
shapes = (
{
closed = 1;
nodes = (
(428,0,l),
(428,134,l),
(228,134,l),
(228,197,l),
(402,197,l),
(402,301,l),
(228,301,l),
(228,365,l),
(428,365,l),
(428,500,l),
(39,500,l),
(39,0,l)
);
}
);
vertWidth = 0;
width = 443;
},
{
anchors = (
{
name = bottom;
pos = (255,0);
},
{
name = bottom.alt;
pos = (313,0);
},
{
name = top;
pos = (255,492);
}
);
layerId = m003;
shapes = (
{
closed = 1;
nodes = (
(404,0,l),
(404,80,l),
(176,80,l),
(176,205,l),
(382,205,l),
(382,285,l),
(176,285,l),
(176,412,l),
(404,412,l),
(404,492,l),
(67,492,l),
(67,0,l)
);
}
);
vertWidth = 0;
width = 433;
}
);
unicode = 7431;
},
{
color = 3;
glyphname = Fsmall;
kernLeft = Ismall;
kernRight = Fsmall;
lastChange = "2026-02-24 21:31:33 +0000";
layers = (
{
anchors = (
{
name = bottom;
pos = (228,0);
},
{
name = top;
pos = (228,483);
}
);
layerId = "AE3FEF6D-3AA7-4252-B349-D2606A6A3B4C";
shapes = (
{
closed = 1;
nodes = (
(105,0,l),
(105,228,l),
(343,228,l),
(343,254,l),
(105,254,l),
(105,458,l),
(362,458,l),
(362,483,l),
(77,483,l),
(77,0,l)
);
}
);
vertWidth = 0;
width = 398;
},
{
anchors = (
{
name = bottom;
pos = (235,0);
},
{
name = top;
pos = (235,500);
}
);
layerId = "3FD7D777-D61F-402B-A269-3A472D550581";
shapes = (
{
closed = 1;
nodes = (
(228,0,l),
(228,173,l),
(402,173,l),
(402,277,l),
(228,277,l),
(228,365,l),
(428,365,l),
(428,500,l),
(39,500,l),
(39,0,l)
);
}
);
vertWidth = 0;
width = 435;
},
{
anchors = (
{
name = bottom;
pos = (241,0);
},
{
name = top;
pos = (241,492);
}
);
layerId = m003;
shapes = (
{
closed = 1;
nodes = (
(176,0,l),
(176,194,l),
(382,194,l),
(382,274,l),
(176,274,l),
(176,412,l),
(404,412,l),
(404,492,l),
(67,492,l),
(67,0,l)
);
}
);
vertWidth = 0;
width = 429;
}
);
unicode = 42800;
},
{
color = 3;
glyphname = Gsmall;
kernLeft = Gsmall;
lastChange = "2026-02-24 21:32:01 +0000";
layers = (
{
anchors = (
{
name = "T-bar";
pos = (351,137);
},
{
name = bottom;
pos = (270,-5);
},
{
name = top;
pos = (253,489);
}
);
layerId = "AE3FEF6D-3AA7-4252-B349-D2606A6A3B4C";
shapes = (
{
closed = 1;
nodes = (
(346,-5,o),
(405,20,o),
(451,70,c),
(451,237,l),
(254,237,l),
(254,210,l),
(423,210,l),
(423,80,l),
(384,42,o),
(333,22,o),
(269,22,cs),
(138,22,o),
(64,98,o),
(64,239,cs),
(64,376,o),
(139,461,o),
(252,461,cs),
(322,461,o),
(389,421,o),
(413,358,c),
(440,368,l),
(410,441,o),
(334,489,o),
(253,489,cs),
(121,489,o),
(35,392,o),
(35,239,cs),
(35,83,o),
(120,-5,o),
(270,-5,cs)
);
}
);
vertWidth = 0;
width = 490;
},
{
anchors = (
{
name = "T-bar";
pos = (485,167);
},
{
name = bottom;
pos = (308,-10);
},
{
name = top;
pos = (288,510);
}
);
layerId = "3FD7D777-D61F-402B-A269-3A472D550581";
shapes = (
{
closed = 1;
nodes = (
(423,-10,o),
(517,32,o),
(580,105,c),
(580,298,l),
(291,298,l),
(291,201,l),
(396,201,l),
(396,161,l),
(381,135,o),
(351,123,o),
(309,123,cs),
(237,123,o),
(206,156,o),
(206,249,cs),
(206,327,o),
(227,376,o),
(296,376,cs),
(346,376,o),
(375,352,o),
(400,321,c),
(548,371,l),
(511,450,o),
(431,510,o),
(288,510,cs),
(109,510,o),
(18,404,o),
(18,249,cs),
(18,82,o),
(112,-10,o),
(308,-10,cs)
);
}
);
vertWidth = 0;
width = 596;
},
{
anchors = (
{
name = "T-bar";
pos = (423,152);
},
{
name = bottom;
pos = (294,-7);
},
{
name = top;
pos = (276,500);
}
);
layerId = m003;
shapes = (
{
closed = 1;
nodes = (
(390,-7,o),
(466,26,o),
(521,88,c),
(521,277,l),
(278,277,l),
(278,197,l),
(415,197,l),
(415,121,l),
(388,89,o),
(347,73,o),
(294,73,cs),
(193,73,o),
(140,127,o),
(140,244,cs),
(140,352,o),
(188,419,o),
(279,419,cs),
(339,419,o),
(387,387,o),
(412,340,c),
(499,370,l),
(466,445,o),
(388,500,o),
(276,500,cs),
(120,500,o),
(32,398,o),
(32,244,cs),
(32,83,o),
(121,-7,o),
(294,-7,cs)
);
}
);
vertWidth = 0;
width = 553;
}
);
unicode = 610;
},
{
color = 3;
glyphname = Hsmall;
kernLeft = Ismall;
lastChange = "2026-02-24 21:32:14 +0000";
layers = (
{
anchors = (
{
name = "H-bar";
pos = (260,359);
},
{
name = bottom;
pos = (260,0);
},
{
name = top;
pos = (260,483);
}
);
layerId = "AE3FEF6D-3AA7-4252-B349-D2606A6A3B4C";
shapes = (
{
closed = 1;
nodes = (
(104,0,l),
(104,228,l),
(417,228,l),
(417,0,l),
(445,0,l),
(445,483,l),
(417,483,l),
(417,256,l),
(104,256,l),
(104,483,l),
(76,483,l),
(76,0,l)
);
}
);
vertWidth = 0;
width = 521;
},
{
anchors = (
{
name = "H-bar";
pos = (317,401);
},
{
name = bottom;
pos = (317,0);
},
{
name = top;
pos = (317,500);
}
);
layerId = "3FD7D777-D61F-402B-A269-3A472D550581";
shapes = (
{
closed = 1;
nodes = (
(233,0,l),
(233,185,l),
(407,185,l),
(407,0,l),
(594,0,l),
(594,500,l),
(407,500,l),
(407,316,l),
(233,316,l),
(233,500,l),
(44,500,l),
(44,0,l)
);
}
);
vertWidth = 0;
width = 637;
},
{
anchors = (
{
name = "H-bar";
pos = (298,380);
},
{
name = bottom;
pos = (298,0);
},
{
name = top;
pos = (298,492);
}
);
layerId = m003;
shapes = (
{
closed = 1;
nodes = (
(178,0,l),
(178,206,l),
(421,206,l),
(421,0,l),
(529,0,l),
(529,492,l),
(421,492,l),
(421,286,l),
(178,286,l),
(178,492,l),
(69,492,l),
(69,0,l)
);
}
);
vertWidth = 0;
width = 597;
}
);
unicode = 668;
},
{
color = 3;
glyphname = Ismall;
kernLeft = Ismall;
lastChange = "2026-02-24 20:56:17 +0000";
layers = (
{
anchors = (
{
name = bottom;
pos = (103,0);
},
{
name = bottom.alt;
pos = (103,0);
},
{
name = top;
pos = (103,483);
}
);
layerId = "AE3FEF6D-3AA7-4252-B349-D2606A6A3B4C";
shapes = (
{
closed = 1;
nodes = (
(119,483,l),
(89,483,l),
(89,0,l),
(119,0,l)
);
}
);
width = 208;
},
{
anchors = (
{
name = bottom;
pos = (137,0);
},
{
name = bottom.alt;
pos = (137,0);
},
{
name = top;
pos = (137,499);
}
);
layerId = "3FD7D777-D61F-402B-A269-3A472D550581";
shapes = (
{
closed = 1;
nodes = (
(232,500,l),
(42,500,l),
(42,0,l),
(232,0,l)
);
}
);
width = 273;
},
{
anchors = (
{
name = bottom;
pos = (136,0);
},
{
name = bottom.alt;
pos = (136,0);
},
{
name = top;
pos = (136,491);
}
);
layerId = m003;
shapes = (
{
closed = 1;
nodes = (
(192,492,l),
(82,492,l),
(82,0,l),
(192,0,l)
);
}
);
width = 273;
}
);
metricLeft = idotless;
metricRight = idotless;
unicode = 618;
},
{
color = 3;
glyphname = Jsmall;
kernLeft = Jsmall;
lastChange = "2026-02-24 21:32:30 +0000";
layers = (
{
anchors = (
{
name = bottom;
pos = (192,-5);
},
{
name = top;
pos = (329,483);
}
);
layerId = "AE3FEF6D-3AA7-4252-B349-D2606A6A3B4C";
shapes = (
{
closed = 1;
nodes = (
(290,-5,o),
(345,45,o),
(345,124,cs),
(345,483,l),
(315,483,l),
(315,124,ls),
(315,61,o),
(273,20,o),
(192,20,cs),
(110,20,o),
(67,61,o),
(67,124,c),
(38,124,l),
(38,45,o),
(94,-5,o),
(192,-5,cs)
);
}
);
vertWidth = 0;
width = 421;
},
{
anchors = (
{
name = bottom;
pos = (222,-10);
},
{
name = top;
pos = (356,500);
}
);
layerId = "3FD7D777-D61F-402B-A269-3A472D550581";
shapes = (
{
closed = 1;
nodes = (
(366,-10,o),
(450,57,o),
(450,166,cs),
(450,500,l),
(261,500,l),
(261,166,ls),
(261,138,o),
(246,121,o),
(212,121,cs),
(177,121,o),
(163,137,o),
(163,164,c),
(4,164,l),
(-7,56,o),
(73,-10,o),
(222,-10,cs)
);
}
);
vertWidth = 0;
width = 487;
},
{
anchors = (
{
name = bottom;
pos = (210,-7);
},
{
name = top;
pos = (346,492);
}
);
layerId = m003;
shapes = (
{
closed = 1;
nodes = (
(331,-7,o),
(401,51,o),
(401,145,cs),
(401,492,l),
(291,492,l),
(291,145,ls),
(291,101,o),
(263,73,o),
(205,73,cs),
(147,73,o),
(118,100,o),
(118,144,c),
(24,144,l),
(19,51,o),
(87,-7,o),
(210,-7,cs)
);
}
);
vertWidth = 0;
width = 466;
}
);
unicode = 7434;
},
{
color = 3;
glyphname = Ksmall;
kernLeft = Ismall;
lastChange = "2026-02-24 21:32:47 +0000";
layers = (
{
anchors = (
{
name = bottom;
pos = (229,0);
},
{
name = top;
pos = (229,483);
}
);
layerId = "AE3FEF6D-3AA7-4252-B349-D2606A6A3B4C";
shapes = (
{
closed = 1;
nodes = (
(105,0,l),
(105,226,l),
(175,226,l),
(379,0,l),
(418,0,l),
(195,242,l),
(418,483,l),
(379,483,l),
(175,257,l),
(105,257,l),
(105,483,l),
(76,483,l),
(76,0,l)
);
}
);
vertWidth = 0;
width = 428;
},
{
anchors = (
{
name = bottom;
pos = (289,0);
},
{
name = top;
pos = (289,500);
}
);
layerId = "3FD7D777-D61F-402B-A269-3A472D550581";
shapes = (
{
closed = 1;
nodes = (
(224,0,l),
(224,185,l),
(233,185,l),
(363,0,l),
(576,0,l),
(352,249,l),
(575,500,l),
(364,500,l),
(233,327,l),
(224,327,l),
(224,500,l),
(35,500,l),
(35,0,l)
);
}
);
vertWidth = 0;
width = 566;
},
{
anchors = (
{
name = bottom;
pos = (268,0);
},
{
name = top;
pos = (268,492);
}
);
layerId = m003;
shapes = (
{
closed = 1;
nodes = (
(174,0,l),
(174,209,l),
(213,209,l),
(380,0,l),
(506,0,l),
(283,246,l),
(506,492,l),
(381,492,l),
(213,289,l),
(174,289,l),
(174,492,l),
(65,492,l),
(65,0,l)
);
}
);
vertWidth = 0;
width = 506;
}
);
unicode = 7435;
},
{
color = 3;
glyphname = Lsmall;
kernLeft = Ismall;
kernRight = Lsmall;
lastChange = "2026-02-24 21:32:53 +0000";
layers = (
{
anchors = (
{
name = "L-slash";
pos = (117,253);
},
{
name = bottom;
pos = (285,0);
},
{
name = bottom.alt;
pos = (398,0);
},
{
name = middle_dot_I;
pos = (282,242);
},
{
name = top;
pos = (285,483);
},
{
name = top.alt;
pos = (222,483);
}
);
layerId = "AE3FEF6D-3AA7-4252-B349-D2606A6A3B4C";
shapes = (
{
closed = 1;
nodes = (
(414,0,l),
(414,25,l),
(132,25,l),
(132,483,l),
(102,483,l),
(102,0,l)
);
}
);
vertWidth = 0;
width = 436;
},
{
anchors = (
{
name = "L-slash";
pos = (140,316);
},
{
name = bottom;
pos = (251,0);
},
{
name = bottom.alt;
pos = (402,0);
},
{
name = middle_dot_I;
pos = (343,228);
},
{
name = top;
pos = (299,500);
},
{
name = top.alt;
pos = (201,500);
}
);
layerId = "3FD7D777-D61F-402B-A269-3A472D550581";
shapes = (
{
closed = 1;
nodes = (
(442,0,l),
(442,134,l),
(234,134,l),
(234,500,l),
(47,500,l),
(47,0,l)
);
}
);
vertWidth = 0;
width = 459;
},
{
anchors = (
{
name = "L-slash";
pos = (141,285);
},
{
name = bottom;
pos = (280,0);
},
{
name = bottom.alt;
pos = (412,0);
},
{
name = middle_dot_I;
pos = (325,235);
},
{
name = top;
pos = (304,492);
},
{
name = top.alt;
pos = (224,492);
}
);
layerId = m003;
shapes = (
{
closed = 1;
nodes = (
(440,0,l),
(440,80,l),
(195,80,l),
(195,492,l),
(87,492,l),
(87,0,l)
);
}
);
vertWidth = 0;
width = 463;
}
);
unicode = 671;
},
{
color = 3;
glyphname = Msmall;
kernLeft = Ismall;
lastChange = "2026-02-24 21:33:03 +0000";
layers = (
{
anchors = (
{
name = bottom;
pos = (324,0);
},
{
name = top;
pos = (324,483);
}
);
layerId = "AE3FEF6D-3AA7-4252-B349-D2606A6A3B4C";
shapes = (
{
closed = 1;
nodes = (
(100,0,l),
(100,466,l),
(105,466,l),
(297,0,l),
(351,0,l),
(564,469,l),
(570,469,l),
(570,0,l),
(599,0,l),
(599,483,l),
(539,483,l),
(325,19,l),
(322,19,l),
(133,483,l),
(72,483,l),
(72,0,l)
);
}
);
vertWidth = 0;
width = 671;
},
{
anchors = (
{
name = bottom;
pos = (371,0);
},
{
name = top;
pos = (371,500);
}
);
layerId = "3FD7D777-D61F-402B-A269-3A472D550581";
shapes = (
{
closed = 1;
nodes = (
(220,0,l),
(220,234,l),
(226,234,l),
(312,0,l),
(428,0,l),
(515,233,l),
(521,233,l),
(521,0,l),
(709,0,l),
(709,500,l),
(494,500,l),
(374,178,l),
(366,178,l),
(246,500,l),
(33,500,l),
(33,0,l)
);
}
);
vertWidth = 0;
width = 741;
},
{
anchors = (
{
name = bottom;
pos = (356,0);
},
{
name = top;
pos = (356,492);
}
);
layerId = m003;
shapes = (
{
closed = 1;
nodes = (
(168,0,l),
(168,330,l),
(174,330,l),
(313,0,l),
(398,0,l),
(548,331,l),
(554,331,l),
(554,0,l),
(662,0,l),
(662,492,l),
(525,492,l),
(358,119,l),
(352,119,l),
(198,492,l),
(61,492,l),
(61,0,l)
);
}
);
vertWidth = 0;
width = 722;
}
);
unicode = 7437;
},
{
color = 3;
glyphname = Nsmall;
kernLeft = Ismall;
lastChange = "2026-02-24 21:33:11 +0000";
layers = (
{
anchors = (
{
name = bottom;
pos = (249,0);
},
{
name = top;
pos = (277,483);
}
);
layerId = "AE3FEF6D-3AA7-4252-B349-D2606A6A3B4C";
shapes = (
{
closed = 1;
nodes = (
(104,0,l),
(104,459,l),
(109,459,l),
(396,0,l),
(447,0,l),
(447,483,l),
(418,483,l),
(418,24,l),
(413,24,l),
(127,483,l),
(76,483,l),
(76,0,l)
);
}
);
vertWidth = 0;
width = 522;
},
{
anchors = (
{
name = bottom;
pos = (314,0);
},
{
name = top;
pos = (329,500);
}
);
layerId = "3FD7D777-D61F-402B-A269-3A472D550581";
shapes = (
{
closed = 1;
nodes = (
(232,0,l),
(232,248,l),
(236,248,l),
(427,0,l),
(602,0,l),
(602,500,l),
(414,500,l),
(414,250,l),
(408,250,l),
(218,500,l),
(44,500,l),
(44,0,l)
);
}
);
vertWidth = 0;
width = 644;
},
{
anchors = (
{
name = bottom;
pos = (291,0);
},
{
name = top;
pos = (312,492);
}
);
layerId = m003;
shapes = (
{
closed = 1;
nodes = (
(177,0,l),
(177,334,l),
(182,334,l),
(421,0,l),
(534,0,l),
(534,492,l),
(425,492,l),
(425,157,l),
(420,157,l),
(182,492,l),
(69,492,l),
(69,0,l)
);
}
);
vertWidth = 0;
width = 601;
}
);
unicode = 628;
},
{
color = 3;
glyphname = Osmall;
kernLeft = Gsmall;
lastChange = "2026-02-24 21:33:37 +0000";
layers = (
{
anchors = (
{
name = "O-slash";
pos = (253,234);
},
{
name = bottom;
pos = (253,-5);
},
{
name = bottom.alt;
pos = (253,-5);
},
{
name = top;
pos = (253,489);
},
{
name = top.alt;
pos = (339,453);
}
);
layerId = "AE3FEF6D-3AA7-4252-B349-D2606A6A3B4C";
shapes = (
{
closed = 1;
nodes = (
(394,-5,o),
(471,98,o),
(471,242,cs),
(471,386,o),
(394,489,o),
(253,489,cs),
(112,489,o),
(34,386,o),
(34,242,cs),
(34,98,o),
(112,-5,o),
(253,-5,cs)
);
},
{
closed = 1;
nodes = (
(121,20,o),
(61,120,o),
(61,242,cs),
(61,363,o),
(121,463,o),
(253,463,cs),
(385,463,o),
(445,363,o),
(445,242,cs),
(445,121,o),
(385,20,o),
(253,20,cs)
);
}
);
vertWidth = 0;
width = 505;
},
{
anchors = (
{
name = "O-slash";
pos = (294,245);
},
{
name = bottom;
pos = (294,-10);
},
{
name = bottom.alt;
pos = (294,-10);
},
{
name = top;
pos = (294,510);
},
{
name = top.alt;
pos = (389,431);
}
);
layerId = "3FD7D777-D61F-402B-A269-3A472D550581";
shapes = (
{
closed = 1;
nodes = (
(479,-10,o),
(568,73,o),
(568,249,cs),
(568,425,o),
(479,510,o),
(294,510,cs),
(109,510,o),
(18,425,o),
(18,249,cs),
(18,73,o),
(109,-10,o),
(294,-10,cs)
);
},
{
closed = 1;
nodes = (
(235,122,o),
(206,162,o),
(206,249,cs),
(206,335,o),
(235,375,o),
(294,375,cs),
(353,375,o),
(383,335,o),
(383,249,cs),
(383,162,o),
(353,122,o),
(294,122,cs)
);
}
);
vertWidth = 0;
width = 586;
},
{
anchors = (
{
name = "O-slash";
pos = (278,240);
},
{
name = bottom;
pos = (278,-7);
},
{
name = bottom.alt;
pos = (278,-7);
},
{
name = top;
pos = (278,500);
},
{
name = top.alt;
pos = (368,442);
}
);
layerId = m003;
shapes = (
{
closed = 1;
nodes = (
(441,-7,o),
(524,86,o),
(524,246,cs),
(524,406,o),
(441,500,o),
(278,500,cs),
(115,500,o),
(30,406,o),
(30,246,cs),
(30,86,o),
(115,-7,o),
(278,-7,cs)
);
},
{
closed = 1;
nodes = (
(182,73,o),
(138,142,o),
(138,246,cs),
(138,348,o),
(182,417,o),
(278,417,cs),
(373,417,o),
(418,348,o),
(418,246,cs),
(418,143,o),
(373,73,o),
(278,73,cs)
);
}
);
vertWidth = 0;
width = 554;
}
);
unicode = 7439;
},
{
color = 3;
glyphname = Psmall;
kernLeft = Ismall;
kernRight = Psmall;
lastChange = "2026-02-24 21:35:00 +0000";
layers = (
{
anchors = (
{
name = bottom;
pos = (241,0);
},
{
name = top;
pos = (241,483);
}
);
layerId = "AE3FEF6D-3AA7-4252-B349-D2606A6A3B4C";
shapes = (
{
closed = 1;
nodes = (
(105,0,l),
(105,207,l),
(241,207,ls),
(348,207,o),
(415,250,o),
(415,345,cs),
(415,450,o),
(348,483,o),
(241,483,cs),
(76,483,l),
(76,0,l)
);
},
{
closed = 1;
nodes = (
(105,458,l),
(241,458,ls),
(338,458,o),
(385,432,o),
(385,345,cs),
(385,268,o),
(338,232,o),
(241,232,cs),
(105,232,l)
);
}
);
vertWidth = 0;
width = 429;
},
{
anchors = (
{
name = bottom;
pos = (279,0);
},
{
name = top;
pos = (279,500);
}
);
layerId = "3FD7D777-D61F-402B-A269-3A472D550581";
shapes = (
{
closed = 1;
nodes = (
(227,0,l),
(227,167,l),
(302,167,ls),
(444,167,o),
(525,228,o),
(525,333,cs),
(525,436,o),
(445,500,o),
(302,500,cs),
(37,500,l),
(37,0,l)
);
},
{
closed = 1;
nodes = (
(227,388,l),
(269,388,ls),
(316,388,o),
(337,373,o),
(337,335,cs),
(337,296,o),
(316,278,o),
(269,278,cs),
(227,278,l)
);
}
);
vertWidth = 0;
width = 540;
},
{
anchors = (
{
name = bottom;
pos = (269,0);
},
{
name = top;
pos = (269,492);
}
);
layerId = m003;
shapes = (
{
closed = 1;
nodes = (
(175,0,l),
(175,186,l),
(281,186,ls),
(405,186,o),
(479,239,o),
(479,339,cs),
(479,443,o),
(406,492,o),
(281,492,cs),
(66,492,l),
(66,0,l)
);
},
{
closed = 1;
nodes = (
(175,412,l),
(264,412,ls),
(336,412,o),
(370,395,o),
(370,340,cs),
(370,289,o),
(336,266,o),
(264,266,cs),
(175,266,l)
);
}
);
vertWidth = 0;
width = 497;
}
);
unicode = 7448;
},
{
color = 3;
glyphname = Rsmall;
lastChange = "2026-02-24 21:34:57 +0000";
layers = (
{
anchors = (
{
name = bottom;
pos = (241,0);
},
{
name = top;
pos = (241,483);
}
);
layerId = "AE3FEF6D-3AA7-4252-B349-D2606A6A3B4C";
shapes = (
{
closed = 1;
nodes = (
(105,0,l),
(105,207,l),
(241,207,ls),
(348,207,o),
(415,250,o),
(415,345,cs),
(415,450,o),
(348,483,o),
(241,483,cs),
(76,483,l),
(76,0,l)
);
},
{
closed = 1;
nodes = (
(451,0,l),
(322,225,l),
(292,225,l),
(419,0,l)
);
},
{
closed = 1;
nodes = (
(105,458,l),
(241,458,ls),
(338,458,o),
(385,432,o),
(385,345,cs),
(385,268,o),
(338,232,o),
(241,232,cs),
(105,232,l)
);
}
);
vertWidth = 0;
width = 490;
},
{
anchors = (
{
name = bottom;
pos = (284,0);
},
{
name = top;
pos = (284,500);
}
);
background = {
shapes = (
{
pos = (14,0);
ref = R;
scale = (0.7553,0.7553);
}
);
};
layerId = "3FD7D777-D61F-402B-A269-3A472D550581";
shapes = (
{
closed = 1;
nodes = (
(242,0,l),
(242,167,l),
(317,167,ls),
(458,167,o),
(539,228,o),
(539,333,cs),
(539,436,o),
(460,500,o),
(317,500,cs),
(52,500,l),
(52,0,l)
);
},
{
closed = 1;
nodes = (
(584,0,l),
(457,227,l),
(294,227,l),
(400,0,l)
);
},
{
closed = 1;
nodes = (
(242,388,l),
(284,388,ls),
(331,388,o),
(352,373,o),
(352,335,cs),
(352,296,o),
(331,278,o),
(284,278,cs),
(242,278,l)
);
}
);
vertWidth = 0;
width = 568;
},
{
anchors = (
{
name = bottom;
pos = (273,0);
},
{
name = top;
pos = (273,492);
}
);
layerId = m003;
shapes = (
{
closed = 1;
nodes = (
(183,0,l),
(183,186,l),
(289,186,ls),
(413,186,o),
(487,239,o),
(487,339,cs),
(487,443,o),
(414,492,o),
(289,492,cs),
(74,492,l),
(74,0,l)
);
},
{
closed = 1;
nodes = (
(528,0,l),
(400,226,l),
(303,226,l),
(420,0,l)
);
},
{
closed = 1;
nodes = (
(183,412,l),
(272,412,ls),
(344,412,o),
(378,395,o),
(378,340,cs),
(378,289,o),
(344,266,o),
(272,266,cs),
(183,266,l)
);
}
);
vertWidth = 0;
width = 541;
}
);
unicode = 640;
},
{
color = 3;
glyphname = Ssmall;
kernLeft = Ssmall;
lastChange = "2026-02-25 14:09:11 +0000";
layers = (
{
anchors = (
{
name = bottom;
pos = (209,-5);
},
{
name = top;
pos = (200,489);
}
);
layerId = "AE3FEF6D-3AA7-4252-B349-D2606A6A3B4C";
shapes = (
{
closed = 1;
nodes = (
(299,-5,o),
(375,38,o),
(375,120,cs),
(375,205,o),
(310,232,o),
(212,260,cs),
(120,286,o),
(76,306,o),
(76,368,cs),
(76,434,o),
(125,464,o),
(199,464,cs),
(273,464,o),
(333,428,o),
(333,356,c),
(364,356,l),
(364,437,o),
(285,489,o),
(200,489,cs),
(112,489,o),
(46,441,o),
(46,367,cs),
(46,285,o),
(116,257,o),
(203,231,cs),
(302,202,o),
(345,187,o),
(345,118,cs),
(345,47,o),
(285,21,o),
(209,21,cs),
(132,21,o),
(64,52,o),
(64,127,c),
(36,127,l),
(36,41,o),
(121,-5,o),
(209,-5,cs)
);
}
);
vertWidth = 0;
width = 409;
},
{
anchors = (
{
name = bottom;
pos = (259,-10);
},
{
name = top;
pos = (269,510);
}
);
layerId = "3FD7D777-D61F-402B-A269-3A472D550581";
shapes = (
{
closed = 1;
nodes = (
(409,-10,o),
(509,50,o),
(509,151,cs),
(509,233,o),
(444,261,o),
(259,311,cs),
(239,317,o),
(214,324,o),
(214,345,cs),
(214,364,o),
(234,379,o),
(271,379,cs),
(305,379,o),
(325,365,o),
(325,338,c),
(502,338,l),
(502,444,o),
(413,510,o),
(269,510,cs),
(128,510,o),
(33,447,o),
(33,348,cs),
(33,263,o),
(103,231,o),
(262,185,cs),
(307,172,o),
(327,167,o),
(327,150,cs),
(327,130,o),
(299,120,o),
(261,120,cs),
(219,120,o),
(197,133,o),
(197,173,c),
(20,173,l),
(20,52,o),
(106,-10,o),
(259,-10,cs)
);
}
);
vertWidth = 0;
width = 526;
},
{
anchors = (
{
name = bottom;
pos = (239,-7);
},
{
name = top;
pos = (238,500);
}
);
layerId = m003;
shapes = (
{
closed = 1;
nodes = (
(366,-7,o),
(447,49,o),
(447,140,cs),
(447,213,o),
(394,251,o),
(262,288,cs),
(171,313,o),
(150,330,o),
(150,360,cs),
(150,398,o),
(183,421,o),
(238,421,cs),
(299,421,o),
(334,393,o),
(334,347,c),
(438,347,l),
(438,438,o),
(358,500,o),
(238,500,cs),
(123,500,o),
(45,443,o),
(45,355,cs),
(45,283,o),
(98,241,o),
(244,198,cs),
(324,175,o),
(341,162,o),
(341,134,cs),
(341,94,o),
(305,72,o),
(242,72,cs),
(173,72,o),
(136,99,o),
(136,150,c),
(33,150,l),
(33,53,o),
(111,-7,o),
(241,-7,cs)
);
}
);
vertWidth = 0;
width = 477;
}
);
unicode = 42801;
},
{
color = 3;
glyphname = Tsmall;
kernLeft = Tsmall;
kernRight = Tsmall;
lastChange = "2026-02-24 21:36:42 +0000";
layers = (
{
anchors = (
{
name = "T-bar";
pos = (233,314);
},
{
name = bottom;
pos = (234,0);
},
{
name = top;
pos = (234,483);
}
);
layerId = "AE3FEF6D-3AA7-4252-B349-D2606A6A3B4C";
shapes = (
{
closed = 1;
nodes = (
(248,0,l),
(248,458,l),
(432,458,l),
(432,483,l),
(34,483,l),
(34,458,l),
(218,458,l),
(218,0,l)
);
}
);
vertWidth = 0;
width = 466;
},
{
anchors = (
{
name = "T-bar";
pos = (270,270);
},
{
name = bottom;
pos = (270,0);
},
{
name = top;
pos = (270,500);
}
);
layerId = "3FD7D777-D61F-402B-A269-3A472D550581";
shapes = (
{
closed = 1;
nodes = (
(365,0,l),
(365,356,l),
(523,356,l),
(523,500,l),
(20,500,l),
(20,356,l),
(176,356,l),
(176,0,l)
);
}
);
vertWidth = 0;
width = 542;
},
{
anchors = (
{
name = "T-bar";
pos = (257,292);
},
{
name = bottom;
pos = (257,0);
},
{
name = top;
pos = (257,492);
}
);
layerId = m003;
shapes = (
{
closed = 1;
nodes = (
(312,0,l),
(312,412,l),
(483,412,l),
(483,492,l),
(32,492,l),
(32,412,l),
(202,412,l),
(202,0,l)
);
}
);
vertWidth = 0;
width = 513;
}
);
unicode = 7451;
},
{
color = 3;
glyphname = Usmall;
kernLeft = Ismall;
lastChange = "2026-02-24 21:36:54 +0000";
layers = (
{
anchors = (
{
name = bottom;
pos = (232,-5);
},
{
name = bottom.alt;
pos = (232,-5);
},
{
name = top;
pos = (232,483);
},
{
name = top.alt;
pos = (395,461);
}
);
layerId = "AE3FEF6D-3AA7-4252-B349-D2606A6A3B4C";
shapes = (
{
closed = 1;
nodes = (
(342,-5,o),
(411,62,o),
(411,167,cs),
(411,483,l),
(383,483,l),
(383,167,ls),
(383,77,o),
(324,19,o),
(232,19,cs),
(140,19,o),
(80,77,o),
(80,167,cs),
(80,483,l),
(52,483,l),
(52,167,ls),
(52,61,o),
(121,-5,o),
(232,-5,cs)
);
}
);
vertWidth = 0;
width = 461;
},
{
anchors = (
{
name = bottom;
pos = (292,-10);
},
{
name = bottom.alt;
pos = (292,-6);
},
{
name = top;
pos = (291,499);
},
{
name = top.alt;
pos = (492,415);
}
);
layerId = "3FD7D777-D61F-402B-A269-3A472D550581";
shapes = (
{
closed = 1;
nodes = (
(460,-10,o),
(551,64,o),
(551,202,cs),
(551,500,l),
(376,500,l),
(376,209,ls),
(376,152,o),
(349,124,o),
(292,124,cs),
(235,124,o),
(207,151,o),
(207,209,cs),
(207,500,l),
(33,500,l),
(33,202,ls),
(33,64,o),
(123,-10,o),
(292,-10,cs)
);
}
);
vertWidth = 0;
width = 582;
},
{
anchors = (
{
name = bottom;
pos = (268,-7);
},
{
name = bottom.alt;
pos = (268,-5);
},
{
name = top;
pos = (268,491);
},
{
name = top.alt;
pos = (450,438);
}
);
layerId = m003;
shapes = (
{
closed = 1;
nodes = (
(407,-7,o),
(487,63,o),
(487,185,cs),
(487,492,l),
(386,492,l),
(386,188,ls),
(386,115,o),
(343,73,o),
(268,73,cs),
(194,73,o),
(150,114,o),
(150,188,cs),
(150,492,l),
(49,492,l),
(49,185,ls),
(49,63,o),
(128,-7,o),
(268,-7,cs)
);
}
);
vertWidth = 0;
width = 534;
}
);
unicode = 7452;
},
{
color = 3;
glyphname = Vsmall;
kernLeft = Vsmall;
kernRight = v;
lastChange = "2026-02-24 20:52:23 +0000";
layers = (
{
anchors = (
{
name = bottom;
pos = (210,0);
},
{
name = top;
pos = (210,483);
}
);
layerId = "AE3FEF6D-3AA7-4252-B349-D2606A6A3B4C";
shapes = (
{
closed = 1;
nodes = (
(231,0,l),
(420,483,l),
(389,483,l),
(212,19,l),
(207,19,l),
(30,483,l),
(-1,483,l),
(188,0,l)
);
}
);
vertWidth = 0;
width = 419;
},
{
anchors = (
{
name = bottom;
pos = (270,0);
},
{
name = top;
pos = (270,500);
}
);
layerId = "3FD7D777-D61F-402B-A269-3A472D550581";
shapes = (
{
closed = 1;
nodes = (
(379,0,l),
(559,500,l),
(366,500,l),
(274,165,l),
(270,165,l),
(175,500,l),
(-18,500,l),
(166,0,l)
);
}
);
vertWidth = 0;
width = 540;
},
{
anchors = (
{
name = bottom;
pos = (241,0);
},
{
name = top;
pos = (241,492);
}
);
layerId = m003;
shapes = (
{
closed = 1;
nodes = (
(306,0,l),
(491,492,l),
(379,492,l),
(244,92,l),
(240,92,l),
(104,492,l),
(-8,492,l),
(178,0,l)
);
}
);
vertWidth = 0;
width = 482;
}
);
unicode = 7456;
},
{
color = 3;
glyphname = Wsmall;
kernLeft = Vsmall;
lastChange = "2026-02-24 20:02:30 +0000";
layers = (
{
anchors = (
{
name = bottom;
pos = (336,0);
},
{
name = top;
pos = (336,483);
}
);
layerId = "AE3FEF6D-3AA7-4252-B349-D2606A6A3B4C";
shapes = (
{
closed = 1;
nodes = (
(208,0,l),
(333,466,l),
(338,466,l),
(461,0,l),
(518,0,l),
(663,483,l),
(632,483,l),
(491,14,l),
(486,14,l),
(362,483,l),
(310,483,l),
(185,14,l),
(180,14,l),
(39,483,l),
(9,483,l),
(154,0,l)
);
}
);
vertWidth = 0;
width = 672;
},
{
anchors = (
{
name = bottom;
pos = (390,0);
},
{
name = top;
pos = (390,500);
}
);
layerId = "3FD7D777-D61F-402B-A269-3A472D550581";
shapes = (
{
closed = 1;
nodes = (
(306,0,l),
(387,247,l),
(392,247,l),
(473,0,l),
(654,0,l),
(789,500,l),
(613,500,l),
(548,213,l),
(543,213,l),
(458,500,l),
(322,500,l),
(237,213,l),
(233,213,l),
(166,500,l),
(-9,500,l),
(116,0,l)
);
}
);
vertWidth = 0;
width = 779;
},
{
anchors = (
{
name = bottom;
pos = (363,0);
},
{
name = top;
pos = (363,492);
}
);
layerId = m003;
shapes = (
{
closed = 1;
nodes = (
(257,0,l),
(360,357,l),
(365,357,l),
(467,0,l),
(586,0,l),
(726,492,l),
(623,492,l),
(520,114,l),
(515,114,l),
(410,492,l),
(316,492,l),
(211,114,l),
(207,114,l),
(103,492,l),
(0,492,l),
(135,0,l)
);
}
);
vertWidth = 0;
width = 726;
}
);
unicode = 7457;
},
{
color = 3;
glyphname = Ysmall;
kernLeft = Ysmall;
kernRight = Ysmall;
lastChange = "2026-02-24 20:52:23 +0000";
layers = (
{
anchors = (
{
name = bottom;
pos = (197,0);
},
{
name = top;
pos = (197,483);
}
);
layerId = "AE3FEF6D-3AA7-4252-B349-D2606A6A3B4C";
shapes = (
{
closed = 1;
nodes = (
(211,0,l),
(211,208,l),
(400,483,l),
(368,483,l),
(196,236,l),
(25,483,l),
(-8,483,l),
(180,208,l),
(180,0,l)
);
}
);
vertWidth = 0;
width = 393;
},
{
anchors = (
{
name = bottom;
pos = (290,0);
},
{
name = top;
pos = (290,500);
}
);
layerId = "3FD7D777-D61F-402B-A269-3A472D550581";
shapes = (
{
closed = 1;
nodes = (
(387,0,l),
(387,214,l),
(599,500,l),
(381,500,l),
(291,351,l),
(201,500,l),
(-18,500,l),
(197,214,l),
(197,0,l)
);
}
);
vertWidth = 0;
width = 581;
},
{
anchors = (
{
name = bottom;
pos = (246,0);
},
{
name = top;
pos = (246,492);
}
);
layerId = m003;
shapes = (
{
closed = 1;
nodes = (
(301,0,l),
(301,211,l),
(502,492,l),
(377,492,l),
(246,294,l),
(115,492,l),
(-11,492,l),
(191,211,l),
(191,0,l)
);
}
);
vertWidth = 0;
width = 491;
}
);
unicode = 655;
},
{
color = 3;
glyphname = Zsmall;
lastChange = "2026-02-24 21:37:24 +0000";
layers = (
{
anchors = (
{
name = bottom;
pos = (226,0);
},
{
name = top;
pos = (226,483);
}
);
layerId = "AE3FEF6D-3AA7-4252-B349-D2606A6A3B4C";
shapes = (
{
closed = 1;
nodes = (
(411,0,l),
(411,25,l),
(65,25,l),
(411,445,l),
(411,483,l),
(41,483,l),
(41,459,l),
(386,459,l),
(41,39,l),
(41,0,l)
);
}
);
vertWidth = 0;
width = 452;
},
{
anchors = (
{
name = bottom;
pos = (269,0);
},
{
name = top;
pos = (269,500);
}
);
layerId = "3FD7D777-D61F-402B-A269-3A472D550581";
shapes = (
{
closed = 1;
nodes = (
(501,0,l),
(501,143,l),
(264,143,l),
(501,396,l),
(501,500,l),
(33,500,l),
(33,356,l),
(269,356,l),
(33,104,l),
(33,0,l)
);
}
);
vertWidth = 0;
width = 538;
},
{
anchors = (
{
name = bottom;
pos = (254,0);
},
{
name = top;
pos = (254,492);
}
);
layerId = m003;
shapes = (
{
closed = 1;
nodes = (
(462,0,l),
(462,80,l),
(167,80,l),
(462,421,l),
(462,492,l),
(43,492,l),
(43,412,l),
(338,412,l),
(43,72,l),
(43,0,l)
);
}
);
vertWidth = 0;
width = 507;
}
);
unicode = 7458;
},
{
color = 3;
glyphname = a;
kernLeft = a;
lastChange = "2026-02-24 20:52:23 +0000";
layers = (
{
anchors = (
{
name = bottom;
pos = (258,-5);
},
{
name = bottom.alt;
pos = (406,5);
},
{
name = top;
pos = (245,488);
}
);
layerId = "AE3FEF6D-3AA7-4252-B349-D2606A6A3B4C";
shapes = (
{
pos = (6,0);
ref = uniE00B;
},
{
closed = 1;
nodes = (
(422,0,l),
(422,359,ls),
(422,438,o),
(343,488,o),
(245,488,cs),
(147,488,o),
(67,438,o),
(67,359,c),
(96,359,l),
(96,421,o),
(163,462,o),
(244,462,cs),
(326,462,o),
(393,421,o),
(393,359,cs),
(393,0,l)
);
}
);
vertWidth = 0;
width = 494;
},
{
anchors = (
{
name = bottom;
pos = (273,-6);
},
{
name = bottom.alt;
pos = (414,-1);
},
{
name = top;
pos = (262,510);
}
);
layerId = "3FD7D777-D61F-402B-A269-3A472D550581";
shapes = (
{
pos = (1,0);
ref = uniE00B;
},
{
closed = 1;
nodes = (
(503,0,l),
(503,328,ls),
(503,441,o),
(405,510,o),
(262,510,cs),
(121,510,o),
(27,442,o),
(36,328,c),
(196,328,l),
(196,361,o),
(221,379,o),
(255,379,cs),
(288,379,o),
(313,361,o),
(313,328,cs),
(313,0,l)
);
}
);
vertWidth = 0;
width = 527;
},
{
associatedMasterId = "AE3FEF6D-3AA7-4252-B349-D2606A6A3B4C";
layerId = "BA32C98D-1F8A-42D1-AC7F-B4136B9691E2";
width = 600;
},
{
anchors = (
{
name = bottom;
pos = (272,-5);
},
{
name = bottom.alt;
pos = (416,2);
},
{
name = top;
pos = (260,499);
}
);
layerId = m003;
shapes = (
{
pos = (10,0);
ref = uniE00B;
},
{
closed = 1;
nodes = (
(469,0,l),
(469,344,ls),
(469,440,o),
(380,499,o),
(260,499,cs),
(140,499,o),
(53,440,o),
(58,344,c),
(152,344,l),
(152,391,o),
(198,421,o),
(256,421,cs),
(313,421,o),
(359,391,o),
(359,344,cs),
(359,0,l)
);
}
);
vertWidth = 0;
width = 526;
},
{
associatedMasterId = m003;
layerId = "85059EF1-5E3F-4703-84E1-26535D4CB6B1";
width = 600;
}
);
metricRight = h;
unicode = 97;
},
{
glyphname = aa;
lastChange = "2026-02-24 20:52:23 +0000";
layers = (
{
layerId = "AE3FEF6D-3AA7-4252-B349-D2606A6A3B4C";
shapes = (
{
closed = 1;
nodes = (
(422,132,l),
(422,359,ls),
(422,438,o),
(343,488,o),
(245,488,cs),
(147,488,o),
(67,438,o),
(67,359,c),
(96,359,l),
(96,421,o),
(163,462,o),
(244,462,cs),
(326,462,o),
(393,421,o),
(393,359,cs),
(393,132,l),
(409,132,l)
);
},
{
pos = (6,0);
ref = uniE00B;
},
{
pos = (341,0);
ref = uniE00B;
},
{
closed = 1;
nodes = (
(757,0,l),
(757,359,ls),
(757,438,o),
(673,488,o),
(575,488,cs),
(478,488,o),
(393,438,o),
(393,359,c),
(422,359,l),
(422,421,o),
(494,462,o),
(574,462,cs),
(656,462,o),
(728,421,o),
(728,359,cs),
(728,0,l)
);
}
);
vertWidth = 0;
width = 829;
},
{
layerId = "3FD7D777-D61F-402B-A269-3A472D550581";
shapes = (
{
closed = 1;
nodes = (
(503,174,l),
(503,330,ls),
(503,443,o),
(405,512,o),
(262,512,cs),
(121,512,o),
(27,444,o),
(36,330,c),
(196,330,l),
(196,363,o),
(224,381,o),
(255,381,cs),
(286,381,o),
(313,363,o),
(313,330,cs),
(313,86,l),
(381,86,l)
);
},
{
pos = (1,0);
ref = uniE00B;
},
{
pos = (312,0);
ref = uniE00B;
},
{
closed = 1;
nodes = (
(814,0,l),
(814,330,ls),
(814,443,o),
(714,512,o),
(571,512,cs),
(430,512,o),
(334,444,o),
(343,330,c),
(503,330,l),
(503,363,o),
(533,381,o),
(564,381,cs),
(594,381,o),
(624,363,o),
(624,330,cs),
(624,0,l)
);
}
);
vertWidth = 0;
width = 838;
},
{
layerId = m003;
shapes = (
{
closed = 1;
nodes = (
(470,103,l),
(470,345,ls),
(470,441,o),
(381,500,o),
(261,500,cs),
(141,500,o),
(54,441,o),
(59,345,c),
(153,345,l),
(153,392,o),
(201,422,o),
(257,422,cs),
(313,422,o),
(360,392,o),
(360,345,cs),
(360,59,l),
(402,59,l)
);
},
{
pos = (10,0);
ref = uniE00B;
},
{
pos = (333,0);
ref = uniE00B;
},
{
closed = 1;
nodes = (
(793,0,l),
(793,345,ls),
(793,441,o),
(701,500,o),
(580,500,cs),
(461,500,o),
(371,440,o),
(375,345,c),
(470,345,l),
(470,392,o),
(521,422,o),
(576,422,cs),
(632,422,o),
(683,392,o),
(683,345,cs),
(683,0,l)
);
}
);
vertWidth = 0;
width = 850;
}
);
metricLeft = a;
metricRight = a;
unicode = 42803;
},
{
glyphname = ao;
lastChange = "2026-02-25 13:30:44 +0000";
layers = (
{
layerId = "AE3FEF6D-3AA7-4252-B349-D2606A6A3B4C";
shapes = (
{
pos = (349,0);
ref = o;
},
{
closed = 1;
nodes = (
(422,261,l),
(422,359,ls),
(422,438,o),
(343,488,o),
(245,488,cs),
(147,488,o),
(67,438,o),
(67,359,c),
(96,359,l),
(96,421,o),
(163,462,o),
(244,462,cs),
(326,462,o),
(393,421,o),
(393,359,cs),
(393,261,l)
);
},
{
closed = 1;
nodes = (
(292,-5,o),
(364,35,o),
(431,127,c),
(414,143,l),
(337,53,o),
(281,21,o),
(211,21,cs),
(134,21,o),
(87,60,o),
(87,122,cs),
(87,184,o),
(133,220,o),
(224,231,cs),
(410,254,l),
(410,280,l),
(221,257,ls),
(114,244,o),
(58,198,o),
(58,122,cs),
(58,44,o),
(117,-5,o),
(209,-5,cs)
);
}
);
vertWidth = 0;
width = 868;
},
{
layerId = "3FD7D777-D61F-402B-A269-3A472D550581";
shapes = (
{
pos = (297,0);
ref = o;
},
{
closed = 1;
nodes = (
(463,236,l),
(463,330,ls),
(463,443,o),
(385,512,o),
(253,512,cs),
(121,512,o),
(27,444,o),
(36,330,c),
(196,330,l),
(196,363,o),
(224,381,o),
(255,381,cs),
(286,381,o),
(313,363,o),
(313,330,cs),
(313,236,l)
);
},
{
closed = 1;
nodes = (
(258,-15,o),
(330,19,o),
(382,80,c),
(339,153,l),
(303,125,o),
(275,116,o),
(247,116,cs),
(214,116,o),
(196,127,o),
(196,149,cs),
(196,171,o),
(214,186,o),
(255,188,cs),
(388,193,l),
(388,303,l),
(233,298,ls),
(99,294,o),
(23,248,o),
(23,134,cs),
(23,30,o),
(86,-15,o),
(168,-15,cs)
);
}
);
vertWidth = 0;
width = 853;
},
{
layerId = m003;
shapes = (
{
pos = (325,0);
ref = o;
},
{
closed = 1;
nodes = (
(450,239,l),
(450,345,ls),
(450,441,o),
(361,500,o),
(251,500,cs),
(141,500,o),
(54,441,o),
(59,345,c),
(153,345,l),
(153,392,o),
(201,422,o),
(257,422,cs),
(313,422,o),
(360,392,o),
(360,345,cs),
(360,239,l)
);
},
{
closed = 1;
nodes = (
(281,-10,o),
(353,27,o),
(408,98,c),
(378,143,l),
(326,89,o),
(284,69,o),
(235,69,cs),
(180,69,o),
(148,94,o),
(148,136,cs),
(148,178,o),
(180,204,o),
(246,210,cs),
(422,226,l),
(422,294,l),
(233,278,ls),
(112,269,o),
(47,223,o),
(47,128,cs),
(47,37,o),
(108,-10,o),
(195,-10,cs)
);
}
);
vertWidth = 0;
width = 873;
}
);
metricLeft = a;
metricRight = o;
unicode = 42805;
},
{
glyphname = au;
lastChange = "2026-02-24 20:56:28 +0000";
layers = (
{
layerId = "AE3FEF6D-3AA7-4252-B349-D2606A6A3B4C";
shapes = (
{
closed = 1;
nodes = (
(764,0,l),
(764,483,l),
(736,483,l),
(736,0,l)
);
},
{
closed = 1;
nodes = (
(422,438,o),
(343,488,o),
(245,488,cs),
(147,488,o),
(67,438,o),
(67,359,c),
(96,359,l),
(96,421,o),
(163,462,o),
(244,462,cs),
(326,462,o),
(393,421,o),
(393,359,cs),
(393,206,ls),
(393,67,o),
(450,0,o),
(555,0,cs),
(645,0,o),
(705,49,o),
(732,112,c),
(751,112,l),
(751,222,l),
(736,222,l),
(736,101,o),
(666,27,o),
(561,27,cs),
(471,27,o),
(422,82,o),
(422,206,cs),
(422,359,ls)
);
},
{
closed = 1;
nodes = (
(292,-5,o),
(364,35,o),
(422,116,c),
(405,132,l),
(337,53,o),
(281,21,o),
(211,21,cs),
(134,21,o),
(87,60,o),
(87,122,cs),
(87,184,o),
(133,220,o),
(224,231,cs),
(410,254,l),
(410,280,l),
(221,257,ls),
(114,244,o),
(58,198,o),
(58,122,cs),
(58,44,o),
(117,-5,o),
(209,-5,cs)
);
}
);
vertWidth = 0;
width = 853;
},
{
layerId = "3FD7D777-D61F-402B-A269-3A472D550581";
shapes = (
{
closed = 1;
nodes = (
(842,0,l),
(842,500,l),
(653,500,l),
(653,0,l)
);
},
{
closed = 1;
nodes = (
(502,443,o),
(405,512,o),
(262,512,cs),
(121,512,o),
(27,444,o),
(36,330,c),
(196,330,l),
(196,363,o),
(224,381,o),
(255,381,cs),
(286,381,o),
(313,363,o),
(313,330,cs),
(313,170,ls),
(313,79,o),
(376,-10,o),
(488,-10,cs),
(571,-10,o),
(618,32,o),
(644,95,c),
(691,95,l),
(691,211,l),
(653,211,l),
(653,152,o),
(624,118,o),
(577,118,cs),
(533,118,o),
(502,149,o),
(502,202,cs),
(502,330,ls)
);
},
{
closed = 1;
nodes = (
(258,-15,o),
(330,19,o),
(382,80,c),
(339,153,l),
(303,125,o),
(275,116,o),
(247,116,cs),
(214,116,o),
(196,127,o),
(196,149,cs),
(196,171,o),
(214,186,o),
(255,188,cs),
(388,193,l),
(388,303,l),
(233,298,ls),
(99,294,o),
(23,248,o),
(23,134,cs),
(23,30,o),
(86,-15,o),
(168,-15,cs)
);
}
);
vertWidth = 0;
width = 884;
},
{
layerId = m003;
shapes = (
{
closed = 1;
nodes = (
(808,0,l),
(808,492,l),
(700,492,l),
(700,0,l)
);
},
{
closed = 1;
nodes = (
(468,441,o),
(380,500,o),
(260,500,cs),
(140,500,o),
(53,441,o),
(58,345,c),
(152,345,l),
(152,392,o),
(200,422,o),
(256,422,cs),
(312,422,o),
(359,392,o),
(359,345,cs),
(359,202,ls),
(359,71,o),
(429,-7,o),
(545,-7,cs),
(624,-7,o),
(668,29,o),
(694,71,c),
(727,71,l),
(727,215,l),
(700,215,l),
(700,134,o),
(651,85,o),
(575,85,cs),
(508,85,o),
(468,123,o),
(468,203,cs),
(468,345,ls)
);
},
{
closed = 1;
nodes = (
(281,-10,o),
(353,27,o),
(408,98,c),
(378,143,l),
(326,89,o),
(284,69,o),
(235,69,cs),
(180,69,o),
(148,94,o),
(148,136,cs),
(148,178,o),
(180,204,o),
(246,210,cs),
(422,226,l),
(422,294,l),
(233,278,ls),
(112,269,o),
(47,223,o),
(47,128,cs),
(47,37,o),
(108,-10,o),
(195,-10,cs)
);
}
);
vertWidth = 0;
width = 890;
}
);
metricLeft = a;
metricRight = u;
unicode = 42807;
},
{
glyphname = av;
kernRight = v;
lastChange = "2026-02-24 20:52:23 +0000";
layers = (
{
layerId = "AE3FEF6D-3AA7-4252-B349-D2606A6A3B4C";
shapes = (
{
closed = 1;
nodes = (
(580,0,l),
(763,483,l),
(732,483,l),
(558,21,l),
(554,21,l),
(427,351,ls),
(396,432,o),
(343,488,o),
(242,488,cs),
(147,488,o),
(67,438,o),
(67,359,c),
(96,359,l),
(96,421,o),
(163,462,o),
(242,462,cs),
(326,462,o),
(371,416,o),
(397,351,cs),
(533,0,l)
);
},
{
closed = 1;
nodes = (
(292,-5,o),
(364,35,o),
(422,116,c),
(405,132,l),
(337,53,o),
(281,21,o),
(211,21,cs),
(134,21,o),
(87,60,o),
(87,122,cs),
(87,184,o),
(133,221,o),
(224,231,cs),
(444,258,l),
(444,284,l),
(221,257,ls),
(114,244,o),
(58,198,o),
(58,122,cs),
(58,44,o),
(117,-5,o),
(209,-5,cs)
);
}
);
vertWidth = 0;
width = 776;
},
{
layerId = "3FD7D777-D61F-402B-A269-3A472D550581";
shapes = (
{
closed = 1;
nodes = (
(658,0,l),
(847,498,l),
(646,498,l),
(554,185,l),
(550,185,l),
(508,323,ls),
(480,459,o),
(405,512,o),
(273,512,cs),
(121,512,o),
(27,444,o),
(36,330,c),
(196,330,l),
(196,363,o),
(224,381,o),
(255,381,cs),
(286,381,o),
(305,363,o),
(321,323,cs),
(445,0,l)
);
},
{
closed = 1;
nodes = (
(258,-15,o),
(330,19,o),
(382,80,c),
(339,153,l),
(303,125,o),
(275,116,o),
(247,116,cs),
(214,116,o),
(196,127,o),
(196,149,cs),
(196,171,o),
(214,186,o),
(255,188,cs),
(388,193,l),
(388,303,l),
(233,298,ls),
(99,294,o),
(23,248,o),
(23,134,cs),
(23,30,o),
(86,-15,o),
(168,-15,cs)
);
}
);
vertWidth = 0;
width = 823;
},
{
layerId = m003;
shapes = (
{
closed = 1;
nodes = (
(625,0,l),
(811,491,l),
(695,491,l),
(562,103,l),
(558,103,l),
(474,337,ls),
(444,446,o),
(380,500,o),
(264,500,cs),
(140,500,o),
(53,441,o),
(58,345,c),
(152,345,l),
(152,392,o),
(200,422,o),
(255,422,cs),
(312,422,o),
(344,390,o),
(365,337,cs),
(495,0,l)
);
},
{
closed = 1;
nodes = (
(281,-10,o),
(353,27,o),
(408,98,c),
(378,143,l),
(326,89,o),
(284,69,o),
(235,69,cs),
(180,69,o),
(148,94,o),
(148,136,cs),
(148,178,o),
(180,204,o),
(246,210,cs),
(422,226,l),
(422,294,l),
(233,278,ls),
(112,269,o),
(47,223,o),
(47,128,cs),
(47,37,o),
(108,-10,o),
(195,-10,cs)
);
}
);
vertWidth = 0;
width = 806;
}
);
metricLeft = a;
metricRight = v;
unicode = 42809;
},
{
glyphname = avhorizontalbar;
kernRight = v;
lastChange = "2026-02-24 20:52:23 +0000";
layers = (
{
layerId = "AE3FEF6D-3AA7-4252-B349-D2606A6A3B4C";
shapes = (
{
closed = 1;
nodes = (
(694,317,l),
(694,344,l),
(428,344,l),
(428,317,l)
);
},
{
ref = av;
}
);
vertWidth = 0;
width = 776;
},
{
layerId = "3FD7D777-D61F-402B-A269-3A472D550581";
shapes = (
{
closed = 1;
nodes = (
(614,323,l),
(642,415,l),
(447,415,l),
(481,323,l)
);
},
{
ref = av;
}
);
vertWidth = 0;
width = 823;
},
{
layerId = m003;
shapes = (
{
closed = 1;
nodes = (
(654,320,l),
(668,380,l),
(438,380,l),
(455,320,l)
);
},
{
ref = av;
}
);
vertWidth = 0;
width = 806;
}
);
metricLeft = a;
metricRight = v;
unicode = 42811;
},
{
glyphname = ay;
kernRight = v;
lastChange = "2026-02-24 20:52:23 +0000";
layers = (
{
layerId = "AE3FEF6D-3AA7-4252-B349-D2606A6A3B4C";
shapes = (
{
closed = 1;
nodes = (
(369,-233,ls),
(459,-233,o),
(505,-198,o),
(540,-102,c),
(763,483,l),
(732,483,l),
(558,21,l),
(554,21,l),
(427,351,ls),
(396,432,o),
(343,488,o),
(242,488,cs),
(147,488,o),
(67,438,o),
(67,359,c),
(96,359,l),
(96,421,o),
(163,462,o),
(242,462,cs),
(326,462,o),
(371,416,o),
(397,351,cs),
(540,-21,l),
(512,-96,ls),
(480,-181,o),
(450,-207,o),
(369,-207,cs),
(362,-207,l),
(362,-233,l)
);
},
{
closed = 1;
nodes = (
(291,-5,o),
(364,35,o),
(422,116,c),
(405,132,l),
(337,53,o),
(281,21,o),
(211,21,cs),
(134,21,o),
(87,60,o),
(87,122,cs),
(87,184,o),
(133,221,o),
(224,231,cs),
(444,258,l),
(444,284,l),
(221,257,ls),
(114,244,o),
(58,198,o),
(58,122,cs),
(58,44,o),
(117,-5,o),
(209,-5,cs)
);
}
);
vertWidth = 0;
width = 776;
},
{
layerId = "3FD7D777-D61F-402B-A269-3A472D550581";
shapes = (
{
closed = 1;
nodes = (
(424,-199,ls),
(535,-199,o),
(605,-142,o),
(658,0,c),
(847,498,l),
(646,498,l),
(557,193,l),
(552,193,l),
(508,323,ls),
(464,450,o),
(405,512,o),
(267,512,cs),
(121,512,o),
(27,444,o),
(36,330,c),
(196,330,l),
(196,363,o),
(224,381,o),
(256,381,cs),
(286,381,o),
(301,365,o),
(321,323,cs),
(472,8,l),
(469,1,ls),
(452,-44,o),
(422,-60,o),
(359,-60,cs),
(315,-60,l),
(315,-199,l)
);
},
{
closed = 1;
nodes = (
(258,-15,o),
(330,19,o),
(382,80,c),
(339,153,l),
(303,125,o),
(275,116,o),
(247,116,cs),
(214,116,o),
(196,127,o),
(196,149,cs),
(196,171,o),
(214,186,o),
(255,188,cs),
(388,193,l),
(388,303,l),
(233,298,ls),
(99,294,o),
(23,248,o),
(23,134,cs),
(23,30,o),
(86,-15,o),
(168,-15,cs)
);
}
);
vertWidth = 0;
width = 823;
},
{
layerId = m003;
shapes = (
{
closed = 1;
nodes = (
(403,-216,ls),
(503,-216,o),
(561,-170,o),
(605,-51,c),
(811,491,l),
(695,491,l),
(564,107,l),
(559,107,l),
(474,337,ls),
(436,441,o),
(380,500,o),
(261,500,cs),
(140,500,o),
(53,441,o),
(58,345,c),
(152,345,l),
(152,392,o),
(200,422,o),
(255,422,cs),
(312,422,o),
(342,391,o),
(365,337,cs),
(512,-6,l),
(497,-47,ls),
(472,-113,o),
(442,-133,o),
(370,-133,cs),
(345,-133,l),
(345,-216,l)
);
},
{
closed = 1;
nodes = (
(281,-10,o),
(353,27,o),
(408,98,c),
(378,143,l),
(326,89,o),
(284,69,o),
(235,69,cs),
(180,69,o),
(148,94,o),
(148,136,cs),
(148,178,o),
(180,204,o),
(246,210,cs),
(422,226,l),
(422,294,l),
(233,278,ls),
(112,269,o),
(47,223,o),
(47,128,cs),
(47,37,o),
(108,-10,o),
(195,-10,cs)
);
}
);
vertWidth = 0;
width = 806;
}
);
metricLeft = a;
metricRight = y;
unicode = 42813;
},
{
glyphname = ae;
kernLeft = a;
lastChange = "2026-02-25 03:01:42 +0000";
layers = (
{
anchors = (
{
name = bottom;
pos = (394,-5);
},
{
name = top;
pos = (414,488);
}
);
layerId = "AE3FEF6D-3AA7-4252-B349-D2606A6A3B4C";
shapes = (
{
closed = 1;
nodes = (
(422,170,l),
(422,359,ls),
(422,438,o),
(343,488,o),
(245,488,cs),
(147,488,o),
(67,438,o),
(67,359,c),
(96,359,l),
(96,421,o),
(163,462,o),
(244,462,cs),
(326,462,o),
(393,421,o),
(393,359,cs),
(393,170,l)
);
},
{
pos = (349,0);
ref = e;
},
{
closed = 1;
nodes = (
(315,-5,o),
(410,73,o),
(410,168,c),
(393,180,l),
(393,90,o),
(312,21,o),
(208,21,cs),
(134,21,o),
(86,63,o),
(86,128,cs),
(86,196,o),
(137,238,o),
(226,243,cs),
(411,251,l),
(411,277,l),
(220,268,ls),
(118,263,o),
(58,211,o),
(58,129,cs),
(58,49,o),
(118,-5,o),
(202,-5,cs)
);
}
);
vertWidth = 0;
width = 854;
},
{
anchors = (
{
name = bottom;
pos = (359,-10);
},
{
name = top;
pos = (432,512);
}
);
layerId = "3FD7D777-D61F-402B-A269-3A472D550581";
shapes = (
{
closed = 1;
nodes = (
(513,139,l),
(513,330,ls),
(513,443,o),
(416,512,o),
(269,512,cs),
(122,512,o),
(28,443,o),
(37,330,c),
(197,330,l),
(197,363,o),
(225,381,o),
(260,381,cs),
(296,381,o),
(324,363,o),
(324,330,cs),
(324,139,l)
);
},
{
pos = (307,0);
ref = e;
},
{
closed = 1;
nodes = (
(284,-15,o),
(373,52,o),
(387,186,c),
(326,200,l),
(316,139,o),
(290,116,o),
(245,116,cs),
(214,116,o),
(196,127,o),
(196,149,cs),
(196,171,o),
(214,186,o),
(255,188,cs),
(388,193,l),
(388,303,l),
(233,298,ls),
(99,294,o),
(23,248,o),
(23,134,cs),
(23,30,o),
(86,-15,o),
(175,-15,cs)
);
}
);
vertWidth = 0;
width = 859;
},
{
anchors = (
{
name = bottom;
pos = (383,-7);
},
{
name = top;
pos = (429,500);
}
);
layerId = m003;
shapes = (
{
closed = 1;
nodes = (
(474,155,l),
(474,345,ls),
(474,441,o),
(386,500,o),
(263,500,cs),
(141,500,o),
(54,440,o),
(58,345,c),
(153,345,l),
(153,392,o),
(200,422,o),
(258,422,cs),
(317,422,o),
(365,392,o),
(365,345,cs),
(365,155,l)
);
},
{
pos = (329,0);
ref = e;
},
{
closed = 1;
nodes = (
(326,-10,o),
(418,63,o),
(425,177,c),
(366,190,l),
(361,115,o),
(307,69,o),
(234,69,cs),
(180,69,o),
(147,95,o),
(147,139,cs),
(147,184,o),
(181,212,o),
(247,216,cs),
(406,222,l),
(406,290,l),
(233,283,ls),
(114,278,o),
(47,230,o),
(47,132,cs),
(47,40,o),
(108,-10,o),
(207,-10,cs)
);
}
);
vertWidth = 0;
width = 868;
}
);
metricLeft = a;
metricRight = e;
unicode = 230;
},
{
glyphname = b;
lastChange = "2026-02-24 20:52:23 +0000";
layers = (
{
anchors = (
{
name = bottom;
pos = (257,-5);
},
{
name = top;
pos = (257,681);
}
);
layerId = "AE3FEF6D-3AA7-4252-B349-D2606A6A3B4C";
shapes = (
{
closed = 1;
nodes = (
(112,0,l),
(112,681,l),
(81,681,l),
(81,0,l)
);
},
{
pos = (3,0);
ref = uniE00F;
}
);
vertWidth = 0;
width = 557;
},
{
anchors = (
{
name = bottom;
pos = (263,-5);
},
{
name = top;
pos = (263,688);
}
);
layerId = "3FD7D777-D61F-402B-A269-3A472D550581";
shapes = (
{
closed = 1;
nodes = (
(233,-1,l),
(233,688,l),
(44,688,l),
(44,-1,l)
);
},
{
pos = (28,-1);
ref = uniE00F;
}
);
vertWidth = 0;
width = 584;
},
{
anchors = (
{
name = bottom;
pos = (269,-5);
},
{
name = top;
pos = (269,685);
}
);
layerId = m003;
shapes = (
{
closed = 1;
nodes = (
(182,0,l),
(182,685,l),
(72,685,l),
(72,0,l)
);
},
{
pos = (25,0);
ref = uniE00F;
}
);
vertWidth = 0;
width = 585;
}
);
metricLeft = l;
metricRight = o;
unicode = 98;
},
{
color = 8;
glyphname = bhook;
lastChange = "2026-02-24 20:52:23 +0000";
layers = (
{
layerId = "AE3FEF6D-3AA7-4252-B349-D2606A6A3B4C";
shapes = (
{
pos = (3,0);
ref = uniE00F;
},
{
closed = 1;
nodes = (
(81,0,l),
(112,0,l),
(112,573,ls),
(112,635,o),
(147,663,o),
(208,663,cs),
(238,663,o),
(262,654,o),
(273,644,c),
(288,664,l),
(272,678,o),
(243,689,o),
(208,689,cs),
(135,689,o),
(81,654,o),
(81,574,cs)
);
}
);
vertWidth = 0;
width = 557;
},
{
layerId = "3FD7D777-D61F-402B-A269-3A472D550581";
shapes = (
{
pos = (28,-1);
ref = uniE00F;
},
{
closed = 1;
nodes = (
(44,-1,l),
(233,-1,l),
(233,538,ls),
(233,561,o),
(250,573,o),
(282,573,cs),
(297,573,o),
(316,571,o),
(336,566,c),
(361,674,l),
(319,689,o),
(271,698,o),
(224,698,cs),
(130,698,o),
(44,660,o),
(44,553,cs)
);
}
);
vertWidth = 0;
width = 584;
},
{
layerId = m003;
shapes = (
{
pos = (25,0);
ref = uniE00F;
},
{
closed = 1;
nodes = (
(72,0,l),
(182,0,l),
(182,556,ls),
(182,598,o),
(208,618,o),
(254,618,cs),
(277,618,o),
(297,613,o),
(314,605,c),
(334,669,l),
(304,684,o),
(266,694,o),
(225,694,cs),
(142,694,o),
(72,657,o),
(72,564,cs)
);
}
);
vertWidth = 0;
width = 585;
}
);
metricLeft = l;
metricRight = o;
unicode = 595;
},
{
color = 3;
glyphname = c;
kernLeft = c;
lastChange = "2026-02-24 20:52:23 +0000";
layers = (
{
anchors = (
{
name = bottom;
pos = (258,-5);
},
{
name = top;
pos = (258,488);
}
);
layerId = "AE3FEF6D-3AA7-4252-B349-D2606A6A3B4C";
shapes = (
{
closed = 1;
nodes = (
(357,-5,o),
(429,42,o),
(461,136,c),
(430,136,l),
(408,70,o),
(353,21,o),
(258,21,cs),
(131,21,o),
(75,112,o),
(75,241,cs),
(75,370,o),
(131,462,o),
(258,462,cs),
(353,462,o),
(408,413,o),
(430,347,c),
(461,347,l),
(429,441,o),
(357,488,o),
(258,488,cs),
(125,488,o),
(44,397,o),
(44,241,cs),
(44,85,o),
(125,-5,o),
(258,-5,cs)
);
}
);
vertWidth = 0;
width = 510;
},
{
anchors = (
{
name = bottom;
pos = (278,-10);
},
{
name = top;
pos = (278,510);
}
);
layerId = "3FD7D777-D61F-402B-A269-3A472D550581";
shapes = (
{
closed = 1;
nodes = (
(438,-10,o),
(522,86,o),
(530,202,c),
(347,202,l),
(341,163,o),
(325,116,o),
(278,116,cs),
(230,116,o),
(206,159,o),
(206,250,cs),
(206,337,o),
(230,381,o),
(278,381,cs),
(325,381,o),
(341,336,o),
(347,296,c),
(530,296,l),
(522,410,o),
(438,510,o),
(278,510,cs),
(118,510,o),
(18,410,o),
(18,249,cs),
(18,86,o),
(118,-10,o),
(278,-10,cs)
);
}
);
vertWidth = 0;
width = 528;
},
{
anchors = (
{
name = bottom;
pos = (273,-7);
},
{
name = top;
pos = (273,499);
}
);
layerId = m003;
shapes = (
{
closed = 1;
nodes = (
(403,-7,o),
(481,64,o),
(501,169,c),
(394,169,l),
(380,117,o),
(344,69,o),
(273,69,cs),
(186,69,o),
(146,136,o),
(146,246,cs),
(146,354,o),
(186,422,o),
(273,422,cs),
(344,422,o),
(380,375,o),
(394,322,c),
(501,322,l),
(481,426,o),
(403,499,o),
(273,499,cs),
(127,499,o),
(36,404,o),
(36,245,cs),
(36,86,o),
(127,-7,o),
(273,-7,cs)
);
}
);
vertWidth = 0;
width = 527;
}
);
metricLeft = o;
unicode = 99;
},
{
color = 3;
glyphname = ccurl;
lastChange = "2026-02-24 20:52:23 +0000";
layers = (
{
layerId = "AE3FEF6D-3AA7-4252-B349-D2606A6A3B4C";
shapes = (
{
closed = 1;
nodes = (
(198,153,o),
(262,228,o),
(354,228,cs),
(408,228,o),
(442,192,o),
(442,145,cs),
(442,67,o),
(358,21,o),
(280,21,cs),
(162,21,o),
(85,91,o),
(85,242,cs),
(85,393,o),
(162,462,o),
(271,462,cs),
(358,462,o),
(417,418,o),
(442,346,c),
(468,356,l),
(438,440,o),
(369,488,o),
(271,488,cs),
(144,488,o),
(57,407,o),
(57,242,cs),
(57,77,o),
(144,-5,o),
(279,-5,cs),
(376,-5,o),
(468,56,o),
(468,144,cs),
(468,212,o),
(423,254,o),
(353,254,cs),
(250,254,o),
(181,178,o),
(45,-17,c),
(63,-30,l)
);
}
);
vertWidth = 0;
width = 510;
},
{
layerId = "3FD7D777-D61F-402B-A269-3A472D550581";
shapes = (
{
closed = 1;
nodes = (
(197,114,o),
(267,189,o),
(316,189,cs),
(334,189,o),
(346,177,o),
(346,160,cs),
(346,134,o),
(320,116,o),
(287,116,cs),
(229,116,o),
(205,159,o),
(205,249,cs),
(205,337,o),
(229,381,o),
(277,381,cs),
(317,381,o),
(338,348,o),
(344,313,c),
(520,341,l),
(499,436,o),
(416,512,o),
(277,512,cs),
(117,512,o),
(17,410,o),
(17,248,cs),
(17,86,o),
(117,-15,o),
(280,-15,cs),
(411,-15,o),
(499,56,o),
(499,151,cs),
(499,231,o),
(438,284,o),
(341,284,cs),
(211,284,o),
(87,193,o),
(-5,28,c),
(102,-39,l)
);
}
);
vertWidth = 0;
width = 528;
},
{
layerId = m003;
shapes = (
{
closed = 1;
nodes = (
(201,134,o),
(268,209,o),
(338,209,cs),
(374,209,o),
(397,185,o),
(397,153,cs),
(397,101,o),
(342,69,o),
(287,69,cs),
(199,69,o),
(148,125,o),
(148,246,cs),
(148,365,o),
(199,422,o),
(277,422,cs),
(341,422,o),
(381,382,o),
(396,330,c),
(497,349,l),
(472,437,o),
(396,500,o),
(277,500,cs),
(134,500,o),
(40,409,o),
(40,245,cs),
(40,82,o),
(134,-10,o),
(283,-10,cs),
(397,-10,o),
(487,56,o),
(487,148,cs),
(487,222,o),
(434,269,o),
(350,269,cs),
(234,269,o),
(137,186,o),
(23,6,c),
(86,-34,l)
);
}
);
vertWidth = 0;
width = 527;
}
);
metricWidth = c;
unicode = 597;
},
{
glyphname = d;
kernLeft = c;
lastChange = "2026-02-24 20:52:23 +0000";
layers = (
{
anchors = (
{
name = bottom;
pos = (296,-5);
},
{
name = bottom.alt;
pos = (460,0);
},
{
name = "d-bar";
pos = (461,555);
},
{
name = top;
pos = (296,678);
},
{
name = top.alt;
pos = (475,678);
}
);
layerId = "AE3FEF6D-3AA7-4252-B349-D2606A6A3B4C";
shapes = (
{
closed = 1;
nodes = (
(475,0,ls),
(475,678,l),
(445,678,l),
(445,0,l)
);
},
{
pos = (-61,0);
ref = uniE01C;
}
);
vertWidth = 0;
width = 556;
},
{
anchors = (
{
name = bottom;
pos = (307,-6);
},
{
name = bottom.alt;
pos = (445,-1);
},
{
name = "d-bar";
pos = (445,555);
},
{
name = top;
pos = (307,688);
},
{
name = top.alt;
pos = (538,686);
}
);
layerId = "3FD7D777-D61F-402B-A269-3A472D550581";
shapes = (
{
closed = 1;
nodes = (
(539,-1,ls),
(539,688,l),
(351,688,l),
(351,-1,l)
);
},
{
pos = (-123,0);
ref = uniE01C;
}
);
vertWidth = 0;
width = 582;
},
{
anchors = (
{
name = bottom;
pos = (307,-5);
},
{
name = bottom.alt;
pos = (458,0);
},
{
name = "d-bar";
pos = (458,555);
},
{
name = top;
pos = (307,683);
},
{
name = top.alt;
pos = (512,682);
}
);
layerId = m003;
shapes = (
{
closed = 1;
nodes = (
(512,0,ls),
(512,683,l),
(403,683,l),
(403,0,l)
);
},
{
pos = (-87,0);
ref = uniE01C;
}
);
vertWidth = 0;
width = 583;
}
);
metricLeft = o;
metricRight = l;
unicode = 100;
},
{
glyphname = dezh;
lastChange = "2026-02-24 20:52:23 +0000";
layers = (
{
layerId = "AE3FEF6D-3AA7-4252-B349-D2606A6A3B4C";
shapes = (
{
ref = d;
},
{
pos = (509,0);
ref = ezh;
},
{
closed = 1;
nodes = (
(461,457,l),
(555,457,l),
(555,483,l),
(461,483,l)
);
}
);
width = 1039;
},
{
layerId = "3FD7D777-D61F-402B-A269-3A472D550581";
shapes = (
{
ref = d;
},
{
pos = (580,0);
ref = ezh;
},
{
closed = 1;
nodes = (
(510,359,l),
(631,359,l),
(631,500,l),
(510,500,l)
);
}
);
width = 1178;
},
{
layerId = m003;
shapes = (
{
ref = d;
},
{
pos = (545,0);
ref = ezh;
},
{
closed = 1;
nodes = (
(486,414,l),
(593,414,l),
(593,492,l),
(486,492,l)
);
}
);
width = 1117;
}
);
metricLeft = d;
metricRight = ezh;
unicode = 676;
},
{
color = 8;
glyphname = dhook;
kernLeft = c;
lastChange = "2026-02-24 20:52:23 +0000";
layers = (
{
layerId = "AE3FEF6D-3AA7-4252-B349-D2606A6A3B4C";
shapes = (
{
pos = (-61,0);
ref = uniE01C;
},
{
closed = 1;
nodes = (
(445,0,l),
(475,0,l),
(475,573,ls),
(475,635,o),
(510,663,o),
(571,663,cs),
(601,663,o),
(625,654,o),
(636,644,c),
(651,664,l),
(635,678,o),
(606,689,o),
(571,689,cs),
(499,689,o),
(445,654,o),
(445,574,cs),
(445,92,l)
);
}
);
vertWidth = 0;
width = 661;
},
{
layerId = "3FD7D777-D61F-402B-A269-3A472D550581";
shapes = (
{
pos = (-123,0);
ref = uniE01C;
},
{
closed = 1;
nodes = (
(389,-1,l),
(539,-1,l),
(539,538,ls),
(539,561,o),
(557,573,o),
(589,573,cs),
(604,573,o),
(623,569,o),
(643,564,c),
(668,674,l),
(626,689,o),
(578,698,o),
(531,698,cs),
(437,698,o),
(351,660,o),
(351,553,cs),
(351,98,l)
);
}
);
vertWidth = 0;
width = 635;
},
{
layerId = m003;
shapes = (
{
pos = (-87,0);
ref = uniE01C;
},
{
closed = 1;
nodes = (
(422,0,l),
(512,0,l),
(512,556,ls),
(512,598,o),
(539,618,o),
(585,618,cs),
(608,618,o),
(628,612,o),
(645,604,c),
(665,669,l),
(635,684,o),
(597,694,o),
(556,694,cs),
(473,694,o),
(403,657,o),
(403,564,cs),
(403,95,l)
);
}
);
vertWidth = 0;
width = 655;
}
);
metricLeft = o;
metricRight = esh;
unicode = 599;
},
{
glyphname = dzaltone;
lastChange = "2026-02-24 20:52:23 +0000";
layers = (
{
anchors = (
{
name = bottom;
pos = (745,0);
},
{
name = top;
pos = (745,483);
}
);
layerId = "AE3FEF6D-3AA7-4252-B349-D2606A6A3B4C";
shapes = (
{
ref = d;
userData = {
UFO.identifier = FB8DD7CE;
UFO.lib = {
};
};
},
{
pos = (557,0);
ref = z;
userData = {
UFO.identifier = 0F6C48D0;
UFO.lib = {
};
};
},
{
closed = 1;
nodes = (
(466,457,l),
(931,457,l),
(955,483,l),
(466,483,l)
);
}
);
width = 980;
},
{
anchors = (
{
name = bottom;
pos = (841,-1);
},
{
name = top;
pos = (836,497);
}
);
layerId = "3FD7D777-D61F-402B-A269-3A472D550581";
shapes = (
{
ref = d;
userData = {
UFO.identifier = FB8DD7CE;
UFO.lib = {
};
};
},
{
pos = (580,0);
ref = z;
userData = {
UFO.identifier = 0F6C48D0;
UFO.lib = {
};
};
},
{
closed = 1;
nodes = (
(440,359,l),
(841,359,l),
(1059,500,l),
(440,500,l)
);
}
);
width = 1102;
},
{
anchors = (
{
name = bottom;
pos = (793,0);
},
{
name = top;
pos = (791,490);
}
);
layerId = m003;
shapes = (
{
ref = d;
userData = {
UFO.identifier = FB8DD7CE;
UFO.lib = {
};
};
},
{
pos = (569,0);
ref = z;
userData = {
UFO.identifier = 0F6C48D0;
UFO.lib = {
};
};
},
{
closed = 1;
nodes = (
(453,408,l),
(886,408,l),
(1007,492,l),
(453,492,l)
);
}
);
width = 1052;
}
);
metricLeft = d;
metricRight = z;
unicode = 675;
},
{
glyphname = dzcurl;
lastChange = "2026-02-24 20:52:23 +0000";
layers = (
{
anchors = (
{
name = bottom;
pos = (745,0);
},
{
name = top;
pos = (745,483);
}
);
layerId = "AE3FEF6D-3AA7-4252-B349-D2606A6A3B4C";
shapes = (
{
ref = d;
userData = {
UFO.identifier = FB8DD7CE;
UFO.lib = {
};
};
},
{
pos = (557,0);
ref = zcurl;
userData = {
UFO.identifier = 0F6C48D0;
UFO.lib = {
};
};
},
{
closed = 1;
nodes = (
(466,457,l),
(931,457,l),
(955,483,l),
(466,483,l)
);
}
);
width = 1127;
},
{
anchors = (
{
name = bottom;
pos = (841,-1);
},
{
name = top;
pos = (836,497);
}
);
layerId = "3FD7D777-D61F-402B-A269-3A472D550581";
shapes = (
{
ref = d;
userData = {
UFO.identifier = FB8DD7CE;
UFO.lib = {
};
};
},
{
pos = (580,0);
ref = zcurl;
userData = {
UFO.identifier = 0F6C48D0;
UFO.lib = {
};
};
},
{
closed = 1;
nodes = (
(440,359,l),
(841,359,l),
(1059,500,l),
(440,500,l)
);
}
);
width = 1353;
},
{
anchors = (
{
name = bottom;
pos = (793,0);
},
{
name = top;
pos = (791,490);
}
);
layerId = m003;
shapes = (
{
ref = d;
userData = {
UFO.identifier = FB8DD7CE;
UFO.lib = {
};
};
},
{
pos = (569,0);
ref = zcurl;
userData = {
UFO.identifier = 0F6C48D0;
UFO.lib = {
};
};
},
{
closed = 1;
nodes = (
(453,408,l),
(886,408,l),
(1007,492,l),
(453,492,l)
);
}
);
width = 1251;
}
);
metricLeft = d;
metricRight = z;
unicode = 677;
},
{
color = 3;
glyphname = eth;
lastChange = "2026-02-24 20:52:23 +0000";
layers = (
{
layerId = "AE3FEF6D-3AA7-4252-B349-D2606A6A3B4C";
shapes = (
{
closed = 1;
nodes = (
(397,-5,o),
(475,91,o),
(475,245,cs),
(475,380,o),
(401,541,o),
(290,638,c),
(374,705,l),
(359,724,l),
(274,653,l),
(235,683,o),
(196,702,o),
(170,715,c),
(158,692,l),
(188,679,o),
(225,660,o),
(252,636,c),
(155,559,l),
(171,539,l),
(271,622,l),
(333,568,o),
(400,478,o),
(436,384,c),
(432,382,l),
(393,460,o),
(332,488,o),
(259,488,cs),
(121,488,o),
(43,394,o),
(43,242,cs),
(43,90,o),
(121,-5,o),
(259,-5,cs)
);
},
{
closed = 1;
nodes = (
(130,21,o),
(74,117,o),
(74,242,cs),
(74,366,o),
(130,462,o),
(259,462,cs),
(390,462,o),
(444,366,o),
(444,242,cs),
(444,117,o),
(390,21,o),
(259,21,cs)
);
}
);
vertWidth = 0;
width = 519;
},
{
layerId = "3FD7D777-D61F-402B-A269-3A472D550581";
shapes = (
{
closed = 1;
nodes = (
(457,-15,o),
(538,83,o),
(538,292,cs),
(538,430,o),
(496,542,o),
(366,662,c),
(412,693,l),
(368,759,l),
(303,712,l),
(260,742,o),
(190,773,o),
(133,780,c),
(114,670,l),
(144,665,o),
(186,653,o),
(210,641,c),
(161,607,l),
(209,543,l),
(272,592,l),
(303,569,o),
(355,518,o),
(377,480,c),
(373,474,l),
(332,502,o),
(293,511,o),
(259,511,cs),
(132,511,o),
(18,429,o),
(18,249,cs),
(18,94,o),
(100,-15,o),
(284,-15,cs)
);
},
{
closed = 1;
nodes = (
(231,117,o),
(206,152,o),
(206,246,cs),
(206,344,o),
(232,379,o),
(276,379,cs),
(321,379,o),
(351,344,o),
(351,248,cs),
(351,152,o),
(322,117,o),
(276,117,cs)
);
}
);
vertWidth = 0;
width = 556;
},
{
layerId = m003;
shapes = (
{
closed = 1;
nodes = (
(432,-10,o),
(512,87,o),
(512,269,cs),
(512,405,o),
(454,541,o),
(333,650,c),
(398,699,l),
(369,742,l),
(294,683,l),
(253,713,o),
(198,738,o),
(157,748,c),
(141,681,l),
(171,672,o),
(211,657,o),
(236,639,c),
(163,583,l),
(195,541,l),
(277,607,l),
(323,569,o),
(383,498,o),
(412,432,c),
(408,428,l),
(368,481,o),
(318,500,o),
(264,500,cs),
(132,500,o),
(36,412,o),
(36,246,cs),
(36,92,o),
(116,-10,o),
(277,-10,cs)
);
},
{
closed = 1;
nodes = (
(186,69,o),
(145,135,o),
(145,244,cs),
(145,355,o),
(186,421,o),
(273,421,cs),
(361,421,o),
(403,355,o),
(403,245,cs),
(403,135,o),
(361,69,o),
(273,69,cs)
);
}
);
vertWidth = 0;
width = 548;
}
);
metricWidth = o;
unicode = 240;
},
{
color = 3;
glyphname = e;
kernLeft = c;
lastChange = "2026-02-24 20:52:23 +0000";
layers = (
{
anchors = (
{
name = bottom;
pos = (260,-5);
},
{
name = bottom.alt;
pos = (260,-5);
},
{
name = top;
pos = (255,488);
}
);
layerId = "AE3FEF6D-3AA7-4252-B349-D2606A6A3B4C";
shapes = (
{
closed = 1;
nodes = (
(356,-5,o),
(424,41,o),
(455,121,c),
(423,121,l),
(403,68,o),
(348,21,o),
(260,21,cs),
(137,21,o),
(73,111,o),
(73,239,c),
(466,239,l),
(469,383,o),
(408,488,o),
(255,488,cs),
(129,488,o),
(44,399,o),
(44,242,cs),
(44,85,o),
(125,-5,o),
(260,-5,cs)
);
},
{
closed = 1;
nodes = (
(80,381,o),
(143,462,o),
(255,462,cs),
(387,462,o),
(429,375,o),
(437,265,c),
(74,265,l)
);
}
);
vertWidth = 0;
width = 505;
},
{
anchors = (
{
name = bottom;
pos = (275,-10);
},
{
name = bottom.alt;
pos = (275,-5);
},
{
name = top;
pos = (277,510);
}
);
layerId = "3FD7D777-D61F-402B-A269-3A472D550581";
shapes = (
{
closed = 1;
nodes = (
(418,-10,o),
(496,68,o),
(525,147,c),
(328,147,l),
(322,131,o),
(304,116,o),
(275,116,cs),
(233,116,o),
(210,145,o),
(208,193,c),
(535,193,l),
(559,381,o),
(460,510,o),
(277,510,cs),
(118,510,o),
(18,410,o),
(18,249,cs),
(18,86,o),
(118,-10,o),
(275,-10,cs)
);
},
{
closed = 1;
nodes = (
(210,349,o),
(237,381,o),
(277,381,cs),
(320,381,o),
(347,352,o),
(347,299,c),
(210,299,l)
);
}
);
vertWidth = 0;
width = 552;
},
{
anchors = (
{
name = bottom;
pos = (273,-7);
},
{
name = bottom.alt;
pos = (273,-5);
},
{
name = top;
pos = (271,499);
}
);
layerId = m003;
shapes = (
{
closed = 1;
nodes = (
(392,-7,o),
(465,55,o),
(495,134,c),
(381,134,l),
(368,100,o),
(331,69,o),
(273,69,cs),
(190,69,o),
(147,128,o),
(146,216,c),
(506,216,l),
(519,382,o),
(439,499,o),
(271,499,cs),
(129,499,o),
(36,405,o),
(36,246,cs),
(36,86,o),
(127,-7,o),
(273,-7,cs)
);
},
{
closed = 1;
nodes = (
(150,365,o),
(195,422,o),
(271,422,cs),
(359,422,o),
(393,364,o),
(397,282,c),
(147,282,l)
);
}
);
vertWidth = 0;
width = 539;
}
);
metricLeft = o;
unicode = 101;
},
{
color = 3;
glyphname = esh;
lastChange = "2026-02-24 20:52:23 +0000";
layers = (
{
layerId = "AE3FEF6D-3AA7-4252-B349-D2606A6A3B4C";
shapes = (
{
closed = 1;
nodes = (
(56,-238,o),
(111,-203,o),
(111,-123,cs),
(111,573,ls),
(111,635,o),
(146,663,o),
(207,663,cs),
(237,663,o),
(261,654,o),
(272,644,c),
(287,664,l),
(271,678,o),
(242,689,o),
(207,689,cs),
(134,689,o),
(80,654,o),
(80,574,cs),
(80,-122,ls),
(80,-184,o),
(44,-211,o),
(-16,-211,cs),
(-46,-211,o),
(-70,-203,o),
(-81,-192,c),
(-96,-213,l),
(-80,-227,o),
(-51,-238,o),
(-16,-238,cs)
);
}
);
vertWidth = 0;
width = 297;
},
{
layerId = "3FD7D777-D61F-402B-A269-3A472D550581";
shapes = (
{
closed = 1;
nodes = (
(166,-230,o),
(253,-191,o),
(253,-85,cs),
(253,505,ls),
(253,535,o),
(270,547,o),
(301,547,cs),
(316,547,o),
(336,545,o),
(355,539,c),
(380,647,l),
(339,663,o),
(290,672,o),
(244,672,cs),
(150,672,o),
(63,633,o),
(63,527,cs),
(63,-62,ls),
(63,-93,o),
(46,-105,o),
(14,-105,cs),
(-1,-105,o),
(-20,-102,o),
(-39,-98,c),
(-65,-206,l),
(-23,-222,o),
(25,-230,o),
(72,-230,cs)
);
}
);
vertWidth = 0;
width = 347;
},
{
layerId = m003;
shapes = (
{
closed = 1;
nodes = (
(121,-234,o),
(192,-197,o),
(192,-104,cs),
(192,529,ls),
(192,575,o),
(218,595,o),
(264,595,cs),
(287,595,o),
(309,590,o),
(324,582,c),
(344,656,l),
(315,671,o),
(276,681,o),
(236,681,cs),
(152,681,o),
(82,644,o),
(82,551,cs),
(82,-82,ls),
(82,-128,o),
(55,-148,o),
(9,-148,cs),
(-13,-148,o),
(-36,-142,o),
(-50,-135,c),
(-70,-209,l),
(-41,-224,o),
(-3,-234,o),
(38,-234,cs)
);
}
);
vertWidth = 0;
width = 334;
}
);
unicode = 643;
},
{
color = 3;
glyphname = ezh;
lastChange = "2026-02-24 20:52:23 +0000";
layers = (
{
anchors = (
{
name = bottom;
pos = (243,-238);
},
{
name = top;
pos = (242,483);
}
);
layerId = "AE3FEF6D-3AA7-4252-B349-D2606A6A3B4C";
shapes = (
{
closed = 1;
nodes = (
(400,-238,o),
(487,-152,o),
(487,-17,cs),
(487,129,o),
(385,185,o),
(249,186,c),
(249,190,l),
(456,442,l),
(456,483,l),
(34,483,l),
(34,457,l),
(433,457,l),
(433,453,l),
(217,191,l),
(217,157,l),
(243,157,ls),
(372,157,o),
(462,110,o),
(462,-18,cs),
(462,-131,o),
(391,-209,o),
(242,-209,cs),
(154,-209,o),
(86,-182,o),
(52,-123,c),
(34,-144,l),
(66,-200,o),
(139,-238,o),
(243,-238,cs)
);
}
);
vertWidth = 0;
width = 530;
},
{
anchors = (
{
name = bottom;
pos = (295,-226);
},
{
name = top;
pos = (277,500);
}
);
layerId = "3FD7D777-D61F-402B-A269-3A472D550581";
shapes = (
{
closed = 1;
nodes = (
(486,-226,o),
(584,-122,o),
(584,2,cs),
(584,117,o),
(502,202,o),
(394,223,c),
(394,230,l),
(543,374,l),
(543,500,l),
(31,500,l),
(31,359,l),
(335,359,l),
(335,351,l),
(165,186,l),
(165,87,l),
(277,87,ls),
(344,87,o),
(391,60,o),
(391,-5,cs),
(391,-58,o),
(359,-93,o),
(294,-93,cs),
(247,-93,o),
(206,-73,o),
(206,-9,c),
(11,-9,l),
(11,-137,o),
(118,-226,o),
(295,-226,cs)
);
}
);
vertWidth = 0;
width = 598;
},
{
anchors = (
{
name = bottom;
pos = (272,-232);
},
{
name = top;
pos = (263,492);
}
);
layerId = m003;
shapes = (
{
closed = 1;
nodes = (
(446,-232,o),
(539,-137,o),
(539,-7,cs),
(539,123,o),
(447,194,o),
(325,205,c),
(325,210,l),
(503,414,l),
(503,492,l),
(36,492,l),
(36,414,l),
(387,414,l),
(387,408,l),
(194,189,l),
(194,122,l),
(263,122,ls),
(361,122,o),
(430,85,o),
(430,-11,cs),
(430,-94,o),
(378,-151,o),
(271,-151,cs),
(204,-151,o),
(149,-127,o),
(132,-66,c),
(26,-76,l),
(42,-168,o),
(132,-232,o),
(272,-232,cs)
);
}
);
vertWidth = 0;
width = 572;
}
);
unicode = 658;
},
{
color = 3;
glyphname = ezhcurl;
lastChange = "2026-02-25 14:08:50 +0000";
layers = (
{
layerId = "AE3FEF6D-3AA7-4252-B349-D2606A6A3B4C";
shapes = (
{
closed = 1;
nodes = (
(249,190,l),
(456,442,l),
(456,483,l),
(34,483,l),
(34,457,l),
(433,457,l),
(433,453,l),
(217,191,l),
(217,157,l),
(243,157,ls),
(372,157,o),
(462,110,o),
(462,-18,cs),
(462,-131,o),
(391,-209,o),
(250,-209,cs),
(144,-209,o),
(57,-166,o),
(57,-88,cs),
(57,-40,o),
(91,-5,o),
(148,-5,cs),
(223,-5,o),
(279,-62,o),
(279,-224,cs),
(279,-321,l),
(303,-322,l),
(303,-223,ls),
(303,-55,o),
(235,21,o),
(143,21,cs),
(76,21,o),
(31,-21,o),
(31,-86,cs),
(31,-177,o),
(120,-238,o),
(244,-238,cs),
(400,-238,o),
(487,-142,o),
(487,-12,cs),
(487,129,o),
(385,185,o),
(249,186,c)
);
}
);
vertWidth = 0;
width = 530;
},
{
layerId = "3FD7D777-D61F-402B-A269-3A472D550581";
shapes = (
{
closed = 1;
nodes = (
(413,230,l),
(562,374,l),
(562,500,l),
(49,500,l),
(49,359,l),
(353,359,l),
(353,351,l),
(183,186,l),
(183,87,l),
(309,87,ls),
(363,87,o),
(409,58,o),
(409,-3,cs),
(409,-61,o),
(359,-93,o),
(262,-93,cs),
(213,-93,o),
(168,-84,o),
(168,-56,cs),
(168,-41,o),
(181,-29,o),
(206,-29,cs),
(242,-29,o),
(268,-55,o),
(268,-144,cs),
(268,-292,l),
(384,-292,l),
(384,-138,ls),
(384,5,o),
(293,66,o),
(186,66,cs),
(84,66,o),
(11,10,o),
(11,-69,cs),
(11,-164,o),
(117,-226,o),
(278,-226,cs),
(485,-226,o),
(603,-125,o),
(603,5,cs),
(603,120,o),
(520,202,o),
(413,223,c)
);
}
);
vertWidth = 0;
width = 617;
},
{
layerId = m003;
shapes = (
{
closed = 1;
nodes = (
(334,210,l),
(512,414,l),
(512,492,l),
(45,492,l),
(45,414,l),
(396,414,l),
(396,408,l),
(203,189,l),
(203,122,l),
(279,122,ls),
(371,122,o),
(439,84,o),
(439,-10,cs),
(439,-96,o),
(378,-151,o),
(259,-151,cs),
(182,-151,o),
(116,-125,o),
(116,-72,cs),
(116,-40,o),
(139,-17,o),
(180,-17,cs),
(236,-17,o),
(277,-58,o),
(277,-184,cs),
(277,-306,l),
(347,-307,l),
(347,-180,ls),
(347,-25,o),
(267,44,o),
(168,44,cs),
(83,44,o),
(24,-5,o),
(24,-77,cs),
(24,-170,o),
(122,-232,o),
(264,-232,cs),
(446,-232,o),
(548,-133,o),
(548,-3,cs),
(548,125,o),
(456,194,o),
(334,205,c)
);
}
);
vertWidth = 0;
width = 582;
}
);
unicode = 659;
},
{
color = 3;
glyphname = f;
lastChange = "2026-02-24 20:52:23 +0000";
layers = (
{
anchors = (
{
name = bottom;
pos = (156,0);
},
{
name = top;
pos = (267,689);
}
);
layerId = "AE3FEF6D-3AA7-4252-B349-D2606A6A3B4C";
shapes = (
{
closed = 1;
nodes = (
(170,0,l),
(170,573,ls),
(170,635,o),
(207,663,o),
(267,663,cs),
(297,663,o),
(321,654,o),
(332,643,c),
(347,664,l),
(331,678,o),
(302,689,o),
(267,689,cs),
(195,689,o),
(140,654,o),
(140,574,cs),
(140,0,l)
);
},
{
pos = (7,215);
ref = uniE00A;
}
);
vertWidth = 0;
width = 361;
},
{
anchors = (
{
name = bottom;
pos = (151,0);
},
{
name = top;
pos = (236,698);
}
);
background = {
shapes = (
{
pos = (-21,133);
ref = uniE00A;
}
);
};
layerId = "3FD7D777-D61F-402B-A269-3A472D550581";
shapes = (
{
closed = 1;
nodes = (
(246,0,l),
(246,528,ls),
(246,558,o),
(263,573,o),
(294,573,cs),
(312,573,o),
(336,569,o),
(349,564,c),
(373,674,l),
(324,689,o),
(278,698,o),
(236,698,cs),
(126,698,o),
(57,647,o),
(57,556,cs),
(57,0,l)
);
},
{
pos = (-20,133);
ref = uniE00A;
}
);
vertWidth = 0;
width = 377;
},
{
anchors = (
{
name = bottom;
pos = (159,0);
},
{
name = top;
pos = (257,694);
}
);
layerId = m003;
shapes = (
{
closed = 1;
nodes = (
(213,0,l),
(213,541,ls),
(213,587,o),
(240,608,o),
(286,608,cs),
(310,608,o),
(334,602,o),
(346,594,c),
(365,669,l),
(332,684,o),
(295,694,o),
(257,694,cs),
(166,694,o),
(104,651,o),
(104,565,cs),
(104,0,l)
);
},
{
pos = (-1,174);
ref = uniE00A;
}
);
vertWidth = 0;
width = 376;
}
);
unicode = 102;
},
{
glyphname = fengdigraph;
lastChange = "2026-02-24 20:52:23 +0000";
layers = (
{
layerId = "AE3FEF6D-3AA7-4252-B349-D2606A6A3B4C";
shapes = (
{
ref = f;
},
{
pos = (285,0);
ref = eng;
},
{
closed = 1;
nodes = (
(307,457,l),
(396,457,l),
(396,483,l),
(307,483,l)
);
}
);
width = 828;
},
{
layerId = "3FD7D777-D61F-402B-A269-3A472D550581";
shapes = (
{
ref = f;
},
{
pos = (349,0);
ref = eng;
},
{
closed = 1;
nodes = (
(359,359,l),
(394,359,l),
(394,500,l),
(359,500,l)
);
}
);
width = 944;
},
{
layerId = m003;
shapes = (
{
ref = f;
},
{
pos = (317,0);
ref = eng;
},
{
closed = 1;
nodes = (
(333,414,l),
(405,414,l),
(405,492,l),
(333,492,l)
);
}
);
width = 906;
}
);
metricLeft = f;
metricRight = eng;
unicode = 681;
},
{
glyphname = g;
kernLeft = c;
kernRight = g;
lastChange = "2026-02-24 20:52:23 +0000";
layers = (
{
anchors = (
{
name = "T-bar";
pos = (398,244);
},
{
name = bottom;
pos = (260,-238);
},
{
name = top;
pos = (338,487);
}
);
layerId = "AE3FEF6D-3AA7-4252-B349-D2606A6A3B4C";
shapes = (
{
pos = (-61,0);
ref = uniE01C;
},
{
closed = 1;
nodes = (
(44,-76,l),
(46,-178,o),
(142,-238,o),
(260,-238,cs),
(378,-238,o),
(475,-178,o),
(475,-73,cs),
(475,483,l),
(445,483,l),
(445,-73,ls),
(445,-161,o),
(359,-212,o),
(258,-212,cs),
(159,-212,o),
(75,-162,o),
(73,-76,c)
);
}
);
vertWidth = 0;
width = 557;
},
{
anchors = (
{
name = "T-bar";
pos = (427,244);
},
{
name = bottom;
pos = (272,-226);
},
{
name = top;
pos = (307,500);
}
);
layerId = "3FD7D777-D61F-402B-A269-3A472D550581";
shapes = (
{
pos = (-122,0);
ref = uniE01C;
},
{
closed = 1;
nodes = (
(19,-44,l),
(8,-159,o),
(112,-226,o),
(272,-226,cs),
(434,-226,o),
(540,-157,o),
(540,-44,cs),
(540,500,l),
(352,500,l),
(352,-44,ls),
(352,-77,o),
(322,-95,o),
(280,-95,cs),
(237,-95,o),
(207,-77,o),
(207,-44,c)
);
}
);
vertWidth = 0;
width = 576;
},
{
anchors = (
{
name = "T-bar";
pos = (417,244);
},
{
name = bottom;
pos = (270,-232);
},
{
name = top;
pos = (327,494);
}
);
layerId = m003;
shapes = (
{
pos = (-87,0);
ref = uniE01C;
},
{
closed = 1;
nodes = (
(36,-60,l),
(31,-169,o),
(131,-232,o),
(270,-232,cs),
(410,-232,o),
(512,-167,o),
(512,-58,cs),
(512,492,l),
(403,492,l),
(403,-58,ls),
(403,-119,o),
(345,-153,o),
(273,-153,cs),
(202,-153,o),
(145,-119,o),
(144,-60,c)
);
}
);
vertWidth = 0;
width = 580;
}
);
metricLeft = o;
metricRight = "=|p";
unicode = 103;
},
{
color = 3;
glyphname = h;
lastChange = "2026-02-24 20:52:23 +0000";
layers = (
{
anchors = (
{
name = bottom;
pos = (264,0);
},
{
name = "d-bar";
pos = (96,555);
},
{
name = top;
pos = (264,681);
}
);
layerId = "AE3FEF6D-3AA7-4252-B349-D2606A6A3B4C";
shapes = (
{
closed = 1;
nodes = (
(111,0,l),
(111,681,l),
(81,681,l),
(81,0,l)
);
},
{
pos = (7,0);
ref = uniE00D;
}
);
vertWidth = 0;
width = 526;
},
{
anchors = (
{
name = bottom;
pos = (299,0);
},
{
name = "d-bar";
pos = (137,556);
},
{
name = top;
pos = (299,688);
}
);
layerId = "3FD7D777-D61F-402B-A269-3A472D550581";
shapes = (
{
closed = 1;
nodes = (
(233,0,l),
(233,688,l),
(44,688,l),
(44,0,l)
);
},
{
pos = (54,0);
ref = uniE00D;
}
);
vertWidth = 0;
width = 597;
},
{
anchors = (
{
name = bottom;
pos = (291,0);
},
{
name = "d-bar";
pos = (126,556);
},
{
name = top;
pos = (291,685);
}
);
layerId = m003;
shapes = (
{
closed = 1;
nodes = (
(181,0,l),
(181,685,l),
(72,685,l),
(72,0,l)
);
},
{
pos = (39,0);
ref = uniE00D;
}
);
vertWidth = 0;
width = 579;
}
);
metricLeft = l;
unicode = 104;
},
{
color = 3;
glyphname = idotless;
lastChange = "2026-02-24 21:00:53 +0000";
layers = (
{
anchors = (
{
name = bottom;
pos = (104,0);
},
{
name = bottom.alt;
pos = (104,0);
},
{
name = top;
pos = (104,483);
}
);
layerId = "AE3FEF6D-3AA7-4252-B349-D2606A6A3B4C";
shapes = (
{
closed = 1;
nodes = (
(119,0,l),
(119,483,l),
(89,483,l),
(89,0,l)
);
}
);
vertWidth = 0;
width = 208;
},
{
anchors = (
{
name = bottom;
pos = (136,0);
},
{
name = bottom.alt;
pos = (136,0);
},
{
name = top;
pos = (136,499);
}
);
layerId = "3FD7D777-D61F-402B-A269-3A472D550581";
shapes = (
{
closed = 1;
nodes = (
(232,0,l),
(232,500,l),
(42,500,l),
(42,0,l)
);
}
);
vertWidth = 0;
width = 273;
},
{
anchors = (
{
name = bottom;
pos = (136,0);
},
{
name = bottom.alt;
pos = (136,0);
},
{
name = top;
pos = (136,491);
}
);
layerId = m003;
shapes = (
{
closed = 1;
nodes = (
(192,0,l),
(192,492,l),
(82,492,l),
(82,0,l)
);
}
);
vertWidth = 0;
width = 273;
}
);
unicode = 305;
},
{
color = 3;
glyphname = jdotless;
kernLeft = j;
lastChange = "2026-02-24 20:52:23 +0000";
layers = (
{
anchors = (
{
name = bottom;
pos = (-14,-238);
},
{
name = top;
pos = (98,483);
}
);
layerId = "AE3FEF6D-3AA7-4252-B349-D2606A6A3B4C";
shapes = (
{
closed = 1;
nodes = (
(58,-238,o),
(112,-204,o),
(112,-124,cs),
(112,483,l),
(82,483,l),
(82,-122,ls),
(82,-184,o),
(47,-211,o),
(-14,-211,cs),
(-35,-211,o),
(-55,-208,o),
(-67,-206,c),
(-73,-230,l),
(-54,-235,o),
(-35,-238,o),
(-14,-238,cs)
);
}
);
vertWidth = 0;
width = 194;
},
{
anchors = (
{
name = bottom;
pos = (51,-227);
},
{
name = top;
pos = (137,499);
}
);
layerId = "3FD7D777-D61F-402B-A269-3A472D550581";
shapes = (
{
closed = 1;
nodes = (
(149,-226,o),
(232,-187,o),
(232,-85,cs),
(232,500,l),
(43,500,l),
(43,-64,ls),
(43,-90,o),
(23,-102,o),
(-6,-102,cs),
(-21,-102,o),
(-44,-99,o),
(-60,-95,c),
(-85,-203,l),
(-44,-216,o),
(5,-226,o),
(52,-226,cs)
);
}
);
vertWidth = 0;
width = 268;
},
{
anchors = (
{
name = bottom;
pos = (29,-232);
},
{
name = top;
pos = (128,491);
}
);
layerId = m003;
shapes = (
{
closed = 1;
nodes = (
(114,-232,o),
(182,-195,o),
(182,-104,cs),
(182,492,l),
(73,492,l),
(73,-93,ls),
(73,-137,o),
(45,-156,o),
(0,-156,cs),
(-18,-156,o),
(-39,-153,o),
(-53,-150,c),
(-69,-216,l),
(-39,-225,o),
(-5,-232,o),
(29,-232,cs)
);
}
);
vertWidth = 0;
width = 250;
}
);
metricRight = "=|p";
unicode = 567;
},
{
color = 3;
glyphname = k;
kernRight = k;
lastChange = "2026-02-24 20:52:23 +0000";
layers = (
{
anchors = (
{
name = bottom;
pos = (258,0);
},
{
name = top;
pos = (258,681);
}
);
layerId = "AE3FEF6D-3AA7-4252-B349-D2606A6A3B4C";
shapes = (
{
closed = 1;
nodes = (
(111,0,l),
(111,230,l),
(196,230,l),
(404,0,l),
(443,0,l),
(222,249,l),
(421,483,l),
(382,483,l),
(194,261,l),
(111,261,l),
(111,681,l),
(81,681,l),
(81,0,l)
);
}
);
vertWidth = 0;
width = 459;
},
{
anchors = (
{
name = bottom;
pos = (302,0);
},
{
name = top;
pos = (406,686);
}
);
layerId = "3FD7D777-D61F-402B-A269-3A472D550581";
shapes = (
{
closed = 1;
nodes = (
(232,0,l),
(232,217,l),
(244,217,l),
(385,0,l),
(618,0,l),
(407,273,l),
(600,500,l),
(366,500,l),
(244,311,l),
(232,311,l),
(232,688,l),
(44,688,l),
(44,0,l)
);
}
);
vertWidth = 0;
width = 607;
},
{
anchors = (
{
name = bottom;
pos = (289,0);
},
{
name = top;
pos = (341,684);
}
);
layerId = m003;
shapes = (
{
closed = 1;
nodes = (
(181,0,l),
(181,224,l),
(229,224,l),
(404,0,l),
(540,0,l),
(324,261,l),
(520,492,l),
(383,492,l),
(228,286,l),
(181,286,l),
(181,685,l),
(72,685,l),
(72,0,l)
);
}
);
vertWidth = 0;
width = 542;
}
);
metricLeft = l;
unicode = 107;
},
{
color = 8;
glyphname = khook;
kernRight = k;
lastChange = "2026-02-24 20:52:23 +0000";
layers = (
{
layerId = "AE3FEF6D-3AA7-4252-B349-D2606A6A3B4C";
shapes = (
{
closed = 1;
nodes = (
(216,681,ls),
(111,681,o),
(43,630,o),
(43,547,cs),
(43,516,l),
(74,516,l),
(74,547,ls),
(74,615,o),
(128,655,o),
(216,655,c),
(216,0,l),
(246,0,l),
(246,230,l),
(331,230,l),
(539,0,l),
(578,0,l),
(357,249,l),
(556,483,l),
(518,483,l),
(329,261,l),
(246,261,l),
(246,681,l)
);
}
);
vertWidth = 0;
width = 594;
},
{
layerId = "3FD7D777-D61F-402B-A269-3A472D550581";
shapes = (
{
closed = 1;
nodes = (
(259,688,ls),
(108,688,o),
(11,619,o),
(11,511,cs),
(11,449,l),
(200,449,l),
(200,511,ls),
(200,540,o),
(225,556,o),
(259,556,c),
(259,0,l),
(447,0,l),
(447,217,l),
(459,217,l),
(601,0,l),
(834,0,l),
(623,273,l),
(816,500,l),
(582,500,l),
(459,311,l),
(447,311,l),
(447,688,l)
);
}
);
vertWidth = 0;
width = 823;
},
{
layerId = m003;
shapes = (
{
closed = 1;
nodes = (
(243,685,ls),
(115,685,o),
(32,625,o),
(32,529,cs),
(32,483,l),
(142,483,l),
(142,529,ls),
(142,578,o),
(182,606,o),
(243,606,c),
(243,0,l),
(352,0,l),
(352,224,l),
(400,224,l),
(575,0,l),
(711,0,l),
(495,261,l),
(691,492,l),
(555,492,l),
(399,286,l),
(352,286,l),
(352,685,l)
);
}
);
vertWidth = 0;
width = 713;
}
);
metricLeft = J;
metricRight = k;
unicode = 409;
},
{
color = 3;
glyphname = l;
lastChange = "2026-02-24 20:52:23 +0000";
layers = (
{
anchors = (
{
name = "L-slash";
pos = (96,342);
},
{
name = bottom;
pos = (96,0);
},
{
name = middle_dot_I;
pos = (182,363);
},
{
name = top;
pos = (96,681);
},
{
name = top.alt;
pos = (112,681);
}
);
layerId = "AE3FEF6D-3AA7-4252-B349-D2606A6A3B4C";
shapes = (
{
closed = 1;
nodes = (
(112,0,l),
(112,681,l),
(81,681,l),
(81,0,l)
);
}
);
vertWidth = 0;
width = 193;
},
{
anchors = (
{
name = "L-slash";
pos = (138,328);
},
{
name = bottom;
pos = (138,0);
},
{
name = middle_dot_I;
pos = (293,394);
},
{
name = top;
pos = (138,686);
},
{
name = top.alt;
pos = (231,686);
}
);
layerId = "3FD7D777-D61F-402B-A269-3A472D550581";
shapes = (
{
closed = 1;
nodes = (
(233,0,l),
(233,688,l),
(44,688,l),
(44,0,l)
);
}
);
vertWidth = 0;
width = 276;
},
{
anchors = (
{
name = "L-slash";
pos = (126,335);
},
{
name = bottom;
pos = (126,0);
},
{
name = middle_dot_I;
pos = (247,379);
},
{
name = top;
pos = (126,684);
},
{
name = top.alt;
pos = (181,684);
}
);
layerId = m003;
shapes = (
{
closed = 1;
nodes = (
(182,0,l),
(182,685,l),
(72,685,l),
(72,0,l)
);
}
);
vertWidth = 0;
width = 253;
}
);
unicode = 108;
},
{
glyphname = lezh;
lastChange = "2026-02-24 20:52:23 +0000";
layers = (
{
layerId = "AE3FEF6D-3AA7-4252-B349-D2606A6A3B4C";
shapes = (
{
ref = l;
userData = {
UFO.identifier = 53D54F9D;
UFO.lib = {
};
};
},
{
pos = (213,0);
ref = ezh;
userData = {
UFO.identifier = 4726571D;
UFO.lib = {
};
};
},
{
closed = 1;
nodes = (
(96,457,l),
(258,457,l),
(258,483,l),
(96,483,l)
);
}
);
width = 743;
},
{
layerId = "3FD7D777-D61F-402B-A269-3A472D550581";
shapes = (
{
ref = l;
userData = {
UFO.identifier = 53D54F9D;
UFO.lib = {
};
};
},
{
pos = (272,0);
ref = ezh;
userData = {
UFO.identifier = 4726571D;
UFO.lib = {
};
};
},
{
closed = 1;
nodes = (
(204,359,l),
(325,359,l),
(325,500,l),
(204,500,l)
);
}
);
width = 870;
},
{
layerId = m003;
shapes = (
{
ref = l;
userData = {
UFO.identifier = 53D54F9D;
UFO.lib = {
};
};
},
{
pos = (243,0);
ref = ezh;
userData = {
UFO.identifier = 4726571D;
UFO.lib = {
};
};
},
{
closed = 1;
nodes = (
(150,414,l),
(292,414,l),
(292,492,l),
(150,492,l)
);
}
);
width = 815;
}
);
metricLeft = l;
metricRight = ezh;
unicode = 622;
},
{
glyphname = lsdigraph;
lastChange = "2026-02-24 20:52:23 +0000";
layers = (
{
layerId = "AE3FEF6D-3AA7-4252-B349-D2606A6A3B4C";
shapes = (
{
ref = l;
userData = {
UFO.identifier = 42A5E318;
UFO.lib = {
};
};
},
{
pos = (194,0);
ref = s;
userData = {
UFO.identifier = 329C9C64;
UFO.lib = {
};
};
},
{
closed = 1;
nodes = (
(107,0,l),
(407,0,l),
(407,21,l),
(107,21,l)
);
}
);
width = 665;
},
{
layerId = "3FD7D777-D61F-402B-A269-3A472D550581";
shapes = (
{
ref = l;
userData = {
UFO.identifier = 42A5E318;
UFO.lib = {
};
};
},
{
pos = (272,0);
ref = s;
userData = {
UFO.identifier = 329C9C64;
UFO.lib = {
};
};
},
{
closed = 1;
nodes = (
(134,0,l),
(464,0,l),
(464,116,l),
(134,116,l)
);
}
);
width = 791;
},
{
layerId = m003;
shapes = (
{
ref = l;
userData = {
UFO.identifier = 42A5E318;
UFO.lib = {
};
};
},
{
pos = (233,0);
ref = s;
userData = {
UFO.identifier = 329C9C64;
UFO.lib = {
};
};
},
{
closed = 1;
nodes = (
(121,0,l),
(436,0,l),
(436,69,l),
(121,69,l)
);
}
);
width = 740;
}
);
metricLeft = l;
metricRight = s;
unicode = 682;
},
{
glyphname = lzdigraph;
lastChange = "2026-02-24 20:52:23 +0000";
layers = (
{
layerId = "AE3FEF6D-3AA7-4252-B349-D2606A6A3B4C";
shapes = (
{
ref = l;
userData = {
UFO.identifier = 53D54F9D;
UFO.lib = {
};
};
},
{
pos = (213,0);
ref = z;
userData = {
UFO.identifier = 4726571D;
UFO.lib = {
};
};
},
{
closed = 1;
nodes = (
(108,457,l),
(268,457,l),
(268,483,l),
(108,483,l)
);
}
);
width = 636;
},
{
layerId = "3FD7D777-D61F-402B-A269-3A472D550581";
shapes = (
{
ref = l;
userData = {
UFO.identifier = 53D54F9D;
UFO.lib = {
};
};
},
{
pos = (272,0);
ref = z;
userData = {
UFO.identifier = 4726571D;
UFO.lib = {
};
};
},
{
closed = 1;
nodes = (
(204,359,l),
(325,359,l),
(325,500,l),
(204,500,l)
);
}
);
width = 794;
},
{
layerId = m003;
shapes = (
{
ref = l;
userData = {
UFO.identifier = 53D54F9D;
UFO.lib = {
};
};
},
{
pos = (243,0);
ref = z;
userData = {
UFO.identifier = 4726571D;
UFO.lib = {
};
};
},
{
closed = 1;
nodes = (
(156,408,l),
(297,408,l),
(297,492,l),
(156,492,l)
);
}
);
width = 726;
}
);
metricLeft = l;
metricRight = z;
unicode = 683;
},
{
glyphname = m;
kernLeft = m;
lastChange = "2026-02-24 21:46:40 +0000";
layers = (
{
anchors = (
{
name = bottom;
pos = (413,0);
},
{
name = top;
pos = (423,488);
}
);
layerId = "AE3FEF6D-3AA7-4252-B349-D2606A6A3B4C";
shapes = (
{
closed = 1;
nodes = (
(118,0,l),
(118,483,l),
(89,483,l),
(89,0,l)
);
},
{
closed = 1;
nodes = (
(393,0,l),
(423,0,l),
(423,271,ls),
(423,410,o),
(380,488,o),
(274,488,cs),
(190,488,o),
(145,439,o),
(122,396,c),
(103,396,l),
(103,266,l),
(118,266,l),
(118,387,o),
(170,461,o),
(266,461,cs),
(356,461,o),
(393,395,o),
(393,271,cs)
);
},
{
closed = 1;
nodes = (
(698,0,l),
(728,0,l),
(728,271,ls),
(728,410,o),
(685,488,o),
(579,488,cs),
(495,488,o),
(446,441,o),
(417,376,c),
(407,376,l),
(407,266,l),
(423,266,l),
(423,387,o),
(475,461,o),
(571,461,cs),
(661,461,o),
(698,395,o),
(698,271,cs)
);
}
);
vertWidth = 0;
width = 800;
},
{
anchors = (
{
name = bottom;
pos = (456,0);
},
{
name = top;
pos = (526,504);
}
);
layerId = "3FD7D777-D61F-402B-A269-3A472D550581";
shapes = (
{
closed = 1;
nodes = (
(230,0,l),
(230,500,l),
(42,500,l),
(42,0,l)
);
},
{
closed = 1;
nodes = (
(372,0,l),
(561,0,l),
(561,288,ls),
(561,426,o),
(492,510,o),
(393,510,cs),
(317,510,o),
(260,456,o),
(239,385,c),
(220,385,l),
(220,279,l),
(230,279,l),
(230,338,o),
(253,372,o),
(302,372,cs),
(349,372,o),
(372,340,o),
(372,288,cs)
);
},
{
closed = 1;
nodes = (
(703,0,l),
(892,0,l),
(892,288,ls),
(892,426,o),
(820,510,o),
(717,510,cs),
(636,510,o),
(577,456,o),
(555,385,c),
(533,385,l),
(533,279,l),
(561,279,l),
(561,338,o),
(584,372,o),
(633,372,cs),
(680,372,o),
(703,340,o),
(703,288,cs)
);
}
);
vertWidth = 0;
width = 916;
},
{
anchors = (
{
name = bottom;
pos = (451,0);
},
{
name = top;
pos = (491,496);
}
);
layerId = m003;
shapes = (
{
closed = 1;
nodes = (
(190,0,l),
(190,492,l),
(82,492,l),
(82,0,l)
);
},
{
closed = 1;
nodes = (
(399,0,l),
(508,0,l),
(508,279,ls),
(508,410,o),
(453,499,o),
(334,499,cs),
(258,499,o),
(222,463,o),
(196,421,c),
(178,421,l),
(178,279,l),
(190,279,l),
(190,360,o),
(231,407,o),
(302,407,cs),
(374,407,o),
(399,359,o),
(399,279,cs)
);
},
{
closed = 1;
nodes = (
(717,0,l),
(826,0,l),
(826,279,ls),
(826,410,o),
(766,499,o),
(639,499,cs),
(571,499,o),
(521,473,o),
(485,421,c),
(466,421,l),
(466,279,l),
(508,279,l),
(508,360,o),
(549,407,o),
(620,407,cs),
(692,407,o),
(717,359,o),
(717,279,cs)
);
}
);
vertWidth = 0;
width = 883;
}
);
metricLeft = idotless;
metricRight = h;
unicode = 109;
},
{
glyphname = n;
kernLeft = m;
lastChange = "2026-02-24 20:56:17 +0000";
layers = (
{
anchors = (
{
name = bottom;
pos = (271,0);
},
{
name = top;
pos = (271,488);
}
);
layerId = "AE3FEF6D-3AA7-4252-B349-D2606A6A3B4C";
shapes = (
{
closed = 1;
nodes = (
(118,0,l),
(118,483,l),
(89,483,l),
(89,0,l)
);
},
{
pos = (14,0);
ref = uniE00D;
}
);
vertWidth = 0;
width = 533;
},
{
anchors = (
{
name = bottom;
pos = (296,0);
},
{
name = top;
pos = (296,503);
}
);
layerId = "3FD7D777-D61F-402B-A269-3A472D550581";
shapes = (
{
closed = 1;
nodes = (
(231,0,l),
(231,500,l),
(42,500,l),
(42,0,l)
);
},
{
pos = (52,0);
ref = uniE00D;
}
);
vertWidth = 0;
width = 595;
},
{
anchors = (
{
name = bottom;
pos = (300,0);
},
{
name = top;
pos = (300,496);
}
);
layerId = m003;
shapes = (
{
closed = 1;
nodes = (
(191,0,l),
(191,492,l),
(82,492,l),
(82,0,l)
);
},
{
pos = (49,0);
ref = uniE00D;
}
);
vertWidth = 0;
width = 589;
}
);
metricLeft = idotless;
metricRight = h;
unicode = 110;
},
{
glyphname = eng;
lastChange = "2026-02-24 21:37:41 +0000";
layers = (
{
layerId = "AE3FEF6D-3AA7-4252-B349-D2606A6A3B4C";
shapes = (
{
ref = n;
},
{
closed = 1;
nodes = (
(418,-238,o),
(471,-203,o),
(471,-123,cs),
(471,0,l),
(457,3,l),
(442,0,l),
(442,-122,ls),
(442,-184,o),
(406,-211,o),
(346,-211,cs),
(315,-211,o),
(290,-203,o),
(280,-192,c),
(266,-213,l),
(282,-227,o),
(310,-238,o),
(346,-238,cs)
);
}
);
width = 543;
},
{
layerId = "3FD7D777-D61F-402B-A269-3A472D550581";
shapes = (
{
ref = n;
},
{
closed = 1;
nodes = (
(485,-226,o),
(571,-187,o),
(571,-82,cs),
(571,0,l),
(476,20,l),
(382,0,l),
(382,-59,ls),
(382,-89,o),
(365,-101,o),
(332,-101,cs),
(317,-101,o),
(299,-98,o),
(278,-92,c),
(253,-201,l),
(295,-217,o),
(344,-226,o),
(389,-226,cs)
);
}
);
width = 595;
},
{
layerId = m003;
shapes = (
{
ref = n;
},
{
closed = 1;
nodes = (
(463,-232,o),
(532,-195,o),
(532,-102,cs),
(532,0,l),
(478,12,l),
(423,0,l),
(423,-90,ls),
(423,-136,o),
(397,-156,o),
(350,-156,cs),
(327,-156,o),
(306,-151,o),
(290,-142,c),
(271,-207,l),
(300,-222,o),
(338,-232,o),
(379,-232,cs)
);
}
);
width = 589;
}
);
metricLeft = idotless;
metricRight = "=n";
unicode = 331;
},
{
color = 3;
glyphname = o;
kernLeft = c;
lastChange = "2026-02-24 20:52:23 +0000";
layers = (
{
anchors = (
{
name = bottom;
pos = (259,-4);
},
{
name = bottom.alt;
pos = (259,-4);
},
{
name = "o-slash";
pos = (251,245);
},
{
name = top;
pos = (259,487);
},
{
name = top.alt;
pos = (347,444);
}
);
layerId = "AE3FEF6D-3AA7-4252-B349-D2606A6A3B4C";
shapes = (
{
closed = 1;
nodes = (
(389,-4,o),
(475,94,o),
(475,243,cs),
(475,390,o),
(389,487,o),
(259,487,cs),
(130,487,o),
(44,390,o),
(44,243,cs),
(44,94,o),
(130,-4,o),
(259,-4,cs)
);
},
{
closed = 1;
nodes = (
(147,21,o),
(74,109,o),
(74,243,cs),
(74,376,o),
(147,462,o),
(259,462,cs),
(372,462,o),
(445,376,o),
(445,243,cs),
(445,109,o),
(372,21,o),
(259,21,cs)
);
}
);
vertWidth = 0;
width = 519;
},
{
anchors = (
{
name = bottom;
pos = (278,-10);
},
{
name = bottom.alt;
pos = (278,-5);
},
{
name = "o-slash";
pos = (277,240);
},
{
name = top;
pos = (278,511);
},
{
name = top.alt;
pos = (325,409);
}
);
layerId = "3FD7D777-D61F-402B-A269-3A472D550581";
shapes = (
{
closed = 1;
nodes = (
(438,-10,o),
(538,86,o),
(538,248,cs),
(538,410,o),
(438,510,o),
(278,510,cs),
(118,510,o),
(18,410,o),
(18,248,cs),
(18,86,o),
(118,-10,o),
(278,-10,cs)
);
},
{
closed = 1;
nodes = (
(230,116,o),
(206,159,o),
(206,248,cs),
(206,337,o),
(230,381,o),
(278,381,cs),
(326,381,o),
(351,337,o),
(351,248,cs),
(351,159,o),
(326,116,o),
(278,116,cs)
);
}
);
vertWidth = 0;
width = 556;
},
{
anchors = (
{
name = bottom;
pos = (274,-7);
},
{
name = bottom.alt;
pos = (274,-4);
},
{
name = "o-slash";
pos = (269,243);
},
{
name = top;
pos = (274,499);
},
{
name = top.alt;
pos = (341,427);
}
);
layerId = m003;
shapes = (
{
closed = 1;
nodes = (
(419,-7,o),
(512,90,o),
(512,246,cs),
(512,400,o),
(419,499,o),
(274,499,cs),
(129,499,o),
(36,400,o),
(36,246,cs),
(36,90,o),
(129,-7,o),
(274,-7,cs)
);
},
{
closed = 1;
nodes = (
(194,69,o),
(145,134,o),
(145,246,cs),
(145,357,o),
(194,422,o),
(274,422,cs),
(354,422,o),
(403,357,o),
(403,246,cs),
(403,134,o),
(354,69,o),
(274,69,cs)
);
}
);
vertWidth = 0;
width = 548;
}
);
unicode = 111;
},
{
color = 8;
glyphname = obarred;
lastChange = "2026-02-24 21:40:28 +0000";
layers = (
{
layerId = "AE3FEF6D-3AA7-4252-B349-D2606A6A3B4C";
shapes = (
{
ref = o;
},
{
closed = 1;
nodes = (
(64,231,l),
(467,231,l),
(467,256,l),
(64,256,l)
);
}
);
width = 519;
},
{
layerId = "3FD7D777-D61F-402B-A269-3A472D550581";
shapes = (
{
ref = o;
},
{
closed = 1;
nodes = (
(113,207,l),
(442,207,l),
(442,294,l),
(113,294,l)
);
}
);
width = 556;
},
{
layerId = m003;
shapes = (
{
ref = o;
},
{
closed = 1;
nodes = (
(89,212,l),
(455,212,l),
(455,282,l),
(89,282,l)
);
}
);
width = 548;
}
);
metricLeft = o;
metricRight = o;
unicode = 629;
},
{
color = 3;
glyphname = p;
kernLeft = m;
lastChange = "2026-02-24 20:52:23 +0000";
layers = (
{
anchors = (
{
name = bottom;
pos = (263,-233);
},
{
name = top;
pos = (263,488);
}
);
layerId = "AE3FEF6D-3AA7-4252-B349-D2606A6A3B4C";
shapes = (
{
closed = 1;
nodes = (
(113,-233,l),
(113,483,l),
(82,483,l),
(82,-233,l)
);
},
{
pos = (4,0);
ref = uniE00F;
}
);
vertWidth = 0;
width = 558;
},
{
anchors = (
{
name = bottom;
pos = (247,-209);
},
{
name = top;
pos = (247,482);
}
);
layerId = "3FD7D777-D61F-402B-A269-3A472D550581";
shapes = (
{
closed = 1;
nodes = (
(225,-216,l),
(225,500,l),
(36,500,l),
(36,-216,l)
);
},
{
pos = (20,-1);
ref = uniE00F;
}
);
vertWidth = 0;
width = 576;
},
{
anchors = (
{
name = bottom;
pos = (264,-221);
},
{
name = top;
pos = (264,485);
}
);
layerId = m003;
shapes = (
{
closed = 1;
nodes = (
(178,-224,l),
(178,492,l),
(68,492,l),
(68,-224,l)
);
},
{
pos = (21,0);
ref = uniE00F;
}
);
vertWidth = 0;
width = 581;
}
);
metricRight = o;
unicode = 112;
},
{
glyphname = thorn;
lastChange = "2026-02-25 14:07:10 +0000";
layers = (
{
layerId = "AE3FEF6D-3AA7-4252-B349-D2606A6A3B4C";
shapes = (
{
closed = 1;
nodes = (
(112,-228,l),
(112,681,l),
(81,681,l),
(81,-228,l)
);
},
{
pos = (3,0);
ref = uniE00F;
}
);
vertWidth = 0;
width = 557;
},
{
layerId = "3FD7D777-D61F-402B-A269-3A472D550581";
shapes = (
{
closed = 1;
nodes = (
(233,-216,l),
(233,688,l),
(44,688,l),
(44,-216,l)
);
},
{
pos = (28,-1);
ref = uniE00F;
}
);
vertWidth = 0;
width = 584;
},
{
layerId = m003;
shapes = (
{
closed = 1;
nodes = (
(182,-228,l),
(182,685,l),
(72,685,l),
(72,-228,l)
);
},
{
pos = (25,0);
ref = uniE00F;
}
);
vertWidth = 0;
width = 585;
}
);
metricLeft = l;
metricRight = o;
unicode = 254;
},
{
glyphname = q;
kernLeft = c;
lastChange = "2026-02-24 20:52:23 +0000";
layers = (
{
anchors = (
{
name = bottom;
pos = (290,-233);
},
{
name = top;
pos = (291,488);
}
);
layerId = "AE3FEF6D-3AA7-4252-B349-D2606A6A3B4C";
shapes = (
{
closed = 1;
nodes = (
(475,-233,l),
(475,483,l),
(445,483,l),
(445,-233,l)
);
},
{
pos = (-61,0);
ref = uniE01C;
}
);
vertWidth = 0;
width = 557;
},
{
anchors = (
{
name = bottom;
pos = (297,-214);
},
{
name = top;
pos = (298,482);
}
);
layerId = "3FD7D777-D61F-402B-A269-3A472D550581";
shapes = (
{
closed = 1;
nodes = (
(539,-216,l),
(539,500,l),
(351,500,l),
(351,-216,l)
);
},
{
pos = (-123,0);
ref = uniE01C;
}
);
vertWidth = 0;
width = 575;
},
{
anchors = (
{
name = bottom;
pos = (299,-223);
},
{
name = top;
pos = (300,485);
}
);
layerId = m003;
shapes = (
{
closed = 1;
nodes = (
(512,-224,l),
(512,492,l),
(403,492,l),
(403,-224,l)
);
},
{
pos = (-87,0);
ref = uniE01C;
}
);
vertWidth = 0;
width = 580;
}
);
metricLeft = o;
metricRight = "=|p";
unicode = 113;
},
{
glyphname = qpdigraph;
lastChange = "2026-02-24 20:52:23 +0000";
layers = (
{
layerId = "AE3FEF6D-3AA7-4252-B349-D2606A6A3B4C";
shapes = (
{
closed = 1;
nodes = (
(476,-233,l),
(476,483,l),
(445,483,l),
(445,-233,l)
);
},
{
pos = (367,0);
ref = uniE00F;
},
{
pos = (-61,0);
ref = uniE01C;
}
);
vertWidth = 0;
width = 921;
},
{
layerId = "3FD7D777-D61F-402B-A269-3A472D550581";
shapes = (
{
closed = 1;
nodes = (
(538,-216,l),
(538,500,l),
(351,500,l),
(351,-216,l)
);
},
{
pos = (333,0);
ref = uniE00F;
},
{
pos = (-123,0);
ref = uniE01C;
}
);
vertWidth = 0;
width = 889;
},
{
layerId = m003;
shapes = (
{
closed = 1;
nodes = (
(512,-224,l),
(512,492,l),
(403,492,l),
(403,-224,l)
);
},
{
pos = (355,0);
ref = uniE00F;
},
{
pos = (-87,0);
ref = uniE01C;
}
);
vertWidth = 0;
width = 915;
}
);
metricLeft = o;
metricRight = o;
unicode = 569;
},
{
color = 3;
glyphname = r;
kernLeft = m;
kernRight = r;
lastChange = "2026-02-24 20:56:17 +0000";
layers = (
{
anchors = (
{
name = bottom;
pos = (188,0);
},
{
name = top;
pos = (220,488);
}
);
layerId = "AE3FEF6D-3AA7-4252-B349-D2606A6A3B4C";
shapes = (
{
closed = 1;
nodes = (
(118,0,l),
(118,483,l),
(89,483,l),
(89,0,l)
);
},
{
pos = (13,0);
ref = uniE00E;
}
);
vertWidth = 0;
width = 351;
},
{
anchors = (
{
name = bottom;
pos = (210,0);
},
{
name = top;
pos = (277,499);
}
);
layerId = "3FD7D777-D61F-402B-A269-3A472D550581";
shapes = (
{
closed = 1;
nodes = (
(231,0,l),
(231,500,l),
(42,500,l),
(42,0,l)
);
},
{
pos = (-7,0);
ref = uniE00E;
}
);
vertWidth = 0;
width = 442;
},
{
anchors = (
{
name = bottom;
pos = (215,0);
},
{
name = top;
pos = (265,494);
}
);
layerId = m003;
shapes = (
{
closed = 1;
nodes = (
(191,0,l),
(191,492,l),
(82,492,l),
(82,0,l)
);
},
{
pos = (19,0);
ref = uniE00E;
}
);
vertWidth = 0;
width = 418;
}
);
metricLeft = idotless;
unicode = 114;
},
{
color = 3;
glyphname = s;
kernLeft = a;
lastChange = "2026-02-24 20:52:23 +0000";
layers = (
{
anchors = (
{
name = bottom;
pos = (236,-5);
},
{
name = top;
pos = (234,488);
}
);
layerId = "AE3FEF6D-3AA7-4252-B349-D2606A6A3B4C";
shapes = (
{
closed = 1;
nodes = (
(350,-5,o),
(421,55,o),
(421,132,cs),
(421,188,o),
(383,221,o),
(254,248,cs),
(128,274,o),
(102,304,o),
(102,351,cs),
(102,414,o),
(148,462,o),
(240,462,cs),
(330,462,o),
(385,416,o),
(385,364,c),
(415,364,l),
(415,431,o),
(346,488,o),
(240,488,cs),
(132,488,o),
(75,429,o),
(75,351,cs),
(75,288,o),
(113,248,o),
(258,218,cs),
(365,196,o),
(393,173,o),
(393,131,cs),
(393,70,o),
(334,21,o),
(238,21,cs),
(145,21,o),
(85,68,o),
(85,120,c),
(57,120,l),
(57,53,o),
(127,-5,o),
(238,-5,cs)
);
}
);
vertWidth = 0;
width = 471;
},
{
anchors = (
{
name = bottom;
pos = (251,-10);
},
{
name = top;
pos = (259,510);
}
);
layerId = "3FD7D777-D61F-402B-A269-3A472D550581";
shapes = (
{
closed = 1;
nodes = (
(405,-10,o),
(497,47,o),
(498,150,cs),
(497,233,o),
(438,277,o),
(272,305,cs),
(223,313,o),
(199,320,o),
(199,342,cs),
(199,363,o),
(221,381,o),
(260,381,cs),
(300,381,o),
(328,360,o),
(326,330,c),
(486,330,l),
(495,446,o),
(410,510,o),
(259,510,cs),
(108,510,o),
(20,446,o),
(20,342,cs),
(20,252,o),
(86,214,o),
(232,188,cs),
(307,174,o),
(322,164,o),
(323,149,cs),
(322,129,o),
(295,116,o),
(256,116,cs),
(208,116,o),
(180,134,o),
(179,162,c),
(15,162,l),
(7,46,o),
(96,-10,o),
(251,-10,cs)
);
}
);
vertWidth = 0;
width = 519;
},
{
anchors = (
{
name = bottom;
pos = (250,-7);
},
{
name = top;
pos = (253,499);
}
);
layerId = m003;
shapes = (
{
closed = 1;
nodes = (
(384,-7,o),
(465,51,o),
(466,141,cs),
(465,211,o),
(417,249,o),
(269,277,cs),
(182,294,o),
(157,312,o),
(157,347,cs),
(157,389,o),
(191,422,o),
(256,422,cs),
(321,422,o),
(363,388,o),
(362,347,c),
(457,347,l),
(461,438,o),
(384,499,o),
(256,499,cs),
(126,499,o),
(54,438,o),
(54,347,cs),
(54,270,o),
(106,231,o),
(251,203,cs),
(342,185,o),
(363,169,o),
(364,140,cs),
(364,100,o),
(321,69,o),
(253,69,cs),
(183,69,o),
(139,100,o),
(138,141,c),
(42,141,l),
(38,50,o),
(118,-7,o),
(251,-7,cs)
);
}
);
vertWidth = 0;
width = 507;
}
);
unicode = 115;
},
{
color = 3;
glyphname = germandbls;
lastChange = "2026-02-24 20:52:23 +0000";
layers = (
{
layerId = "AE3FEF6D-3AA7-4252-B349-D2606A6A3B4C";
shapes = (
{
closed = 1;
nodes = (
(406,-5,o),
(514,35,o),
(514,130,cs),
(514,195,o),
(462,220,o),
(416,242,cs),
(375,262,o),
(338,280,o),
(338,321,cs),
(338,350,o),
(357,373,o),
(379,398,cs),
(406,430,o),
(438,466,o),
(438,528,cs),
(438,606,o),
(388,691,o),
(260,691,cs),
(129,691,o),
(81,602,o),
(81,501,cs),
(81,0,l),
(111,0,l),
(111,501,ls),
(111,597,o),
(154,664,o),
(258,664,cs),
(362,664,o),
(405,596,o),
(405,530,cs),
(405,476,o),
(378,445,o),
(351,414,cs),
(328,387,o),
(305,361,o),
(305,322,cs),
(305,265,o),
(351,242,o),
(396,220,cs),
(438,198,o),
(481,177,o),
(481,126,cs),
(481,61,o),
(410,21,o),
(304,21,cs),
(274,21,o),
(241,24,o),
(213,31,c),
(209,5,l),
(234,-1,o),
(264,-5,o),
(298,-5,cs)
);
}
);
vertWidth = 0;
width = 569;
},
{
layerId = "3FD7D777-D61F-402B-A269-3A472D550581";
shapes = (
{
closed = 1;
nodes = (
(458,-5,o),
(526,29,o),
(526,138,cs),
(526,237,o),
(474,281,o),
(435,307,cs),
(419,316,o),
(409,321,o),
(409,334,cs),
(409,345,o),
(419,355,o),
(425,362,cs),
(450,386,o),
(473,424,o),
(473,484,cs),
(473,592,o),
(397,698,o),
(251,698,cs),
(114,698,o),
(44,605,o),
(44,500,cs),
(44,0,l),
(215,0,l),
(215,500,ls),
(215,542,o),
(227,566,o),
(259,566,cs),
(292,566,o),
(305,543,o),
(305,518,cs),
(305,499,o),
(298,473,o),
(276,442,cs),
(264,425,o),
(242,389,o),
(242,334,cs),
(242,268,o),
(274,241,o),
(319,211,cs),
(343,196,o),
(363,184,o),
(363,167,cs),
(363,148,o),
(342,135,o),
(308,135,cs),
(297,135,o),
(284,137,o),
(267,141,c),
(250,0,l),
(282,-3,o),
(312,-5,o),
(338,-5,cs)
);
}
);
vertWidth = 0;
width = 547;
},
{
layerId = m003;
shapes = (
{
closed = 1;
nodes = (
(441,-5,o),
(529,32,o),
(529,134,cs),
(529,216,o),
(477,251,o),
(435,275,cs),
(406,289,o),
(383,301,o),
(383,328,cs),
(383,348,o),
(397,364,o),
(411,380,cs),
(437,408,o),
(465,445,o),
(465,506,cs),
(465,599,o),
(402,695,o),
(265,695,cs),
(131,695,o),
(72,604,o),
(72,501,cs),
(72,0,l),
(172,0,l),
(172,501,ls),
(172,570,o),
(200,615,o),
(268,615,cs),
(336,615,o),
(364,570,o),
(364,524,cs),
(364,488,o),
(347,459,o),
(323,428,cs),
(305,406,o),
(283,375,o),
(283,328,cs),
(283,267,o),
(322,242,o),
(367,216,cs),
(400,197,o),
(431,181,o),
(431,147,cs),
(431,105,o),
(385,78,o),
(315,78,cs),
(295,78,o),
(272,80,o),
(249,86,c),
(239,3,l),
(267,-2,o),
(297,-5,o),
(327,-5,cs)
);
}
);
vertWidth = 0;
width = 573;
}
);
metricLeft = l;
unicode = 223;
},
{
color = 3;
glyphname = longs;
lastChange = "2026-02-25 14:07:27 +0000";
layers = (
{
anchors = (
{
name = "L-slash";
pos = (154,342);
},
{
name = bottom;
pos = (154,0);
},
{
name = "d-bar";
pos = (148,542);
},
{
name = top;
pos = (264,689);
}
);
layerId = "AE3FEF6D-3AA7-4252-B349-D2606A6A3B4C";
shapes = (
{
closed = 1;
nodes = (
(168,0,l),
(168,573,ls),
(168,635,o),
(203,663,o),
(264,663,cs),
(295,663,o),
(319,654,o),
(330,644,c),
(345,664,l),
(329,678,o),
(300,689,o),
(264,689,cs),
(193,689,o),
(138,654,o),
(138,574,cs),
(138,0,l)
);
},
{
ref = uniE016;
}
);
vertWidth = 0;
width = 352;
},
{
anchors = (
{
name = "L-slash";
pos = (165,328);
},
{
name = bottom;
pos = (157,0);
},
{
name = "d-bar";
pos = (170,479);
},
{
name = top;
pos = (243,698);
}
);
layerId = "3FD7D777-D61F-402B-A269-3A472D550581";
shapes = (
{
closed = 1;
nodes = (
(252,0,l),
(252,531,ls),
(252,561,o),
(269,573,o),
(300,573,cs),
(315,573,o),
(335,569,o),
(355,563,c),
(379,673,l),
(338,689,o),
(288,698,o),
(243,698,cs),
(148,698,o),
(63,659,o),
(63,553,cs),
(63,0,l)
);
},
{
pos = (-37,0);
ref = uniE016;
scale = (1,0.9);
}
);
vertWidth = 0;
width = 347;
},
{
anchors = (
{
name = "L-slash";
pos = (163,335);
},
{
name = bottom;
pos = (159,0);
},
{
name = "d-bar";
pos = (162,511);
},
{
name = top;
pos = (257,694);
}
);
layerId = m003;
shapes = (
{
closed = 1;
nodes = (
(213,0,l),
(213,542,ls),
(213,588,o),
(239,608,o),
(285,608,cs),
(308,608,o),
(330,602,o),
(346,594,c),
(365,669,l),
(337,684,o),
(297,694,o),
(257,694,cs),
(174,694,o),
(104,657,o),
(104,564,cs),
(104,0,l)
);
},
{
pos = (-15,0);
ref = uniE016;
scale = (1,0.95);
}
);
vertWidth = 0;
width = 355;
}
);
unicode = 383;
},
{
color = 3;
glyphname = t;
kernLeft = a;
kernRight = t;
lastChange = "2026-02-24 20:52:23 +0000";
layers = (
{
anchors = (
{
name = bottom;
pos = (258,-5);
},
{
name = top;
pos = (147,624);
},
{
name = top.alt;
pos = (300,624);
}
);
layerId = "AE3FEF6D-3AA7-4252-B349-D2606A6A3B4C";
shapes = (
{
closed = 1;
nodes = (
(279,-5,o),
(299,-2,o),
(318,3,c),
(313,27,l),
(301,24,o),
(278,21,o),
(257,21,cs),
(197,21,o),
(162,49,o),
(162,111,cs),
(162,624,l),
(133,624,l),
(133,109,ls),
(133,29,o),
(187,-5,o),
(258,-5,cs)
);
},
{
pos = (-7,215);
ref = uniE00A;
}
);
vertWidth = 0;
width = 377;
},
{
anchors = (
{
name = bottom;
pos = (266,-10);
},
{
name = top;
pos = (180,625);
},
{
name = top.alt;
pos = (383,625);
}
);
layerId = "3FD7D777-D61F-402B-A269-3A472D550581";
shapes = (
{
closed = 1;
nodes = (
(314,-10,o),
(362,0,o),
(404,13,c),
(379,121,l),
(363,118,o),
(340,115,o),
(325,115,cs),
(296,115,o),
(276,126,o),
(276,160,cs),
(276,626,l),
(86,626,l),
(86,132,ls),
(86,30,o),
(169,-10,o),
(266,-10,cs)
);
},
{
pos = (-11,133);
ref = uniE00A;
}
);
vertWidth = 0;
width = 408;
},
{
anchors = (
{
name = bottom;
pos = (265,-7);
},
{
name = top;
pos = (167,625);
},
{
name = top.alt;
pos = (345,625);
}
);
layerId = m003;
shapes = (
{
closed = 1;
nodes = (
(300,-7,o),
(334,-1,o),
(364,8,c),
(349,84,l),
(335,81,o),
(312,78,o),
(294,78,cs),
(250,78,o),
(222,98,o),
(222,146,cs),
(222,625,l),
(113,625,l),
(113,121,ls),
(113,30,o),
(181,-7,o),
(265,-7,cs)
);
},
{
pos = (-6,174);
ref = uniE00A;
}
);
vertWidth = 0;
width = 401;
}
);
unicode = 116;
},
{
glyphname = tccurl;
lastChange = "2026-02-24 20:52:24 +0000";
layers = (
{
layerId = "AE3FEF6D-3AA7-4252-B349-D2606A6A3B4C";
shapes = (
{
ref = t;
userData = {
UFO.identifier = 29EEF611;
UFO.lib = {
};
};
},
{
pos = (377,0);
ref = ccurl;
userData = {
UFO.identifier = ABEA72C2;
UFO.lib = {
};
};
},
{
closed = 1;
nodes = (
(257,457,l),
(598,457,l),
(598,483,l),
(257,483,l)
);
}
);
width = 887;
},
{
layerId = "3FD7D777-D61F-402B-A269-3A472D550581";
shapes = (
{
ref = t;
userData = {
UFO.identifier = 29EEF611;
UFO.lib = {
};
};
},
{
pos = (408,0);
ref = ccurl;
userData = {
UFO.identifier = ABEA72C2;
UFO.lib = {
};
};
},
{
closed = 1;
nodes = (
(345,359,l),
(618,359,l),
(618,500,l),
(345,500,l)
);
}
);
width = 936;
},
{
layerId = m003;
shapes = (
{
ref = t;
userData = {
UFO.identifier = 29EEF611;
UFO.lib = {
};
};
},
{
pos = (393,0);
ref = ccurl;
userData = {
UFO.identifier = ABEA72C2;
UFO.lib = {
};
};
},
{
closed = 1;
nodes = (
(301,414,l),
(608,414,l),
(608,492,l),
(301,492,l)
);
}
);
width = 920;
}
);
metricLeft = t;
metricRight = ccurl;
unicode = 680;
},
{
glyphname = tesh;
lastChange = "2026-02-24 20:52:24 +0000";
layers = (
{
layerId = "AE3FEF6D-3AA7-4252-B349-D2606A6A3B4C";
shapes = (
{
ref = t;
userData = {
UFO.identifier = ED1A4142;
UFO.lib = {
};
};
},
{
pos = (377,0);
ref = esh;
userData = {
UFO.identifier = 5BCFE65E;
UFO.lib = {
};
};
},
{
closed = 1;
nodes = (
(290,457,l),
(474,457,l),
(474,483,l),
(290,483,l)
);
}
);
width = 674;
},
{
layerId = "3FD7D777-D61F-402B-A269-3A472D550581";
shapes = (
{
ref = t;
userData = {
UFO.identifier = ED1A4142;
UFO.lib = {
};
};
},
{
pos = (408,0);
ref = esh;
userData = {
UFO.identifier = 5BCFE65E;
UFO.lib = {
};
};
},
{
closed = 1;
nodes = (
(354,359,l),
(480,359,l),
(480,500,l),
(354,500,l)
);
}
);
width = 755;
},
{
layerId = m003;
shapes = (
{
ref = t;
userData = {
UFO.identifier = ED1A4142;
UFO.lib = {
};
};
},
{
pos = (393,0);
ref = esh;
userData = {
UFO.identifier = 5BCFE65E;
UFO.lib = {
};
};
},
{
closed = 1;
nodes = (
(322,414,l),
(477,414,l),
(477,492,l),
(322,492,l)
);
}
);
width = 727;
}
);
metricLeft = t;
metricRight = esh;
unicode = 679;
},
{
glyphname = ts;
lastChange = "2026-02-24 20:52:24 +0000";
layers = (
{
layerId = "AE3FEF6D-3AA7-4252-B349-D2606A6A3B4C";
shapes = (
{
ref = t;
userData = {
UFO.identifier = 01ACCCF5;
UFO.lib = {
};
};
},
{
pos = (377,0);
ref = s;
userData = {
UFO.identifier = 9E5DEFCC;
UFO.lib = {
};
};
},
{
closed = 1;
nodes = (
(285,457,l),
(568,457,l),
(568,483,l),
(285,483,l)
);
}
);
width = 848;
},
{
layerId = "3FD7D777-D61F-402B-A269-3A472D550581";
shapes = (
{
ref = t;
userData = {
UFO.identifier = 01ACCCF5;
UFO.lib = {
};
};
},
{
pos = (408,0);
ref = s;
userData = {
UFO.identifier = 9E5DEFCC;
UFO.lib = {
};
};
},
{
closed = 1;
nodes = (
(355,359,l),
(586,359,l),
(586,500,l),
(355,500,l)
);
}
);
width = 927;
},
{
layerId = m003;
shapes = (
{
ref = t;
userData = {
UFO.identifier = 01ACCCF5;
UFO.lib = {
};
};
},
{
pos = (393,0);
ref = s;
userData = {
UFO.identifier = 9E5DEFCC;
UFO.lib = {
};
};
},
{
closed = 1;
nodes = (
(320,414,l),
(586,414,l),
(586,492,l),
(320,492,l)
);
}
);
width = 900;
}
);
metricLeft = t;
metricRight = s;
unicode = 678;
},
{
color = 3;
glyphname = tz;
lastChange = "2026-02-24 20:52:24 +0000";
layers = (
{
layerId = "AE3FEF6D-3AA7-4252-B349-D2606A6A3B4C";
shapes = (
{
alignment = -1;
ref = t;
},
{
alignment = -1;
attr = {
identifier = BE87CBD5;
};
pos = (272,0);
ref = ezh;
},
{
closed = 1;
nodes = (
(276,457,l),
(326,457,l),
(326,483,l),
(276,483,l)
);
}
);
width = 802;
},
{
layerId = "3FD7D777-D61F-402B-A269-3A472D550581";
shapes = (
{
alignment = -1;
ref = t;
},
{
alignment = -1;
attr = {
identifier = BE87CBD5;
};
pos = (379,0);
ref = ezh;
},
{
closed = 1;
nodes = (
(356,359,l),
(423,359,l),
(423,500,l),
(356,500,l)
);
}
);
width = 977;
},
{
layerId = m003;
shapes = (
{
alignment = -1;
ref = t;
},
{
alignment = -1;
attr = {
identifier = BE87CBD5;
};
pos = (326,0);
ref = ezh;
},
{
closed = 1;
nodes = (
(316,414,l),
(375,414,l),
(375,492,l),
(316,492,l)
);
}
);
width = 898;
}
);
metricLeft = t;
metricRight = ezh;
unicode = 42793;
},
{
glyphname = u;
kernLeft = a;
lastChange = "2026-02-25 14:07:45 +0000";
layers = (
{
anchors = (
{
name = bottom;
pos = (262,-4);
},
{
name = bottom.alt;
pos = (429,0);
},
{
name = top;
pos = (262,483);
},
{
name = top.alt;
pos = (428,444);
}
);
layerId = "AE3FEF6D-3AA7-4252-B349-D2606A6A3B4C";
shapes = (
{
closed = 1;
nodes = (
(443,0,l),
(443,483,l),
(415,483,l),
(415,0,l)
);
},
{
angle = 180;
pos = (519,483);
ref = uniE00D;
}
);
vertWidth = 0;
width = 532;
},
{
anchors = (
{
name = bottom;
pos = (298,-6);
},
{
name = bottom.alt;
pos = (458,-1);
},
{
name = top;
pos = (298,497);
},
{
name = top.alt;
pos = (481,400);
}
);
layerId = "3FD7D777-D61F-402B-A269-3A472D550581";
shapes = (
{
closed = 1;
nodes = (
(553,0,l),
(553,500,l),
(364,500,l),
(364,0,l)
);
},
{
angle = 180;
pos = (543,500);
ref = uniE00D;
}
);
vertWidth = 0;
width = 595;
},
{
anchors = (
{
name = bottom;
pos = (288,-5);
},
{
name = bottom.alt;
pos = (452,0);
},
{
name = top;
pos = (288,490);
},
{
name = top.alt;
pos = (463,422);
}
);
layerId = m003;
shapes = (
{
closed = 1;
nodes = (
(506,0,l),
(506,492,l),
(398,492,l),
(398,0,l)
);
},
{
angle = 180;
pos = (540,492);
ref = uniE00D;
}
);
vertWidth = 0;
width = 588;
}
);
metricLeft = "=|n";
metricRight = "=|n";
unicode = 117;
},
{
glyphname = ui;
lastChange = "2026-02-24 20:56:17 +0000";
layers = (
{
layerId = "AE3FEF6D-3AA7-4252-B349-D2606A6A3B4C";
shapes = (
{
angle = 180;
pos = (519,483);
ref = uniE00D;
},
{
pos = (285,408);
ref = period;
scale = (0.9975,1);
},
{
closed = 1;
nodes = (
(787,0,l),
(787,483,l),
(758,483,l),
(758,0,l)
);
},
{
closed = 1;
nodes = (
(444,290,l),
(415,290,l),
(415,206,ls),
(415,67,o),
(472,0,o),
(577,0,cs),
(667,0,o),
(727,49,o),
(754,112,c),
(773,112,l),
(773,222,l),
(758,222,l),
(758,101,o),
(688,27,o),
(583,27,cs),
(493,27,o),
(444,82,o),
(444,206,cs)
);
}
);
vertWidth = 0;
width = 876;
},
{
layerId = "3FD7D777-D61F-402B-A269-3A472D550581";
shapes = (
{
angle = 180;
pos = (543,500);
ref = uniE00D;
},
{
pos = (336,343);
ref = period;
scale = (0.9765,0.9);
},
{
closed = 1;
nodes = (
(895,0,l),
(895,500,l),
(705,500,l),
(705,0,l)
);
},
{
closed = 1;
nodes = (
(553,270,l),
(364,270,l),
(364,176,ls),
(364,53,o),
(428,-15,o),
(540,-15,cs),
(622,-15,o),
(670,22,o),
(696,85,c),
(714,85,l),
(714,207,l),
(705,207,l),
(705,148,o),
(673,118,o),
(629,118,cs),
(585,118,o),
(553,145,o),
(553,199,cs)
);
}
);
vertWidth = 0;
width = 937;
},
{
layerId = m003;
shapes = (
{
angle = 180;
pos = (540,492);
ref = uniE00D;
},
{
pos = (319,376);
ref = period;
scale = (0.987,0.95);
},
{
closed = 1;
nodes = (
(848,0,l),
(848,492,l),
(739,492,l),
(739,0,l)
);
},
{
closed = 1;
nodes = (
(507,280,l),
(398,280,l),
(398,192,ls),
(398,61,o),
(458,-7,o),
(571,-7,cs),
(653,-7,o),
(707,29,o),
(733,71,c),
(766,71,l),
(766,214,l),
(739,214,l),
(739,133,o),
(680,85,o),
(599,85,cs),
(537,85,o),
(507,113,o),
(507,193,cs)
);
}
);
vertWidth = 0;
width = 930;
}
);
metricLeft = u;
metricRight = u;
unicode = 43856;
},
{
color = 3;
glyphname = v;
kernLeft = v;
kernRight = v;
lastChange = "2026-02-24 20:52:23 +0000";
layers = (
{
anchors = (
{
name = bottom;
pos = (220,0);
},
{
name = top;
pos = (220,483);
}
);
layerId = "AE3FEF6D-3AA7-4252-B349-D2606A6A3B4C";
shapes = (
{
closed = 1;
nodes = (
(243,0,l),
(421,483,l),
(392,483,l),
(222,21,l),
(218,21,l),
(43,483,l),
(13,483,l),
(197,0,l)
);
}
);
vertWidth = 0;
width = 434;
},
{
anchors = (
{
name = bottom;
pos = (270,0);
},
{
name = top;
pos = (270,499);
}
);
layerId = "3FD7D777-D61F-402B-A269-3A472D550581";
shapes = (
{
closed = 1;
nodes = (
(378,0,l),
(562,500,l),
(360,500,l),
(272,186,l),
(268,186,l),
(179,500,l),
(-24,500,l),
(164,0,l)
);
}
);
vertWidth = 0;
width = 538;
},
{
anchors = (
{
name = bottom;
pos = (245,0);
},
{
name = top;
pos = (245,491);
}
);
layerId = m003;
shapes = (
{
closed = 1;
nodes = (
(311,0,l),
(492,492,l),
(376,492,l),
(247,104,l),
(243,104,l),
(111,492,l),
(-5,492,l),
(181,0,l)
);
}
);
vertWidth = 0;
width = 487;
}
);
unicode = 118;
},
{
color = 3;
glyphname = w;
kernLeft = v;
lastChange = "2026-02-24 20:52:23 +0000";
layers = (
{
anchors = (
{
name = bottom;
pos = (357,0);
},
{
name = top;
pos = (357,473);
}
);
layerId = "AE3FEF6D-3AA7-4252-B349-D2606A6A3B4C";
shapes = (
{
closed = 1;
nodes = (
(216,0,l),
(355,431,l),
(358,431,l),
(497,0,l),
(538,0,l),
(675,483,l),
(645,483,l),
(519,29,l),
(515,29,l),
(378,453,l),
(335,453,l),
(198,29,l),
(195,29,l),
(68,483,l),
(38,483,l),
(175,0,l)
);
}
);
vertWidth = 0;
width = 713;
},
{
anchors = (
{
name = bottom;
pos = (385,0);
},
{
name = top;
pos = (385,499);
}
);
layerId = "3FD7D777-D61F-402B-A269-3A472D550581";
shapes = (
{
closed = 1;
nodes = (
(316,0,l),
(383,248,l),
(387,248,l),
(455,0,l),
(640,0,l),
(780,500,l),
(615,500,l),
(538,213,l),
(534,213,l),
(463,500,l),
(307,500,l),
(237,213,l),
(233,213,l),
(155,500,l),
(-9,500,l),
(130,0,l)
);
}
);
vertWidth = 0;
width = 769;
},
{
anchors = (
{
name = bottom;
pos = (374,0);
},
{
name = top;
pos = (374,486);
}
);
layerId = m003;
shapes = (
{
closed = 1;
nodes = (
(269,0,l),
(372,340,l),
(376,340,l),
(479,0,l),
(592,0,l),
(731,492,l),
(633,492,l),
(532,121,l),
(528,121,l),
(424,477,l),
(324,477,l),
(221,121,l),
(217,121,l),
(115,492,l),
(18,492,l),
(156,0,l)
);
}
);
vertWidth = 0;
width = 746;
}
);
unicode = 119;
},
{
color = 3;
glyphname = x;
kernLeft = x;
kernRight = k;
lastChange = "2026-02-24 20:52:23 +0000";
layers = (
{
anchors = (
{
name = bottom;
pos = (236,0);
},
{
name = top;
pos = (236,483);
}
);
layerId = "AE3FEF6D-3AA7-4252-B349-D2606A6A3B4C";
shapes = (
{
closed = 1;
nodes = (
(63,0,l),
(236,228,l),
(412,0,l),
(451,0,l),
(254,249,l),
(441,483,l),
(403,483,l),
(236,269,l),
(72,483,l),
(34,483,l),
(219,249,l),
(24,0,l)
);
}
);
vertWidth = 0;
width = 475;
},
{
anchors = (
{
name = bottom;
pos = (270,0);
},
{
name = top;
pos = (270,499);
}
);
layerId = "3FD7D777-D61F-402B-A269-3A472D550581";
shapes = (
{
closed = 1;
nodes = (
(193,0,l),
(267,142,l),
(342,0,l),
(547,0,l),
(380,253,l),
(540,500,l),
(346,500,l),
(271,362,l),
(196,500,l),
(0,500,l),
(157,256,l),
(-9,0,l)
);
}
);
vertWidth = 0;
width = 538;
},
{
anchors = (
{
name = bottom;
pos = (254,0);
},
{
name = top;
pos = (254,491);
}
);
layerId = m003;
shapes = (
{
closed = 1;
nodes = (
(129,0,l),
(253,185,l),
(378,0,l),
(500,0,l),
(318,251,l),
(492,492,l),
(376,492,l),
(255,316,l),
(135,492,l),
(18,492,l),
(189,253,l),
(9,0,l)
);
}
);
vertWidth = 0;
width = 509;
}
);
unicode = 120;
},
{
color = 3;
glyphname = y;
kernLeft = v;
kernRight = v;
lastChange = "2026-02-24 20:52:23 +0000";
layers = (
{
anchors = (
{
name = bottom;
pos = (218,-233);
},
{
name = top;
pos = (220,483);
}
);
layerId = "AE3FEF6D-3AA7-4252-B349-D2606A6A3B4C";
shapes = (
{
closed = 1;
nodes = (
(33,-233,ls),
(123,-233,o),
(169,-198,o),
(204,-102,cs),
(421,483,l),
(392,483,l),
(222,21,l),
(218,21,l),
(43,483,l),
(13,483,l),
(204,-21,l),
(176,-96,ls),
(144,-181,o),
(114,-207,o),
(33,-207,cs),
(25,-207,l),
(25,-233,l)
);
}
);
vertWidth = 0;
width = 434;
},
{
anchors = (
{
name = bottom;
pos = (269,-211);
},
{
name = top;
pos = (270,499);
}
);
layerId = "3FD7D777-D61F-402B-A269-3A472D550581";
shapes = (
{
closed = 1;
nodes = (
(140,-216,ls),
(249,-216,o),
(322,-160,o),
(367,-33,cs),
(562,500,l),
(360,500,l),
(272,204,l),
(268,204,l),
(179,500,l),
(-24,500,l),
(187,-9,l),
(184,-16,ls),
(166,-63,o),
(133,-77,o),
(75,-77,cs),
(31,-77,l),
(31,-216,l)
);
}
);
vertWidth = 0;
width = 538;
},
{
anchors = (
{
name = bottom;
pos = (244,-222);
},
{
name = top;
pos = (245,491);
}
);
layerId = m003;
shapes = (
{
closed = 1;
nodes = (
(87,-224,ls),
(186,-224,o),
(246,-179,o),
(286,-67,cs),
(492,492,l),
(376,492,l),
(247,113,l),
(243,113,l),
(111,492,l),
(-5,492,l),
(196,-15,l),
(180,-56,ls),
(155,-122,o),
(124,-142,o),
(54,-142,cs),
(28,-142,l),
(28,-224,l)
);
}
);
vertWidth = 0;
width = 487;
}
);
unicode = 121;
},
{
color = 8;
glyphname = yhook;
kernLeft = v;
kernRight = v;
lastChange = "2026-02-24 20:52:23 +0000";
layers = (
{
layerId = "AE3FEF6D-3AA7-4252-B349-D2606A6A3B4C";
shapes = (
{
closed = 1;
nodes = (
(426,496,o),
(457,511,o),
(503,511,cs),
(533,511,o),
(560,502,o),
(571,492,c),
(586,512,l),
(570,526,o),
(541,537,o),
(505,537,cs),
(449,537,o),
(405,516,o),
(387,468,cs),
(222,21,l),
(218,21,l),
(43,483,l),
(13,483,l),
(204,-21,l),
(176,-96,ls),
(144,-181,o),
(114,-207,o),
(33,-207,cs),
(25,-207,l),
(25,-233,l),
(33,-233,ls),
(123,-233,o),
(169,-198,o),
(204,-102,cs),
(413,462,ls)
);
}
);
vertWidth = 0;
width = 596;
},
{
layerId = "3FD7D777-D61F-402B-A269-3A472D550581";
shapes = (
{
closed = 1;
nodes = (
(530,419,o),
(545,427,o),
(572,427,cs),
(591,427,o),
(612,423,o),
(631,417,c),
(658,527,l),
(616,543,o),
(567,552,o),
(522,552,cs),
(442,552,o),
(368,527,o),
(347,455,cs),
(272,204,l),
(268,204,l),
(179,500,l),
(-24,500,l),
(187,-9,l),
(184,-16,ls),
(166,-63,o),
(133,-77,o),
(75,-77,cs),
(31,-77,l),
(31,-216,l),
(140,-216,ls),
(249,-216,o),
(322,-161,o),
(367,-33,cs),
(524,399,ls)
);
}
);
vertWidth = 0;
width = 625;
},
{
layerId = m003;
shapes = (
{
closed = 1;
nodes = (
(478,457,o),
(501,469,o),
(538,469,cs),
(562,469,o),
(586,463,o),
(601,455,c),
(622,520,l),
(593,535,o),
(554,545,o),
(514,545,cs),
(446,545,o),
(386,521,o),
(367,462,cs),
(247,113,l),
(243,113,l),
(111,492,l),
(-5,492,l),
(196,-15,l),
(180,-56,ls),
(155,-122,o),
(124,-142,o),
(54,-142,cs),
(28,-142,l),
(28,-224,l),
(87,-224,ls),
(186,-224,o),
(246,-179,o),
(286,-67,cs),
(469,431,ls)
);
}
);
vertWidth = 0;
width = 612;
}
);
metricLeft = y;
metricRight = esh;
unicode = 436;
},
{
color = 3;
glyphname = z;
kernLeft = m;
lastChange = "2026-02-24 20:52:23 +0000";
layers = (
{
anchors = (
{
name = bottom;
pos = (213,0);
},
{
name = top;
pos = (213,483);
}
);
layerId = "AE3FEF6D-3AA7-4252-B349-D2606A6A3B4C";
shapes = (
{
closed = 1;
nodes = (
(398,0,l),
(398,26,l),
(50,26,l),
(50,30,l),
(398,444,l),
(398,483,l),
(27,483,l),
(27,457,l),
(374,457,l),
(374,453,l),
(27,40,l),
(27,0,l)
);
}
);
vertWidth = 0;
width = 423;
},
{
anchors = (
{
name = bottom;
pos = (271,0);
},
{
name = top;
pos = (271,499);
}
);
layerId = "3FD7D777-D61F-402B-A269-3A472D550581";
shapes = (
{
closed = 1;
nodes = (
(481,0,l),
(481,141,l),
(257,141,l),
(257,149,l),
(481,378,l),
(481,500,l),
(36,500,l),
(36,359,l),
(262,359,l),
(262,351,l),
(36,121,l),
(36,0,l)
);
}
);
vertWidth = 0;
width = 522;
},
{
anchors = (
{
name = bottom;
pos = (247,0);
},
{
name = top;
pos = (247,491);
}
);
layerId = m003;
shapes = (
{
closed = 1;
nodes = (
(445,0,l),
(445,84,l),
(159,84,l),
(159,90,l),
(445,411,l),
(445,492,l),
(37,492,l),
(37,408,l),
(323,408,l),
(323,402,l),
(37,81,l),
(37,0,l)
);
}
);
vertWidth = 0;
width = 483;
}
);
unicode = 122;
},
{
color = 3;
glyphname = zcurl;
lastChange = "2026-02-24 20:52:23 +0000";
layers = (
{
background = {
shapes = (
{
closed = 0;
nodes = (
(275,-82,l),
(275,127,o),
(339,251,o),
(446,251,cs),
(506,251,o),
(549,205,o),
(549,141,cs),
(549,59,o),
(467,13,o),
(320,13,cs),
(42,13,l)
);
}
);
};
layerId = "AE3FEF6D-3AA7-4252-B349-D2606A6A3B4C";
shapes = (
{
closed = 1;
nodes = (
(248,-122,l),
(272,-122,l),
(272,-82,ls),
(272,122,o),
(331,238,o),
(430,238,cs),
(482,238,o),
(521,198,o),
(521,141,cs),
(521,68,o),
(445,26,o),
(305,26,cs),
(50,26,l),
(50,30,l),
(398,444,l),
(398,483,l),
(27,483,l),
(27,457,l),
(374,457,l),
(374,453,l),
(27,40,l),
(27,0,l),
(305,0,ls),
(458,0,o),
(545,50,o),
(545,141,cs),
(545,212,o),
(499,264,o),
(430,264,cs),
(315,264,o),
(248,132,o),
(248,-82,cs)
);
}
);
vertWidth = 0;
width = 612;
},
{
layerId = "3FD7D777-D61F-402B-A269-3A472D550581";
shapes = (
{
closed = 1;
nodes = (
(344,-137,l),
(448,-137,l),
(448,-101,ls),
(448,85,o),
(495,195,o),
(572,195,cs),
(595,195,o),
(611,183,o),
(611,165,cs),
(611,140,o),
(577,141,o),
(508,141,cs),
(257,141,l),
(257,149,l),
(481,378,l),
(481,500,l),
(36,500,l),
(36,359,l),
(262,359,l),
(262,351,l),
(36,121,l),
(36,0,l),
(498,0,ls),
(643,0,o),
(732,65,o),
(732,170,cs),
(732,257,o),
(673,318,o),
(590,318,cs),
(445,318,o),
(344,147,o),
(344,-101,cs)
);
}
);
vertWidth = 0;
width = 739;
},
{
background = {
shapes = (
{
closed = 0;
nodes = (
(280,-82,l),
(280,127,o),
(344,251,o),
(451,251,cs),
(511,251,o),
(554,205,o),
(554,141,cs),
(554,59,o),
(472,13,o),
(325,13,cs),
(47,13,l)
);
}
);
};
layerId = m003;
shapes = (
{
closed = 1;
nodes = (
(301,-129,l),
(365,-129,l),
(365,-91,ls),
(365,104,o),
(418,217,o),
(506,217,cs),
(544,217,o),
(571,191,o),
(571,153,cs),
(571,104,o),
(516,84,o),
(412,84,cs),
(159,84,l),
(159,90,l),
(445,411,l),
(445,492,l),
(37,492,l),
(37,408,l),
(323,408,l),
(323,402,l),
(37,81,l),
(37,0,l),
(407,0,ls),
(556,0,o),
(644,58,o),
(644,156,cs),
(644,235,o),
(591,291,o),
(515,291,cs),
(385,291,o),
(301,140,o),
(301,-91,cs)
);
}
);
vertWidth = 0;
width = 687;
}
);
metricLeft = z;
unicode = 657;
},
{
color = 3;
glyphname = zswashtail;
lastChange = "2026-02-24 20:52:23 +0000";
layers = (
{
layerId = "AE3FEF6D-3AA7-4252-B349-D2606A6A3B4C";
shapes = (
{
closed = 1;
nodes = (
(425,-137,o),
(449,-119,o),
(476,-83,c),
(456,-68,l),
(433,-101,o),
(420,-111,o),
(375,-111,cs),
(329,-111,o),
(288,-80,o),
(252,-47,cs),
(209,-8,o),
(164,26,o),
(46,26,c),
(46,30,l),
(394,444,l),
(394,483,l),
(24,483,l),
(24,457,l),
(370,457,l),
(370,453,l),
(24,40,l),
(24,0,l),
(150,0,o),
(196,-33,o),
(241,-73,cs),
(277,-106,o),
(321,-137,o),
(375,-137,cs)
);
}
);
vertWidth = 0;
width = 407;
},
{
layerId = "3FD7D777-D61F-402B-A269-3A472D550581";
shapes = (
{
closed = 1;
nodes = (
(480,-123,o),
(539,-68,o),
(591,1,c),
(467,87,l),
(442,54,o),
(412,25,o),
(371,25,cs),
(336,25,o),
(312,44,o),
(290,64,cs),
(268,87,o),
(250,104,o),
(216,108,c),
(216,116,l),
(471,386,l),
(471,500,l),
(26,500,l),
(26,359,l),
(252,359,l),
(252,351,l),
(26,113,l),
(26,0,l),
(136,0,o),
(179,-33,o),
(219,-66,cs),
(255,-95,o),
(290,-123,o),
(371,-123,cs)
);
}
);
vertWidth = 0;
width = 506;
},
{
layerId = m003;
shapes = (
{
closed = 1;
nodes = (
(457,-130,o),
(498,-94,o),
(538,-41,c),
(466,10,l),
(442,-23,o),
(420,-43,o),
(377,-43,cs),
(337,-43,o),
(304,-18,o),
(275,9,cs),
(243,40,o),
(211,65,o),
(135,67,c),
(135,73,l),
(437,415,l),
(437,492,l),
(29,492,l),
(29,408,l),
(315,408,l),
(315,402,l),
(29,77,l),
(29,0,l),
(147,0,o),
(192,-33,o),
(234,-69,cs),
(270,-100,o),
(310,-130,o),
(377,-130,cs)
);
}
);
vertWidth = 0;
width = 471;
}
);
unicode = 576;
},
{
glyphname = ae.ss11;
lastChange = "2026-02-24 20:52:24 +0000";
layers = (
{
anchors = (
{
name = bottom;
pos = (457,0);
},
{
name = top;
pos = (457,483);
}
);
layerId = "AE3FEF6D-3AA7-4252-B349-D2606A6A3B4C";
shapes = (
{
pos = (-61,0);
ref = uniE01C;
},
{
closed = 1;
nodes = (
(469,0,l),
(469,483,l),
(445,483,l),
(445,392,l),
(445,92,l),
(445,0,l)
);
},
{
pos = (401,0);
ref = e;
}
);
userData = {
com.fontlab.hintData = {
hhints = (
{
position = -11;
width = 53;
},
{
position = 490;
width = 53;
},
{
position = 947;
width = 52;
}
);
vhints = (
{
position = 841;
width = 50;
}
);
};
};
vertWidth = 0;
width = 906;
},
{
anchors = (
{
name = bottom;
pos = (407,0);
},
{
name = top;
pos = (407,500);
}
);
layerId = "3FD7D777-D61F-402B-A269-3A472D550581";
shapes = (
{
pos = (-123,0);
ref = uniE01C;
},
{
closed = 1;
nodes = (
(453,0,l),
(453,500,l),
(370,500,l),
(351,399,l),
(351,99,l),
(370,0,l)
);
},
{
pos = (333,0);
ref = e;
}
);
vertWidth = 0;
width = 885;
},
{
anchors = (
{
name = bottom;
pos = (437,0);
},
{
name = top;
pos = (437,492);
}
);
layerId = m003;
shapes = (
{
pos = (-87,0);
ref = uniE01C;
},
{
closed = 1;
nodes = (
(466,0,l),
(466,492,l),
(413,492,l),
(403,396,l),
(403,96,l),
(413,0,l)
);
},
{
pos = (372,0);
ref = e;
}
);
userData = {
com.fontlab.hintData = {
hhints = (
{
position = -11;
width = 53;
},
{
position = 490;
width = 53;
},
{
position = 947;
width = 52;
}
);
vhints = (
{
position = 841;
width = 50;
}
);
};
};
vertWidth = 0;
width = 911;
}
);
metricLeft = o;
metricRight = e;
},
